<svg version="1.1" xmlns="http://www.w3.org/2000/svg" xmlns:xlink="http://www.w3.org/1999/xlink">
<defs>
<symbol id="icon-npm-logo" viewBox="0 0 2626 1024">
	<title>npm-logo</title>
	<path class="path1" d="M74.223 75.045h2505.029v807.176h-2505.029v-807.176z"></path>
	<path class="path2" d="M0 0h2625.641v882.215h-1312.821v141.785h-582.892v-141.785h-729.928zM148.634 732.518l290.039 0.002v-440.762h145.818v440.762h144.506v-582.895h-580.362zM873.463 147.036l1.75 735.18h288.821v-146.682h292.387v-588.497zM1160.533 288.821h152.287v299.323h-152.287zM1603.391 147.036v582.892h290.56v-437.61h145.286v437.613h145.127v-435.859h145.444v435.856h145.324v-582.892z"></path>
</symbol>
<symbol id="icon-browserify-logo" viewBox="0 0 887 1024">
	<title>browserify-logo</title>
	<path class="path1" d="M442.494 0c-147.498 85.333-294.996 170.666-442.494 255.999 0 170.667 0 341.334 0 512.001 147.498 85.333 294.996 170.667 442.494 256 147.499-85.333 294.999-170.667 442.498-256 0-170.667 0-341.334 0-512.001-147.499-85.333-294.999-170.666-442.498-255.999z"></path>
	<path class="path2" d="M35.267 277.614c135.739-78.53 271.478-157.060 407.217-235.59 135.74 78.53 271.48 157.060 407.221 235.59 0 157.061 0 314.121 0 471.182-135.74 78.531-271.48 157.061-407.221 235.592-135.739-78.531-271.478-157.061-407.217-235.592 0-157.061 0-314.121 0-471.182z"></path>
	<path class="path3" d="M407.157 148.866c-31.306 6.802-74.694-3.632-89.915 34.281-33.752 33.715-32.971 82.871-43.967 125.849 29.569 26.255 68.616-24.556 73.988-56.512 26.356 38.82 6.107 70.116-2.39 106.283-19.397 34.855-18.333 97.93-67.156 103.010-43.18 9.081-83.287 26.515-118.889 50.705-42.364 33.315 20.629 61.92 51.281 64.25 44.8 13.342 83.481 41.273 131.904 43.882 48.764 16.815 103.751 16.089 154.065 5.239 39.906-6.357 77.798-14.241 118.813-15.461 42.7-18.075 93.616-18.604 125.373-57.289 44.401-51.259-42.7-70.161-74.625-91.303-36.207-10.263-83.848-13.422-76.523-61.364-5.708-40.598-12.666-85.554-44.101-114.298-8.726-41.89-24.858-85.859-62.138-111.249-21.84-18.038-48.544-23.53-75.721-26.024z"></path>
	<path class="path4" d="M400.088 343.689c-20.481-5.111-70.327 12.314-23.722 10.552 51.981 10.889 27.353 74.904-1.799 97.317-15.779 8.442-51.508 7.733-12.458 12.415 51.614 8.665 91.373-55.176 68.054-99.399-7.593-9.513-17.888-18.297-30.076-20.885z"></path>
	<path class="path5" d="M433.296 322.22c8.061 19.928-35.055 20.387 0.112 26.369-5.421 31.461 27.2-7.621 34.212-0.456-25.3-6.585 7.101-26.937-24.604-19.642l-4.091-3.334-5.629-2.937z"></path>
	<path class="path6" d="M392.051 320.93c-14.294 13.463 23.712 13.28 18.443-2.090-4.382-12.466-24.107-7.844-18.443 2.090z"></path>
	<path class="path7" d="M453.851 383.084c-17.721-8.429-3.695 26.973 8.668 16.445 9.983-8.63-1.502-25.359-8.668-16.445z"></path>
	<path class="path8" d="M594.405 440.842c-18.050 43.363-63.374 66.624-108.133 69.049-49.515 7.541-102.2 8.637-149.982-8.91-24.226-3.69-38.274-31.429-38.243-35.512-36.152 28.56 48.641 46.448 3.208 56.499-32.283 19.832-109.33 68.885-64.87 105.35 10.326-5.53 0.372-63.696 37.853-68.471 32.654-25.831 63.616-46.518 97.356-25.494 3.536 42.642-27.785 83.915-14.166 126.701 36.617 18.986 5.476-42.513 20.4-64.194 11.346-32.951-15.153-84.212 32.811-68.65 51.673-0.013 105.109-3.735 152.782-24.274 15.082-15.326 49.041-37.761 30.983-62.095z"></path>
	<path class="path9" d="M262.144 681.551c-37.906 6.638-20.156 13.422 0.44 16.694-3.934-10.91 14.924 25.514 17.245-6.166-0.888-8.408-11.325-9.813-17.685-10.528z"></path>
	<path class="path10" d="M240.441 723.325v0zM241.739 677.145c-20.939 15.91-32.478 2.11-13.227 19.8-0.132 34.29 8.43 27.058-5.319 60.939-9.318 11.355 27.269-22.162 22.919-0.415-5.041-14.254-5.516-33.636-1.033-39.244-3.715-21.153-2.132-12.914 1.202-34.009 2.398-13.002-0.949-0.734-4.542-7.071z"></path>
	<path class="path11" d="M206.285 751.428v0zM196.241 678.929c-13.661 11.84-54.77 19.19-10.737 11.137 50.047 2.621 16.34 74.703-22.018 62.851-12.941 3.248-0.541 7.013 5.693 7.132 21.449-4.952 54.552-8.868 51.861-49.579 1.698-25.35-26.836-15.304-24.799-31.542zM187.219 627.844c-22.63 4.771-47.861 30.489-48.843 9.047-24.348 38.955 44.92-2.762 48.843-9.047z"></path>
	<path class="path12" d="M151.39 662.131v0zM185.881 750.002v0zM187.345 630.025c-17.762-4.547-39.957 36.539-30.848 32.001 20.237 26.491-19.079 98.336 25.762 89.569-14.669-6.657-2.327-53.19-11.887-72.477 7.322 0.678-1.479-26.679 2.176-36.574 7.281 6.353 9.552-8.625 14.797-12.52z"></path>
	<path class="path13" d="M148.021 723.558c-23.015 17.791 14.662 4.566 11.447 24.871 21.878 22.865 3.056-18.903-10.945-24.724-0.284 0.352-0.189-0.1-0.502-0.147z"></path>
	<path class="path14" d="M192.264 683.313c-21.756-0.071-62.941 36.245-20.258 10.758 15.984-17.972 51.012 22.824 28.41 15.107 4.841 8.825 5.383 7.733-1.907 24.379-8.065 17.486-63.401 25.517-14.679 16.991 21.642 7.022 14.564-13.615 38.32-28.982 4.384-14.696-2.159-33.143-7.074-25.335 0.668-2.824-0.587-3.17-15.737-11.637l-3.417-0.375-3.658-0.905zM199.798 673.54c-8.536 9.801-0.426 7.326 0 0zM200.594 672.386c-1.083 1.229-0.666 1.346 0 0z"></path>
	<path class="path15" d="M304.943 747.359v0zM275.517 709.297c-1.217 0.192 2.15 0.364 0 0zM306.471 693.171c26.269 7.289 8.63 38.301 11.238 52.554-19.048 18.868-2.416-3.794-28.070-7.427-2.609-18.283 0.967-37.43 16.832-45.127zM292.26 682.663c12.462 5.938-22.375 29.511-11.95 28.27 3.235 4.885-4.22 21.736 0.167 28.436 25.716 49.224 62.854-5.802 51.949-33.602 21.523 12.831-28.398-27.645-40.167-23.104z"></path>
	<path class="path16" d="M357.411 762.731c-0.042 0.116 0.068-0.027 0 0zM373.065 716.111c0.193-0.054-0.107 0.12 0 0zM334.661 683.921c1.852 0.051 0.322-0.161 0 0zM342.363 676.497c9.626 22.788-4.129-5.071-6.175 7.362-8.197 1.114-1.249 0.167 5.253 1.154 1.169 8.544-4.999 50.52 14.443 74.209 6.718-8.29 23-26.605 30.406 2.189 26.493-16.681 6.189-67.844 16.827-76.694-34.252-8.094-4.979 44.905-12.577 50.774 7.406 20.038-28.636-1.334-15.718-8.725-0.132-7.109-2.734-11.277 0.817-12.582-7.052-4.179 17.342-44.669-13.018-28.626 1.98 18.68 2.584 41.78 3.642 53.289-19.251 15.86-17.223-7.082-13.562-20.469-8.899-21.196 14.586-13.754 0.335-30.534 3.49 29.712-6.784-21.13-10.046-11.073l-0.627-0.273z"></path>
	<path class="path17" d="M429.2 763.005v0zM429.033 682.852c-35.071 17.15-16.068 55.818 0.356 38.378 30.986-2.349-16.658 67.383 13.934 27.751 20.037-26.051 4.116-44.616-20.777-41.429-1.61-8.647 2.252-17.432 6.486-24.7z"></path>
	<path class="path18" d="M414.719 740.32c-9.203 8.576 27.473 40.556 16.078 10.384-4.979-3.755-9.244-9.971-16.078-10.384z"></path>
	<path class="path19" d="M414.261 739.205c-30.246 21.088 0.667 13.765 0 0z"></path>
	<path class="path20" d="M428.97 683.397c-11.906 13.032-6.757 12.943 3.265 15.52-0.329-0.369 16.063 1.429 22.076 5.919 1.82-17.436-17.897-7.61-25.341-21.439z"></path>
	<path class="path21" d="M448.363 697.144c10.269 20.541 3.534-29.779 4.175-2.449-1.218 0.515-1.354 7.020-4.175 2.449z"></path>
	<path class="path22" d="M471.701 718.315c9.757 10.739-12.18 6.224 0 0zM502.236 716.595c0.28 0.669 0.184 0.971 0 0zM478.777 751.134v0zM483.777 685.053c-17.815 11.7-19.934 23.035-31.287 28.123 15.425 0.61 5.708 30.519 7.699 32.464 9.141 4.587 15.57 21.316 25.387 19.359 23.345-30.144 26.715-9.908 25.178-6.942 9.155-18.35-21.675-16.587-15.947-24.139 18.583 9.068-11.935 15.941-3.978 15.832-9.476 7.7-8.762 5.373-19.526-2.935-6.939-8.204-6.167-27.869-2.909-36.239 8.944-11.846 34.521-26.071 33.883 1.51-0.463 8.432-11.017-2.704-31.917 3.9-13.32 12.964 17.554 1.141 14.609 4.571 13.573 1.675 34.235 5.194 28.839-12.52 4.875-15.48-1.886-3.998-12.007-14.587-6.684-1.346-11.53-6.576-18.026-8.399z"></path>
	<path class="path23" d="M514.375 771.622v0zM517.054 755.076v0zM545.537 755.706v0zM541.624 676.644c-9.255 18.225-55.316-0.721-24.162 10.987 7.876 14.097 10.329 62.783-1.056 72.772-7.29 24.48 2.288-13.789 19.294-5.451 22.253 2.151-21.688-1.794 0.703-21.895 2.539-19.044-3.548-10.596 2.857-29.843 0.169-8.873 0.466-17.87 2.364-26.571z"></path>
	<path class="path24" d="M536.893 688.032c-0.995-3.567-0.020-4.084 0 0zM537.103 688.22c0.244-0.298-0.68-0.226 0 0zM553.929 681.446c-37.25 7.958 10.169 11.765 4.354 12.416 9.953 0.511-5.724 2.927 1.819 6.753-0.048 15.314 38.527-15.073-6.172-19.169z"></path>
	<path class="path25" d="M597.042 673.728c-9.164 15.445-46.966 50.463-17.754 34.038 11.965 13.128-3.685 66.46-9.872 59.874 9.98-14.048 38.207-12.327 28.171-27.955-6.243-1.79 1.46-14.906 4.96-41.188-4.786-6.974 4.289-20.768-5.505-24.769z"></path>
	<path class="path26" d="M597.249 670.43c-21.456-13.762 10.303-35.088 5.715-33.386 4.534-21.049 1.346 6.62-0.431 13.208-9.194 2.777 14.943 12.34-5.284 20.178z"></path>
	<path class="path27" d="M595.041 668.209c-11.724-7.016 8.403-29.717 3.344-16.116-8.652 9.56 16.414 13.213-3.344 16.116z"></path>
	<path class="path28" d="M635.739 699.188c20.516 13.009-21.421 17.587 0 0zM596.832 776.299c-0.972 0.838 0.045 0.39 0 0zM661.293 716.176v0zM648.422 629.206c-22.918-7.531-38.523 30.089-31.017 32.464-8.532-23.221 20.073-21.056 7.869-10.736-10.302 1.904 17.062 55.149-9.775 52.050 38.574 4.111-19.967 72.408-14.668 69.751 23.651-20.648 34.597-22.182 28.627-28.018 1.794-32.781 35.192-34.198 32.65-36.072 5.82-10.809 3.735 3.859-1.34-14.426-26.85 38.852-45.13-81.007 0-41.944 7.867 14.949-20.951 46.717 6.198 17.784-1.127-12.805 4.173-39.859-18.545-40.852z"></path>
	<path class="path29" d="M615.041 696.756c-14.408 12.972 3.696 21.238-0.984 9.646 5.362-6.382-1.768 3.999 0.984-9.646z"></path>
	<path class="path30" d="M631.437 705.37c7.134-13.41 9.113 14.304 0 0z"></path>
	<path class="path31" d="M677.282 703.927c0.149-0.031-0.158 0.112 0 0zM722.927 686.795c0.909-0.052-0.276 0.202 0 0zM672.112 795.51c-4.328-0.201-3.174 4.534 0 0zM705.975 743.669v0zM703.192 700.615v0zM676.299 654.875c-9.925 27.609-15.292 30.3-1.109 49.995-4.204 20.221 26.762 20.678 0.593 42.661-12.026 16.532-32.578 50.698-2.876 18.87 20.769-19.994-50.288 58.655-4.356 35.902 13.568-12.22-26.578 12.073-6.64-13.235 16.061-24.88 66.13-57.596 20.814-35.691 19.974-19.795 36.691-58.69 45.12-69.646-9.183 5.899 36.948-33.357 3.578-22.063 21.142 1.903-36.82 9.269-20.433 33.555-9.941 10.058-15.752 39.302-27.48 6.564-6.158-20.546-13.367-23.408-7.785-35.92 0.277-3.658 0.104-7.35 0.573-10.994zM676.612 653.386c-1.426 3.2 0.624 0.732 0 0zM676.612 652.926v0z"></path>
</symbol>
<symbol id="icon-grunt-logo" viewBox="0 0 885 1024">
	<title>grunt-logo</title>
	<path class="path1" d="M442.5 0l-442.5 256v512l442.5 256 442.5-256v-512l-442.5-256zM442.5 40l408 236v472l-408 236-408-236v-472l408-236z"></path>
	<path class="path2" d="M506.162 953.555c0 0 0 0 0 0 0 26-28.462 47.078-63.572 47.078s-63.572-21.077-63.572-47.078c0 0 0 0 0 0s0 0 0 0c0-26 28.462-47.078 63.572-47.078s63.572 21.077 63.572 47.078c0 0 0 0 0 0z"></path>
	<path class="path3" d="M174.739 335.507c4.653 32.911 28.237 70.030 5.565 100.72-21.718 26.681-37.069 64.161-13.099 94.893 22.032 33.959 76.064 35.315 84.477 81.010 15.39 44.148-1.696 89.571-10.342 132.887-0.285 49.022-1.636 104.903 31.197 144.761 29.873 20.413 63.694 34.566 99.030 41.955 50.323 15.113 106.621 27.901 156.327 3.539 28.782-24.669 72.14-14.503 95.561-47.056 22.228-43.903 24.14-95.132 28.84-143.338 7.832-54.23-18.613-109.922 1.63-162.618 19.127-37.381 84.835-39.652 88.705-86.516-12.901-31.337-49.899-47.887-42.592-86.312-10.055-34.256 41.639-52.11 27.496-85.878-22.668-30.378-63.449-27.638-96.972-23.364-29.126-3.718-51.155-36.468-81.819-43.673-91.006-43.148-204.294-21.259-278.691 44.509-32.010-11.667-67.534-2.331-96.386 11.627-2.594 7.434 0.215 15.379 1.072 22.853z"></path>
	<path class="path4" d="M360.067 637.489c-22.611 36.007-48.603 70.916-69.669 107.243 21.562 13.533 35.739 1.418 38.549-20.304 10.373-28.98 20.747-57.959 31.12-86.939z"></path>
	<path class="path5" d="M379.19 510.16c-7.534 26.188-28.8 72.925-51.165 69.364 18.622-21.238-0.334-75.172 40.661-70.832 3.502 0.489 7.003 0.979 10.505 1.468z"></path>
	<path class="path6" d="M366.959 527.24c-34.538 36.076-101.642 14.218-113.534-33.074-17.407-31.636-7.485-67.564 32.709-44.407 31.962 10.563 74.381 18.891 83.236 57.133 1.638 6.769 1.25 14.268-2.41 20.348z"></path>
	<path class="path7" d="M192.976 211.712c38.872-8.579 77.499 11.043 99.805 42.668 18.136 14.427-9.669 21.964-18.212 32.185-13.626 14.35-30.788 24.704-41.928-0.847-19.927-21.788-2.829-68.558-39.665-74.006z"></path>
	<path class="path8" d="M354.558 441.947c-29.087-40.475-90.193-50.984-133.137-27.892 40.083 0.818 80.952 13.255 104.556 47.451 21.080 17.091 52.646 34.944 79.269 21.697-24.371-0.089-39.281-22.776-50.688-41.257z"></path>
	<path class="path9" d="M241.002 533.833c-29.235-10.024-79.783-31.209-54.019-68.876 5.084-51.574-49.474 19.038-34.595 41.269 10.106 38.059 55.345 46.098 80.152 68.315 19.137 46.062 11.769 97.433 4.771 145.289 33.549-19.978 37.073-65.536 38.008-100.835-0.69-30.216-0.413-72.325-34.318-85.161z"></path>
	<path class="path10" d="M338.805 257.931c-18.686 13.481-68.399 27.285-68.629 40.81 13.376 5.6 11.782 14.365 28.133 19.066 19.877 12 55.445 45.64 64.511 43.812-7.669-33.732-49.718-63.681-26.638-99.729l2.622-3.959z"></path>
	<path class="path11" d="M442.768 906.009c-46.39-0.104-97.865-11.536-128.772-48.832 9.883 23.689 16.954 50.288 41.001 64.169 25.355 19.143 55.057 36.543 87.625 37.554z"></path>
	<path class="path12" d="M324.537 824.181c1.258 31.173 37.338 74.225 66.671 43.202 12.413-15.118 28.976-53.746-4.043-43.986-20.876 0.261-41.752 0.522-62.628 0.784z"></path>
	<path class="path13" d="M265.568 742.611c19.933-54.199 22.005-112.533 20.411-169.65-5.38 36.753-38.798 61.008-42.692 98.247 2.359 27.123-31.505 84.125 17.538 69.892l4.744 1.511z"></path>
	<path class="path14" d="M179.995 505.639c33.803-25.517 29.295-75.748 23.685-113.26-12.688-43.661 6.167 55.294-20.884 67.045-11.809 13.306-22.084 33.434-2.801 46.215z"></path>
	<path class="path15" d="M203.965 222.050c-4.938-5.758-14.303 0.505 0 0z"></path>
	<path class="path16" d="M355.144 244.992c-35.7-10.725-49.911-57.676-91.99-58.814-29.232-3.071-81.081 0.837-96.656 12.197 15.766 7.536 28.651 24.867 47.706 21.159 34.99-8.172 53.329 31.512 67.149 46.664 52.289-7.2 104.578-14.4 156.867-21.6z"></path>
	<path class="path17" d="M370.897 497.67c-30.355 27.921-85.319 17.796-107.192-15.604-14.070-27.721-0.937-71.644 32.714-41.771 32.469 9.449 43.481 47.831 74.478 57.374z"></path>
	<path class="path18" d="M344.21 489.792c-28.396 13.432-68.57-2.868-70.344-36.812-17.241 39.090 25.236 72.858 62.313 60.132 26.765-8.306 40.937-14.685 8.031-23.32z"></path>
	<path class="path19" d="M357.8 234.305c-3.1-28.421 22.104-76.234 45.819-75.415-2.538 22.439 12.33 57.989 18.063 18.774 10.651-24.729 71.522-67.196 51.975-15.451 0.289 20.257 6.495 42.632 24.673 18.836 13.398-10.345 51.48-21.596 28.923 6.606-13.636 21.519 6.403 58.748-31.125 45.453-45.731-1.921-91.578 5.235-137.15 2.283l-1.178-1.087z"></path>
	<path class="path20" d="M219.2 300.11c-16.115-24.22 7.447-69.464-34.675-80.369-9.163-11.122-53.135-3.899-29.46-22.279 45.714-44.464 123.564-34.074 165.201 10.823 17.917 16.054 43.134 39.166 7.628 45.466-20.993-29.398-51.16-64.949-92.429-65.361-21.137-1.723-73.495 8.132-29.363 22.23 28.907 14.456 30.278 67.168 32.436 83.162-6.446 2.109-12.892 4.218-19.338 6.328z"></path>
	<path class="path21" d="M177.538 489.027c27.762-40.859 33.055-95.112 17.201-141.485 0.441 42.902-11.223 84.591-14.214 127.277-0.793 4.772-1.345 9.622-2.986 14.208z"></path>
	<path class="path22" d="M281.169 275.498c-5.33-33.978-38.811-61.499-73.489-51.905-29.144-14.447 32.28-21.827 45.94-8.031 16.062 7.486 68.115 47.005 34.523 57.157-2.325 0.927-4.649 1.853-6.974 2.78z"></path>
	<path class="path23" d="M239.264 471.549c-20.246-15.703-2.271-72.174 20.601-41.603-15.466 6.916-18.93 26.518-20.601 41.603z"></path>
	<path class="path24" d="M352.474 494.046c-22.655 23.779-78.757 10.369-78.394-28.533-9.54-35.485 19.613-31 39.298-14.283-12.871-14.599-29.171-22.692-47.662-27.102-29.231-19.957-19.836 26.090-16.676 42.926 8.024 49.048 83.225 77.224 114.367 33.818 16.104-17.074-3.66-5.684-10.933-6.826z"></path>
	<path class="path25" d="M349.462 497.583c13.841 33.665 75.785 0.472 57.813-15.177-39.393 14.034-58.82-30.894-87.555-47.551-28.544-19.786-65.271-29.052-99.368-20.214 49.365 13.557 97.234 42.582 129.111 82.941z"></path>
	<path class="path26" d="M213.958 575.359c32.407 27.992 15.741 74.916 16.896 111.724-3.352 23.157-9.492 46.205 19.653 51.867 3.448-47.648 10.178-96.042 3.848-143.609-6.87-38.815-49.201-47.444-75.715-68.93-37.414-27.949 2.986-57.819 16.477-83.348 12.232-37.692-0.097-74.243-18.204-106.775 0.349-47.42 67.914-26.662 96.279-17.078 38.968 15.034 72.241 40.831 105.693 65.175-36.681-65.538-114.154-112.079-190.048-98.344-33.62 6.029-45.471 47.25-28.483 74.386 19.156 24.598 24.265 69.579-0.316 91.684-37.735 21.449-29.127 77.657 6.919 96.031 14.78 10.541 31.263 18.28 47.002 27.217z"></path>
	<path class="path27" d="M219.2 300.11c-16.115-24.22 7.447-69.464-34.675-80.369-9.161-11.123-53.134-3.899-29.461-22.277 45.713-44.466 123.565-34.076 165.202 10.822 17.914 16.053 43.136 39.165 7.631 45.465-20.996-29.389-51.16-64.95-92.432-65.36-21.137-1.723-73.495 8.132-29.363 22.23 28.907 14.456 30.277 67.167 32.437 83.162-6.446 2.109-12.892 4.219-19.339 6.328z"></path>
	<path class="path28" d="M218.693 302.761c-18.749-24.284 5.704-73.14-39.088-82.673-7.627-10.111-51.349-2.534-30.311-19.518 42.355-48.386 123.062-42.618 166.991 0.791 8.889 13.239 57.117 42.519 22.5 49.875-25.298 17.676-30.293-37.387-54.741-42.42-20.94-22.169-81.436-23.328-89.321-7.757 45.066 12.693 31.501 63.886 54.398 91.595-9.626 3.465-20.37 6.725-30.429 10.108z"></path>
	<path class="path29" d="M281.169 275.498c-5.33-33.978-38.811-61.499-73.489-51.905-29.143-14.446 32.28-21.828 45.94-8.031 16.062 7.486 68.113 47.003 34.525 57.156-2.325 0.927-4.65 1.854-6.976 2.78z"></path>
	<path class="path30" d="M279.477 278.715c-4.627-33.157-35.878-62.28-70.473-52.984-17.144 7.534-18.512-32.53 6.708-19.534 38.598-2.336 78.239 25.503 88.48 62.675-8.238 3.281-16.476 6.562-24.714 9.843zM221.851 219.758c35.849-6.966 51.501 39.409 66.682 50.26 26.29-12.296-23.787-47.258-39.545-53.892-13.758-14.716-71.992 3.338-32.856 3.864l5.719-0.231z"></path>
	<path class="path31" d="M367.343 865.292c-26.017 2.712-65.241-56.435-20.353-53.623 18.982 4.17 48.759-9.002 60.304 10.137-6.027 17.384-18.918 42.721-39.951 43.486z"></path>
	<path class="path32" d="M374.659 499.204c-19.644-3.173-32.549-3.438-16.239 19.084 10.15 17.839-12.152 65.576 9.78 28.468 7.943-14.003 14.633-32.135 6.459-47.552z"></path>
	<path class="path33" d="M343.203 931.829c-59.025-3.081-111.339-51.616-121.243-109.292 14.843 0.005 28.293 0.015 13.775 0 22.477 5.078 21.997 50.073 48.465 61.65 13.402 25.515 68.011 8.972 59.531 40.759-0.176 2.294-0.353 4.589-0.529 6.883z"></path>
	<path class="path34" d="M317.998 779.992c8.236-49.084-59.123-25.116-85.315-47.404-28.228-14.742-43.364-63.474-47.424-78.991-26.551 22.454-35.627 62.997-29.914 96.303 15.015 47.263 59.553 85.498 109.982 88.233-0.299-14.767 37.036-4.199 26.707-28.801 0.063-16.474 23.802-18.857 25.964-29.339z"></path>
	<path class="path35" d="M290.883 824.869c0.827-27.043-59.28-11.43-78.281-42.875-33.083-23.812-24.66-78.498-35.095-102.336-32.41 42.426-23.235 117.169 28.26 141.219 22.535 9.329 76.753 38.959 85.116 3.993z"></path>
	<path class="path36" d="M316.907 767.31c20.939-40.087-36.428-16.48-58.311-31.564-39.783-9.726-63.755-56.746-72.727-86.252-56.825 54.782-41.428 167.951 34.68 197.608 22.78 9.213 59.668 19.711 77.271 13.777 0.63-43.808-59.52-13.757-83.916-44.339-38.827-25.655-48.775-81.889-32.094-122.98 17.058 56.568 82.16 75.326 135.098 73.75z"></path>
	<path class="path37" d="M324.248 722.787c-3.22 23.157-35.676 56.042-32.793 66.589 44.383 6.91 41.884-46.756 55.13-75.049 7.468-26.132 20.542-75.634 18.105-88.25-15.35 31.398-27.773 64.167-40.442 96.711z"></path>
	<path class="path38" d="M524.94 637.489c22.608 36.009 48.599 70.919 69.669 107.243-21.564 13.531-35.749 1.424-38.557-20.305-10.371-28.979-20.742-57.959-31.112-86.938z"></path>
	<path class="path39" d="M505.811 510.16c3.512 25.071 37.442 80.451 49.176 66.028-11.238-26.215-5.913-79.966-49.176-66.028v0z"></path>
	<path class="path40" d="M518.040 527.24c35.046 36.473 101.776 13.638 113.834-33.708 17.839-31.858 4.585-65.497-33.226-43.598-31.52 10.44-73.199 18.272-82.642 55.799-1.64 7.102-2.006 15.096 2.034 21.508z"></path>
	<path class="path41" d="M692.028 211.712c-38.874-8.578-77.504 11.040-99.811 42.668-18.146 14.424 9.663 21.963 18.208 32.184 13.628 14.352 30.793 24.7 41.937-0.848 19.901-21.625 2.792-68.463 39.667-74.003z"></path>
	<path class="path42" d="M530.447 441.947c28.812-39.875 89.977-51.58 132.37-27.854-35.922 2.47-77.039 9.087-97.909 42.155-21.615 19.898-53.545 38.78-83.42 28.381 20.193-3.203 38.582-23.061 48.959-42.682z"></path>
	<path class="path43" d="M644.003 533.833c29.232-10.025 79.782-31.211 54.020-68.876-5.1-51.573 49.477 19.037 34.586 41.269-10.106 38.059-55.345 46.098-80.152 68.315-19.135 46.062-11.773 97.434-4.764 145.289-33.549-19.977-37.070-65.536-38.006-100.835 0.688-30.216 0.41-72.325 34.316-85.161z"></path>
	<path class="path44" d="M546.202 257.931c18.684 13.484 68.396 27.286 68.627 40.811-13.376 5.601-11.775 14.365-28.129 19.065-19.879 12-55.444 45.639-64.515 43.812 7.659-33.735 49.71-63.681 26.64-99.729l-2.622-3.959z"></path>
	<path class="path45" d="M442.241 906.009c46.386-0.103 97.855-11.539 128.757-48.832-9.875 23.691-16.943 50.29-40.992 64.169-25.353 19.141-55.053 36.542-87.619 37.554z"></path>
	<path class="path46" d="M560.467 824.181c-1.265 31.167-37.336 74.226-66.668 43.202-12.412-15.118-28.977-53.746 4.043-43.986 20.875 0.261 41.75 0.522 62.625 0.784z"></path>
	<path class="path47" d="M619.437 742.611c-19.937-54.198-22.021-112.532-20.411-169.65 5.37 36.756 38.793 61.007 42.682 98.247-2.362 27.118 31.504 84.119-17.528 69.892l-4.744 1.511z"></path>
	<path class="path48" d="M705.016 505.639c-32.164-24.013-29.115-70.789-24.882-106.612 2.438-16.136 7.871-35.384 6.022-8.284-4.116 33.775 8.446 63.56 28.694 89.469 4.4 9.831-2.793 19.316-9.835 25.427z"></path>
	<path class="path49" d="M681.037 222.050c4.948-5.754 14.31 0.502 0 0z"></path>
	<path class="path50" d="M529.853 244.992c35.701-10.725 49.915-57.68 91.999-58.814 29.232-3.071 81.082 0.837 96.657 12.197-15.768 7.537-28.655 24.869-47.713 21.159-35.52-8.926-52.981 32.012-67.147 46.664-52.287-7.2-104.574-14.4-156.862-21.6z"></path>
	<path class="path51" d="M514.107 497.67c31.040 28.6 88.24 17.372 108.511-18.322 11.649-27.399-0.953-67.278-32.904-39.656-33.12 9.454-44.347 48.255-75.607 57.978z"></path>
	<path class="path52" d="M540.787 489.792c27.889 13.066 67.046-2.183 70.503-35.129 17.828 40.984-29.8 71.254-65.657 57.695-27.389-9.629-34.359-14.226-4.846-22.566z"></path>
	<path class="path53" d="M665.802 300.11c16.13-24.218-7.452-69.467 34.677-80.369 9.162-11.124 53.148-3.897 29.469-22.278-45.715-44.463-123.569-34.080-165.205 10.822-17.917 16.054-43.128 39.166-7.626 45.47 20.998-29.416 51.164-64.944 92.432-65.365 21.135-1.724 73.484 8.133 29.357 22.23-28.912 14.454-30.265 67.174-32.441 83.162 6.446 2.109 12.892 4.218 19.338 6.328z"></path>
	<path class="path54" d="M707.457 489.027c-27.678-40.902-33.050-95.104-17.201-141.485-0.568 41.924 10.906 82.732 13.824 124.433 0.915 5.723 2.011 11.419 3.377 17.052z"></path>
	<path class="path55" d="M603.835 275.498c5.332-33.976 38.809-61.499 73.487-51.905 29.149-14.452-32.278-21.824-45.94-8.031-16.064 7.482-68.114 47.008-34.526 57.156 2.326 0.927 4.652 1.854 6.978 2.781z"></path>
	<path class="path56" d="M645.74 471.549c25.442-16.594-6.956-74.913-17.803-39.198 13.785 7.053 16.002 25.378 17.803 39.198z"></path>
	<path class="path57" d="M532.533 494.046c26.856 26.517 83.351 6.341 78.731-34.501 6.488-32.196-21.441-21.791-38.467-9.36 17.226-17.42 78.498-53.305 66.36-3.846 0.855 40.242-32.701 75.641-73.018 76.098-17.056 9.511-67.57-33.655-37.401-28.957l3.794 0.565z"></path>
	<path class="path58" d="M535.535 497.583c-13.78 27.779-68.837 10.67-59.958-16.432 52.985 18.029 73.629-55.593 122.331-62.888 14.524-7.752 62.575-10.113 60.011-1.949-46.739 15.129-91.859 42.302-122.384 81.269z"></path>
	<path class="path59" d="M671.053 575.359c-32.409 27.987-15.748 74.917-16.901 111.724 3.355 23.158 9.498 46.205-19.65 51.867-3.45-47.648-10.184-96.042-3.85-143.609 6.863-38.824 49.205-47.44 75.72-68.93 37.414-27.947-2.99-57.817-16.475-83.348-12.234-37.691 0.082-74.247 18.203-106.775-0.357-47.414-67.912-26.667-96.278-17.078-38.97 15.035-72.245 40.835-105.703 65.175 36.686-65.532 114.15-112.081 190.045-98.344 33.622 6.026 45.48 47.249 28.488 74.386-19.154 24.596-24.273 69.587 0.315 91.684 37.731 21.45 29.12 77.656-6.921 96.031-14.776 10.542-31.257 18.278-46.992 27.217z"></path>
	<path class="path60" d="M627.765 295.898c-35.134-50.085-100.304-66.686-158.28-72.159-70.462-4.509-148.615 7.442-201.424 57.918-25.584 18.676-2.356 20.614 14.906 23.794 21.4-28.64 61.039-40.922 95.442-49.303 72.391-13.725 154.595-7.422 214.872 38.411 5.573 19.197 23.608 5.314 36.949 4.613l-2.465-3.274z"></path>
	<path class="path61" d="M665.802 300.11c16.13-24.218-7.452-69.467 34.677-80.369 9.164-11.124 53.15-3.897 29.467-22.279-45.716-44.461-123.568-34.078-165.204 10.824-17.921 16.056-43.126 39.167-7.623 45.472 20.994-29.427 51.163-64.942 92.429-65.367 21.135-1.724 73.484 8.133 29.357 22.23-28.911 14.454-30.267 67.176-32.44 83.162 6.446 2.109 12.891 4.218 19.337 6.327z"></path>
	<path class="path62" d="M635.778 292.76c23.746-25.576 7.515-74.91 49.423-88.938 20.714-12.373-38.095-16.322-51.619-10.731-36.218 3.812-56.459 46.899-78.292 62.415-19.232-6.16-33.045-14.942-8.757-31.547 34.897-45.298 98.261-73.186 153.418-48.761 12.524 4.462 48.885 28.073 37.741 35.99-27.146 4.415-64.569 16.271-64.318 49.482 10.149 24.129-3.073 53.1-28.643 35.028-2.985-0.979-5.969-1.957-8.954-2.936z"></path>
	<path class="path63" d="M603.835 275.498c5.332-33.976 38.809-61.499 73.487-51.905 29.149-14.453-32.278-21.823-45.94-8.031-16.065 7.482-68.116 47.010-34.524 57.157 2.325 0.927 4.651 1.853 6.976 2.78z"></path>
	<path class="path64" d="M580.828 268.872c12.153-44.135 64.962-74.138 109.094-58.91 0.101 29.846-26.883 8.403-45.144 17.381-32.356-1.495-25.6 60.194-50.75 46.784-4.4-1.752-8.8-3.503-13.199-5.255zM681.037 222.050c-0.44-26.134-59.948-5.064-73.249 12.67-13.016 10.853-32.645 34.863-5.552 37.59 7.49-36.12 42.237-61.459 78.801-50.26z"></path>
	<path class="path65" d="M499.817 858.058c-20.879-14.76-32.401-54.18 5.051-46.399 22.34-3.144 76.164-2.785 45.529 32.209-10.627 16.366-33.381 30.867-50.58 14.191z"></path>
	<path class="path66" d="M510.35 499.204c15.826-1.337 35.111-6.11 17.166 16.123-12.421 15.457 11.526 69.881-11.253 30.407-7.883-13.682-13.683-31.495-5.912-46.53z"></path>
	<path class="path67" d="M442.506 409.239c-20.564 7.352-72.14-25.646-38.411 6.3 25.539 20.567 38.995 20.848 64.887 9.667 15.002-9.928 39.627-37.994 6.882-19.024-10.89 2.752-22.188 3.071-33.359 3.058z"></path>
	<path class="path68" d="M486.725 409.066c-22.365 23.81-78.033 7.175-84.45 4.476 15.509 20.101 46.22 35.139 66.854 12.546 6.418-5.060 12.296-10.805 17.596-17.023z"></path>
	<path class="path69" d="M541.804 931.829c-12.021-31.176 20.894-23.692 40.702-35.364 29.764-14.164 48.478-46.719 59.171-73.93 32.639-9.179 17.508 23.099 6.649 40.52-21.6 38.658-61.83 66.25-106.522 68.775z"></path>
	<path class="path70" d="M567.003 779.992c-8.232-49.085 59.128-25.116 85.324-47.404 28.232-14.739 43.362-63.478 47.417-78.991 26.553 22.452 35.64 62.996 29.918 96.303-15.022 47.26-59.558 85.498-109.988 88.233 0.299-14.764-37.026-4.203-26.702-28.801-0.077-16.474-23.779-18.854-25.969-29.339z"></path>
	<path class="path71" d="M594.111 824.869c-0.821-27.041 59.281-11.43 78.285-42.875 33.083-23.812 24.652-78.501 35.087-102.336 32.421 42.42 23.243 117.17-28.251 141.219-22.535 9.328-76.751 38.962-85.121 3.993z"></path>
	<path class="path72" d="M568.087 767.31c-20.92-40.088 36.437-16.479 58.32-31.564 39.783-9.727 63.753-56.747 72.728-86.252 56.828 54.784 41.423 167.949-34.684 197.608-22.778 9.213-59.666 19.711-77.267 13.777-0.631-43.806 59.514-13.76 83.91-44.339 38.837-25.648 48.769-81.89 32.093-122.98-17.054 56.573-82.163 75.325-135.1 73.75z"></path>
	<path class="path73" d="M596.378 785.724c-32.062-30.602-80.098-16.435-119.763-19.87-52.13 1.363-104.723-3.266-156.52 2.814-47.647 5.961-49.686 61.5-28.176 94.22 18.864 52.342 65.656 94.947 122.696 98.572 58.301 7.49 125.786-7.367 158.445-60.706 17.032-32.563 45.843-72.527 27.408-109.851l-4.090-5.179zM579.955 835.835c-15.576 54.006-61.517 101.001-119.868 103.95-57.302 7.79-118.723-20.647-142.847-74.679-19.189-26.652-27.266-81.080 20.534-78.042 72.234 0.015 144.647-1.767 216.805 0.794 26.389 0.869 36.090 25.819 25.376 47.977z"></path>
	<path class="path74" d="M560.752 722.787c3.22 23.157 35.674 56.042 32.791 66.589-44.384 6.91-41.874-46.757-55.123-75.049-7.469-26.133-20.541-75.633-18.106-88.25 15.347 31.404 27.765 64.165 40.438 96.711z"></path>
</symbol>
<symbol id="icon-algolia-logo" viewBox="0 0 3257 1024">
	<title>algolia-logo</title>
	<path class="path1" d="M1882.135 834.408c-16.252-1.964-34.131-5.194-46.87-8.468-105.027-26.989-188.114-114.494-209.453-220.589-8.995-44.723-7.59-91.785 4.021-134.706 18.653-68.95 64.987-131.22 125.556-168.737 114.739-71.071 261.9-54.245 356.959 40.814 112.777 112.777 112.777 295.191 0 407.968-35.867 35.867-79.991 61.58-127.923 74.547-24.318 6.578-41.943 8.9-70.815 9.327-14.786 0.219-28.949 0.148-31.474-0.157zM1929.025 755.206c35.443-3.734 66.721-15.134 97.42-35.509 16.733-11.105 43.805-38.177 54.91-54.91 37.351-56.278 46.479-121.852 25.681-184.488-10.277-30.953-26.336-56.5-51.050-81.214-18.694-18.694-32.87-29.048-54.931-40.118-57.728-28.969-127.653-28.969-185.381 0-22.061 11.071-36.237 21.424-54.931 40.118s-29.048 32.87-40.118 54.931c-28.992 57.773-28.992 127.608 0 185.381 3.585 7.143 10.222 18.569 14.749 25.391 11.105 16.733 38.177 43.805 54.91 54.91 42.658 28.311 90.598 40.581 138.742 35.509zM1909.675 556.462c0-3.067 44.798-160.978 46.173-162.757 0.885-1.146 3.521-0.742 10.387 1.593 35.134 11.95 67.279 37.054 87.974 68.706 3.507 5.363 6.206 10.579 5.999 11.591-0.322 1.571-146.791 82.73-149.549 82.866-0.541 0.026-0.984-0.873-0.984-1.999zM1609.532 357.281c-11.859-12.35-15.096-20.216-15.14-36.79-0.052-19.582 2.561-25.248 19.421-42.107 16.828-16.828 22.503-19.451 42.107-19.465 12.071-0.008 13.792 0.321 21.638 4.149 4.688 2.287 11.061 6.753 14.163 9.924l5.638 5.766-15.474 13.851c-21.445 19.196-40.398 40.941-56.593 64.928-3.043 4.508-6.008 8.196-6.588 8.196s-4.707-3.804-9.172-8.453zM1992.293 216.884c-50.249-13.224-100.259-14.439-152.122-3.694-9.016 1.868-18.072 3.687-20.125 4.044l-3.733 0.648 0.531-18.855c0.447-15.869 1.019-20.101 3.613-26.723 4.248-10.844 17.288-23.919 28.239-28.315l7.868-3.159h116.714l7.868 3.159c10.924 4.385 23.977 17.462 28.265 28.315 2.787 7.054 3.113 9.969 3.158 28.172 0.042 17.105-0.26 20.337-1.917 20.513-1.082 0.115-9.344-1.732-18.36-4.104z"></path>
	<path class="path2" d="M1207.141 1022.776c-37.968-2.638-93.522-13.24-126.638-24.166l-9.924-3.274 8.805-42.020c4.843-23.111 9.094-42.309 9.448-42.663s6.464 1.378 13.577 3.849c14.607 5.073 43.197 12.589 62.767 16.501 23.514 4.7 44.087 6.85 72.899 7.617 107.856 2.872 159.514-27.213 175.044-101.944 1.273-6.127 2.316-20.486 2.784-38.322l0.747-28.524-13.613 6.435c-25.328 11.973-50.164 20.191-73.937 24.464-16.029 2.881-57.955 3.968-76.858 1.992-88.578-9.259-151.99-54.097-187.249-132.4-18.087-40.169-25.918-85.021-24.64-141.13 0.723-31.74 2.537-47.414 8.35-72.127 25.615-108.907 104.355-179.234 217.24-194.032 18.149-2.379 70.87-2.744 97.974-0.677 35.084 2.675 74.005 9.345 134.723 23.088l16.107 3.646-0.437 264.961c-0.476 288.103-0.101 272.986-7.591 306.608-6.607 29.662-20.133 61.317-34.317 80.313-35.971 48.174-98.454 75.698-185.922 81.9-21.772 1.544-56.375 1.503-79.34-0.092zM1339.206 714.86c23.532-5.103 48.59-14.837 65.583-25.476l10.864-6.802 0.666-323.114-4.923-1.319c-22.511-6.031-49.050-9.265-83.607-10.188-41.217-1.101-65.625 2.333-89.897 12.648-42.376 18.008-74.38 58.596-87.69 111.21-11.155 44.096-9.615 104.666 3.67 144.32 4.607 13.752 13.967 32.966 21.375 43.879 19.333 28.481 49.010 48.083 85.005 56.146 15.737 3.525 60.065 2.794 78.954-1.303zM3015.432 835.288c-96.848-5.865-157.916-44.14-179.402-112.443-5.122-16.283-7.464-31.405-8.286-53.498-1.587-42.659 7.468-75.857 28.246-103.55 30.040-40.039 75.959-62.688 149.076-73.527 19.69-2.919 79.020-3.367 96.388-0.728 10.884 1.654 50.191 8.896 56.062 10.329l2.951 0.72-0.013-22.764c-0.017-51.817-9.311-81.116-33.433-105.406-8.794-8.855-12.719-11.673-24.261-17.415-21.696-10.795-35.351-13.32-72.127-13.339-27.603-0.014-48.528 1.519-71.962 5.273-18.148 2.907-44.272 8.956-55.299 12.804l-7.267 2.536-5.558-39.505c-3.057-21.728-5.54-40.194-5.519-41.037 0.123-4.819 52.586-16.84 97.096-22.247 27.456-3.335 91.687-3.387 112.767-0.091 61.392 9.6 102.262 32.706 129.201 73.046 12.923 19.352 21.171 40.231 26.741 67.695 6.071 29.934 6.015 27.836 6.015 225.386v187.514l-21.638 3.558c-49.801 8.19-111.999 14.631-161.958 16.774-33.014 1.416-33.020 1.416-57.827-0.086zM3135.55 750.226c6.131-0.769 14.245-2.025 18.032-2.792l6.885-1.394v-165.015l-4.786-2c-14.318-5.983-47.975-10.036-83.733-10.083-56.827-0.076-87.677 7.224-113.867 26.943-23.43 17.641-32.112 37.445-30.553 69.69 1.296 26.801 7.381 42.842 21.695 57.188 6.673 6.688 11.49 10.044 21.099 14.702 12.894 6.249 31.944 11.791 47.859 13.922 11.774 1.576 102.712 0.677 117.37-1.161zM929.78 834.475c-26.632-1.63-59.178-8.358-77.67-16.057-10.646-4.432-22.866-11.807-32.111-19.38-13.376-10.958-27.255-34.424-33.706-56.993-7.692-26.906-7.323-7.687-7.323-381.761v-342.986l3.606-0.731c1.983-0.402 22.786-3.997 46.227-7.989s43.94-7.555 45.552-7.918l2.931-0.66 0.378 346.557c0.352 322.792 0.532 347.12 2.63 354.767 5.105 18.607 15.875 32.487 30.352 39.115 7.902 3.618 22.581 7.52 38.15 10.143 8.898 1.499 10.48 2.149 10.417 4.279-0.041 1.381-2.976 20.068-6.523 41.526l-6.449 39.014-4.624-0.243c-2.543-0.133-7.869-0.441-11.836-0.684zM2451.458 834.003c-42.412-3.265-78.543-14.784-100.414-32.013-25.018-19.708-39.783-52.244-44.264-97.54-1.357-13.716-2.036-687.361-0.693-687.361 0.987 0 92.684-15.695 96.048-16.44l2.934-0.649 0.37 347.869c0.353 331.558 0.482 348.234 2.748 355.666 5.453 17.884 14.109 28.926 28.287 36.083 8.452 4.266 29.307 9.859 42.205 11.319 6.471 0.732 7.731 1.288 7.731 3.415 0 2.295-10.799 68.765-12.582 77.444-0.836 4.069 0.32 3.955-22.369 2.208zM0 824.358c0-1.672 71.375-194.8 95.759-259.105 64.994-171.404 128.12-323.238 183.193-440.629l16.919-36.063 94.387-0.688 3.076 6.245c45.725 92.831 116.712 260.431 180.664 426.548 32.255 83.782 111.862 299.036 111.862 302.47 0 1.463-9.74 1.774-55.597 1.774h-55.597l-8.163-21.966c-9.682-26.055-16.691-45.79-38.077-107.207-8.79-25.244-17.136-48.999-18.546-52.789l-2.564-6.89-333.544 0.666-32.425 91.142c-17.834 50.128-33.020 92.47-33.748 94.093l-1.323 2.951h-53.14c-29.227 0-53.14-0.248-53.14-0.552zM477.348 550.999c0-2.95-59.791-160.832-81.265-214.584-21.601-54.070-54.495-130.236-55.717-129.013-2.619 2.619-39.481 87.792-58.106 134.258-23.371 58.307-77.682 204.164-77.682 208.62 0 1.592 19.555 1.859 136.385 1.859 76.465 0 136.385-0.501 136.385-1.141zM2597.877 548.205v-276.705h98.355v553.41h-98.355v-276.705zM2628.177 169.759c-10.043-2.701-19.256-8.030-27.122-15.689-12.010-11.694-17.612-26.474-17.587-46.404 0.026-20.754 4.908-33.988 17.031-46.164 12.316-12.37 27.042-18.206 45.811-18.152 19.516 0.056 31.748 4.601 44.731 16.621 20.293 18.788 25.261 52.487 11.775 79.879-6.738 13.687-20.856 24.795-37.967 29.872-8.831 2.62-27 2.639-36.672 0.038z"></path>
</symbol>
<symbol id="icon-berlisco-logo" viewBox="0 0 885 1024">
	<title>berlisco-logo</title>
	<path class="path1" d="M2.563 257.148l0.078 511.197 435.052-243.897-0.078-511.197z"></path>
	<path class="path2" d="M2.641 768.344l435.052-243.897 442.281 247.877-435.052 243.897z"></path>
	<path class="path3" d="M437.615 13.251l0.078 511.197 442.281 247.877-0.078-511.197z"></path>
	<path class="path4" d="M2.563 257.148l0.078 511.197 442.281 247.877-0.078-511.197z"></path>
	<path class="path5" d="M2.563 257.148l435.052-243.897 442.281 247.877-435.052 243.897z"></path>
	<path class="path6" d="M444.844 505.025l0.078 511.197 435.052-243.897-0.078-511.197z"></path>
	<path class="path7" d="M442.496 0l-442.496 256v512l442.496 256 442.496-256v-512l-442.496-256zM442.496 40l407.996 236v472l-407.996 236-407.996-236v-472l407.996-236z"></path>
	<path class="path8" d="M108.311 474.828c15.023 8.42 26.621 28.034 34.795 58.841 8.173 30.633 12.263 69.381 12.271 116.244 0.007 47.563-4.141 82.043-12.445 103.441-8.304 21.223-19.829 27.703-34.575 19.439-7.685-4.307-14.539-11.645-20.563-22.015s-10.941-23.529-14.751-39.477c0 0-1.454-0.815-1.454-0.815-2.143 19.781-3.422 31.216-3.837 34.305 0 0-13.396-7.508-13.396-7.508s-0.062-408.129-0.062-408.129c0 0 18.692 10.476 18.692 10.476s0.016 99.147 0.016 99.147c0.003 19.76-0.34 39.325-1.029 58.696 0 0 1.039 0.582 1.039 0.582 7.68-24.37 19.447-32.113 35.301-23.228zM105.202 512.164c-11.492-6.441-19.73-2.839-24.712 10.804s-7.47 40.050-7.464 79.219c0 0 0 2.098 0 2.098 0.006 39.344 2.537 68.913 7.594 88.707 5.126 19.658 13.469 32.727 25.031 39.207 10.246 5.742 17.86 0.568 22.842-15.523 5.051-16.228 7.574-42.265 7.568-78.111-0.006-36.371-2.537-65.066-7.593-86.084s-12.812-34.456-23.266-40.316z"></path>
	<path class="path9" d="M233.699 843.042c-17.1-9.584-30.533-30.138-40.298-61.664-9.696-31.661-14.548-70.399-14.555-116.213-0.007-46.163 4.522-80.343 13.587-102.539 9.065-22.37 21.317-29.229 36.755-20.577 14.331 8.032 25.756 26.15 34.275 54.354 8.519 28.029 12.781 61.978 12.788 101.847 0 0 0.004 28.59 0.004 28.59s-78.092-43.767-78.092-43.767c0.351 32.893 3.643 59.567 9.877 80.020s15.062 33.882 26.485 40.284c6.092 3.414 11.873 5.343 17.342 5.785 5.469 0.267 11.872-1.477 19.209-5.233 0 0 0.006 41.442 0.006 41.442-6.299 3.289-12.218 4.78-17.755 4.474s-12.080-2.574-19.626-6.803zM228.986 580.49c-8.931-5.005-15.991-1.706-21.181 9.897s-8.268 30.074-9.233 55.41c0 0 58.050 32.534 58.050 32.534-0.143-27.006-2.604-48.843-7.382-65.509s-11.53-27.444-20.253-32.333z"></path>
	<path class="path10" d="M358.372 614.452c5.054 2.833 9.519 6.384 13.397 10.655 0 0-2.278 42.26-2.278 42.26-4.224-4.815-8.343-8.347-12.358-10.598-6.023-3.375-11.63-2.322-16.821 3.162-5.122 5.522-9.135 14.9-12.041 28.134-2.905 13.059-4.357 28.594-4.354 46.604 0 0 0.024 153.704 0.024 153.704s-18.692-10.476-18.692-10.476c0 0-0.044-287.998-0.044-287.998s15.369 8.614 15.369 8.614c0 0 2.085 53.885 2.085 53.885s0.831 0.466 0.831 0.466c4.359-16.615 9.514-28.151 15.466-34.606s12.425-7.723 19.417-3.805z"></path>
	<path class="path11" d="M412.002 937.727c0 0-18.692-10.476-18.692-10.476s-0.062-408.129-0.062-408.129c0 0 18.692 10.476 18.692 10.476s0.062 408.129 0.062 408.129z"></path>
	<path class="path12" d="M506.086 922.862c0 0-17.496 9.808-17.496 9.808s-0.043-283.775-0.043-283.775c0 0 17.496-9.808 17.496-9.808s0.043 283.775 0.043 283.775zM487.174 572.899c-0.002-10.338 0.969-18.377 2.912-24.12 2.008-5.778 4.47-9.484 7.386-11.119 2.722-1.525 5.087-0.525 7.097 3 2.074 3.49 3.112 10.404 3.114 20.741 0.002 10.166-1.034 18.242-3.107 24.229-2.008 5.951-4.373 9.689-7.094 11.214-2.916 1.635-5.379 0.603-7.388-3.095-1.945-3.734-2.918-10.684-2.919-20.85z"></path>
	<path class="path13" d="M609.395 786.629c0.004 26.534-3.719 49.212-11.168 68.035-7.45 18.651-17.914 31.754-31.392 39.31-14.061 7.883-25.24 8.205-33.536 0.966 0 0-0.006-42.385-0.006-42.385 11.731 8.587 23.039 9.829 33.926 3.726 8.813-4.94 15.227-12.327 19.243-22.161s6.023-21.125 6.022-33.875c-0.002-11.199-1.947-19.586-5.836-25.16-3.824-5.61-10.662-10.651-20.513-15.123-10.045-4.707-17.11-9.535-21.193-14.483-4.083-5.12-7.098-11.701-9.043-19.743-1.881-8.078-2.822-18.665-2.824-31.759-0.004-23.26 3.558-43.608 10.683-61.043s16.909-29.64 29.351-36.615c12.117-6.793 23.458-6.775 34.022 0.053 0 0-5.923 40.282-5.923 40.282-10.823-5.994-20.576-6.557-29.259-1.69-7.257 4.069-12.765 10.258-16.522 18.567-3.757 8.138-5.635 17.548-5.634 28.23 0.002 10.338 1.623 18.045 4.864 23.12 3.241 4.903 10.791 10.062 22.651 15.474 8.879 3.811 15.425 8.326 19.638 13.545 4.278 5.184 7.422 11.951 9.432 20.301s3.016 19.159 3.018 32.426z"></path>
	<path class="path14" d="M677.932 831.692c-15.357 8.61-27.315 2.82-35.872-17.368-8.557-20.36-12.84-53.973-12.847-100.838-0.007-47.554 4.296-86.583 12.91-117.087 8.679-30.712 21.021-50.555 37.026-59.528 5.184-2.906 10.303-4.311 15.358-4.216 5.119-0.113 9.332 1.144 12.637 3.771 0 0-5.34 41.764-5.34 41.764-9.008-3.91-16.688-4.085-23.038-0.525-10.757 6.031-18.693 19.526-23.809 40.487-5.116 20.789-7.672 49.016-7.666 84.682 0.005 34.287 2.569 59.128 7.691 74.522 5.122 15.222 12.705 20.017 22.748 14.386 9.396-5.267 18.629-15.957 27.699-32.070 0 0 0.006 41.352 0.006 41.352-7.386 14.307-16.554 24.53-27.505 30.669z"></path>
	<path class="path15" d="M823.512 602.491c0.007 46.348-4.394 85.001-13.202 115.959s-20.989 50.796-36.54 59.514c-9.655 5.413-18.209 4.264-25.663-3.447-7.454-7.883-13.191-21.898-17.212-42.045s-6.034-45.037-6.038-74.673c-0.007-46.176 4.329-84.534 13.008-115.074 8.679-30.712 20.859-50.464 36.54-59.256 15.033-8.428 26.958-1.931 35.775 19.49 8.881 21.213 13.325 54.39 13.333 99.532zM742.935 647.664c0.005 35.666 2.634 61.331 7.886 76.997 5.316 15.457 13.126 20.298 23.429 14.522 10.173-5.703 17.915-19.262 23.226-40.677 5.311-21.587 7.963-50.213 7.958-85.879s-2.699-60.95-8.080-75.854c-5.316-15.112-13.126-19.78-23.429-14.005-20.671 11.589-31.001 53.221-30.99 124.896z"></path>
</symbol>
<symbol id="icon-github-logo" viewBox="0 0 885 1024">
	<title>github-logo</title>
	<path class="path1" d="M442.5 0l-442.5 256v512l442.5 256 442.5-256v-512l-442.5-256zM442.5 40l408 236v472l-408 236-408-236v-472l408-236zM173.887 182.818c-5.679 0.26-8.756 0.796-8.756 0.796-28.408 72.042-10.206 125.331-4.776 138.504-33.458 36.627-54.128 83.401-54.128 140.494 0 200.408 122.232 245.086 238.402 258.303-14.958 13.061-28.331 36.253-33.034 70.048-29.846 13.364-105.786 36.568-152.434-43.382 0 0-27.478-50.439-79.998-54.128 0 0-51.036-0.621-3.582 31.84 0 0 34.316 16.369 58.108 76.814 0 0 30.411 93.329 175.916 61.69 0.141 27.404 0.236 41.924 0.398 60.894l132.534 69.65 127.36-66.864c0.164-26.133 0.398-56.196 0.398-109.848 0-48.796-16.662-80.881-35.422-97.112 116.465-12.948 238.801-57.012 238.801-257.905 0-57.093-20.195-103.867-53.73-140.494 5.43-13.173 23.295-66.462-5.174-138.504 0 0-43.851-13.938-143.678 53.73-41.798-11.588-86.494-17.305-130.942-17.512-44.448 0.208-89.222 5.924-130.942 17.512-74.955-50.751-118.283-55.305-135.32-54.526z"></path>
</symbol>
<symbol id="icon-gulp-logo" viewBox="0 0 885 1024">
	<title>gulp-logo</title>
	<path class="path1" d="M442.5 0l-442.5 256v512l442.5 256 442.5-256v-512l-442.5-256zM443.5 41l408 236v472l-408 236-408-236v-472l408-236z"></path>
	<path class="path2" d="M579.679 88.929l-87.5 91.5-24.5 96c-8.115-0.112-16.126 0-24.5 0-114.834 0-207.5 10.688-207.5 24 0 13.305 92.666 32.5 207.5 32.5 114.846 0 208-19.195 208-32.5 0.002-10.666-60.167-19.825-143-23l24-83 79-87.5-31.5-18zM500.679 302.429h0.5c2.903 1.222 5 3.19 5 4.5 0 3.46-12.202 7.5-25.5 7.5-13.295 0-25.5-4.038-25.5-7.5 0-1.328 2.109-2.767 5-4-0.174 0.328-0.5 0.655-0.5 1-0.002 3.431 9.525 6 21 6 11.471 0 20.5-2.566 20.5-6 0-0.155-0.46-0.347-0.5-0.5v-0.5c-0.051-0.114 0.069-0.389 0-0.5zM235.679 312.929l22 229c1.158-3.942 2.573-7.577 4-11.5 2.918-8.040 6.167-16.321 10-24 3.835-7.676 7.986-14.667 12.5-21.5 4.512-6.833 9.409-13.25 14.5-19 5.093-5.747 10.135-10.859 15.5-15 5.362-4.139 11.036-7.167 16.5-9.5 5.466-2.331 10.638-3.5 16-3.5 6.176 0 12.231 1.625 18 5 5.769 3.377 10.972 8.943 16 16.5 1.154 1.689 2.197 3.273 2.5 5 0.308 1.73 0.5 3.473 0.5 5 0 3.617-0.771 6.411-2.5 8.5-1.73 2.091-4.126 3-6.5 3-2.173 0-4.132-0.711-6-3s-3.691-5.736-6-10c-2.171-3.86-4.888-6.77-7.5-8.5-2.615-1.728-5.445-2.5-8.5-2.5-4.751 0-9.604 2.060-15 6-5.399 3.94-10.708 9.028-16 15.5-5.297 6.472-10.647 13.679-15.5 22s-9.266 16.777-13 25.5c-3.734 8.73-6.295 17.519-8.5 26-2.208 8.481-3.5 16.249-3.5 23 0 2.256 0.199 4.638 0.5 7 0.308 2.372 0.649 4.566 1.5 6.5 0.848 1.931 2.039 3.252 3.5 4.5 1.461 1.253 3.261 2 5.5 2 2.513 0 5.809-0.811 9-2.5 3.189-1.682 6.074-3.769 9.5-6.5 3.429-2.738 7.037-6.040 10.5-9.5 3.465-3.457 6.515-6.96 9.5-10.5 2.985-3.535 5.693-6.743 8-10 2.309-3.259 4.344-6.087 5.5-8.5l9.5-28.5c1.154-3.053 2.632-5.211 4.5-6.5 1.866-1.284 3.53-2 5.5-2 0.947 0 2.048 0.176 3 0.5s1.751 0.817 2.5 1.5 1.559 1.415 2 2.5c0.441 1.085 0.5 2.556 0.5 4 0 3.86-0.318 7.62-1 11-0.676 3.38-1.449 6.28-2.5 9.5-1.054 3.211-2.211 6.741-3.5 10-1.289 3.256-2.779 6.46-4 10-0.267 0.405-0.784 1.875-1.5 4-0.712 2.135-1.48 4.78-2.5 8-1.017 3.218-2.312 6.519-3.5 10.5s-2.244 8.359-3.5 12.5c-1.26 4.141-2.346 8.024-3.5 12-1.154 3.979-2.086 7.785-3 11-0.918 3.213-1.887 5.829-2.5 8-0.611 2.171-0.864 3.593-1 4-0.34 1.28-1.255 2.43-2 4-0.748 1.565-1.48 3.095-2.5 4.5-1.017 1.405-2.277 2.579-3.5 3.5-1.221 0.926-2.208 1.5-3.5 1.5-2.171 0-4.019-1.055-5-2.5-0.986-1.449-1.5-3.64-1.5-7.5v-2c0-0.563 0.434-0.861 0.5-1.5 0.066-1.287 0.548-3.96 1.5-7.5 0.953-3.535 2.174-7.537 3.5-12 1.323-4.466 2.474-9.212 4-14s2.776-8.718 4-12.5c-3.6 4.020-7.291 8.024-11.5 12-4.209 3.981-8.59 7.321-13 10.5-4.412 3.18-9.020 5.989-13.5 8-4.48 2.007-8.359 3-12.5 3-4.751 0-9.071-1.411-12.5-3.5-0.62-0.38-1.42-0.576-2-1l14 145.5 8 13c23.7 15.233 84.443 25.949 155.5 26 64.726-0.050 120.625-8.882 148-22l10.5-17 19.5-173c-1.648 1.51-2.966 3.071-4.5 4.5-5.726 5.328-11.441 9.679-16.5 13.5-5.055 3.816-9.685 6.916-14.5 9-4.822 2.091-9.997 3-15.5 3-5.159 0-9.18-0.746-12-3-2.816-2.251-4-5.558-4-9.5v-1c0-0.275-0.065-0.601 0-1 0.267-2.408 1.169-4.867 3-8 1.832-3.138 3.922-6.627 6.5-10 2.578-3.38 5.58-6.545 8.5-10s5.516-6.894 8-10c2.474-3.087 4.372-5.922 6-8.5 1.633-2.573 2.5-4.891 2.5-6.5 0-0.962-0.322-1.432-1-2-0.681-0.555-1.942-1-3.5-1-2.716 0-5.117 0.595-8 2-2.886 1.405-6.184 3.628-9 6s-5.318 4.95-8 8c-2.678 3.058-5.159 6.205-7.5 9.5-2.343 3.298-4.566 6.663-6.5 10s-3.643 6.187-5 9l-1.5 4c-0.751 1.609-1.62 3.494-2.5 5.5-0.882 2.011-2.019 3.877-3 6-0.984 2.135-1.686 4.115-2.5 6l-2 5c-0.653 1.483-1.231 2.436-1.5 3-0.34 0.724-1.219 2.489-2 4.5-0.779 2.011-1.483 4.308-2.5 7l-3 8.5c-1.117 2.973-2.514 5.849-3.5 8.5-0.984 2.653-1.761 4.989-2.5 7-0.751 2.007-1.296 3.28-1.5 4-0.673 2.091-1.586 4.146-2.5 6-0.919 1.847-1.808 3.090-3 4.5-1.185 1.406-2.472 2.657-4 3.5-1.529 0.85-3.103 1.5-5 1.5-2.447 0-4.401-0.834-6-2-1.589-1.163-2.5-3.205-2.5-6.5 0-1.609 0.096-3.314 0.5-5 0.409-1.689 0.89-3.357 1.5-5 0.611-1.655 1.361-3.437 2-5 0.647-1.568 0.965-3.059 1.5-4.5 3.668-8.040 7.701-15.922 11.5-24s7.501-16.079 11-24c0.643-1.453 0.884-3.062 1.5-4.5-4.415 4.267-9.124 8.248-13.5 11.5-4.383 3.256-8.694 5.569-13 7.5-4.308 1.926-8.429 3-12.5 3-2.781 0-5.134-0.615-7-1.5-1.868-0.885-3.378-1.976-4.5-3.5-1.122-1.529-2.028-3.409-2.5-5.5-0.159-0.715 0.105-1.259 0-2-1.192 0.928-2.788 1.645-4 2.5-4.204 2.973-7.925 5.692-12 7.5-4.071 1.807-7.743 2.5-11 2.5-3.261 0-5.962-0.826-8-3-2.036-2.168-3-6.276-3-11.5 0-3.7 0.416-7.598 1.5-12.5-1.766 3.138-3.856 6.285-6.5 9.5-2.651 3.218-5.608 5.844-9 8.5-3.397 2.653-7.294 4.852-11.5 6.5-4.211 1.65-9.047 2.5-14 2.5-2.241 0-4.426-0.429-6.5-1-2.070-0.56-3.939-1.137-5.5-2.5-1.563-1.362-2.548-3.203-3.5-5.5-0.953-2.29-1.5-5.545-1.5-9 0-0.077 0.231-1.122 0.5-3.5 0.267-2.372 1.041-5.892 2.5-11 1.461-5.1 3.947-11.878 7-20 3.058-8.124 6.932-17.925 12.5-29.5 1.425-3.058 3.137-5.175 5-6.5 1.868-1.328 3.829-2 6-2 0.953 0 1.982 0.219 3 0.5 1.022 0.279 2.113 0.394 3 1 0.88 0.6 1.455 1.577 2 2.5 0.541 0.923 1 1.793 1 3 0 0.804-0.294 1.78-0.5 2.5-0.34 1.371-0.883 3.29-2 5.5-1.122 2.214-2.505 4.646-4 7.5-1.49 2.857-2.84 5.697-4.5 9-1.667 3.291-3.575 6.967-5 10.5-1.425 3.54-2.482 6.841-3.5 10.5-1.020 3.659-1.366 7.547-1.5 11 0 1.449 0.314 2.793 1 4 0.676 1.207 1.437 1.5 3 1.5 4.41 0 8.992-1.109 13-4 4.003-2.895 7.603-6.699 11-11 3.392-4.298 6.25-9.054 9-14s5.168-9.395 7-13.5c1.292-2.731 2.516-5.867 3.5-9 0.984-3.138 1.847-5.844 3-8.5s2.502-4.731 4-6.5c1.49-1.766 3.261-3 5.5-3 2.45 0 4.575 1.151 6 3 1.424 1.852 2 3.932 2 6.5 0 1.449-0.587 3.468-1.5 6s-1.602 5.744-3 9c-1.391 3.256-3.372 6.302-5 10-1.628 3.7-3.114 7.681-4.5 11.5-1.393 3.819-2.582 7.341-3.5 11s-1 7.367-1 10.5c0 2.896 1.512 4.5 4.5 4.5 2.106 0 4.377-1.053 7.5-2.5s6.574-3.388 10-6c0.858-0.654 1.644-1.286 2.5-2 0.959-3.947 2.194-7.683 3.5-11 2.374-6.276 4.555-12.309 7-18.5 2.443-6.193 4.965-11.851 7-17l31-78c1.221-3.135 2.433-5.213 4.5-6.5 2.072-1.284 4.394-2 6.5-2 2.101 0 3.768 0.634 5.5 2 1.732 1.369 3 3.445 3 6.5 0 1.447-0.426 3.394-1 5-0.577 1.611-1.116 3.149-2 5-1.694 3.78-4.157 8.534-6.5 14-2.343 5.469-4.823 11.067-7.5 17.5-2.68 6.433-5.184 13.044-8 20s-5.82 13.91-8.5 20.5c-2.678 6.598-5.162 13.090-7.5 19-2.343 5.907-4.302 10.66-6 15-0.751 1.851-1.29 4.048-2 6.5-0.715 2.452-1 4.569-1 6.5 0 1.203 0.095 2.278 0.5 3 0.406 0.72 1.345 1 2.5 1 1.427 0 2.86-0.492 5-1.5 2.142-1.003 4.521-2.35 7-4s5.322-3.365 8-5.5c2.682-2.132 5.354-4.21 8-6.5 2.651-2.292 5.092-4.713 7.5-7s4.598-4.569 6.5-6.5c0.446-0.463 0.913-0.751 1.5-1 1.146-3.422 2.077-6.724 3-10 0.546-1.451 1.548-3.344 2.5-6 0.947-2.658 1.778-5.427 3-8 1.222-2.571 2.476-4.61 4-6.5 1.529-1.887 3.236-3 5-3 2.716 0 4.779 0.757 6 2 1.222 1.25 2 3.084 2 5.5 0 0.479-0.359 0.957-0.5 2-0.14 1.045-0.3 2.339-0.5 3.5-0.206 1.16-0.268 2.456-0.5 3.5-0.243 1.046-0.296 1.518-0.5 2 2.506-2.736 5.080-5.31 8-8 2.92-2.692 5.879-5.331 9-7.5 3.124-2.171 6.239-3.629 9.5-5 3.259-1.365 6.743-2 10-2 2.239 0 4.295 0.359 6.5 1 2.204 0.642 4.275 1.256 6 2.5 1.733 1.25 2.917 3.113 4 5 1.081 1.887 2 4.007 2 6.5 0 3.298-0.839 6.761-2.5 10.5s-3.987 7.727-6.5 11.5c-2.51 3.785-5.085 7.419-8 11-2.92 3.579-5.954 6.566-8.5 9.5-2.549 2.941-4.272 5.448-6 7.5-1.727 2.055-2.935 3.276-3 4 0 0.962 0.389 1.894 1 2.5 0.611 0.6 1.575 1 3 1 1.158 0 2.758-0.714 5-2 2.239-1.287 5.463-3.324 9.5-6.5 4.037-3.18 9.287-7.652 15.5-13 4.26-3.664 9.379-8.028 15-13l28.5-249.5c-29.142 13.954-111.045 29-207.5 29-96.439 0-178.354-15.046-207.5-29h-0.5zM286.179 774.929l29 46.5 10 130.5 81.5 46c20.489 4.025 43.334 5.912 68 2l82-47 8-133 25-41c-27.3 13.081-82.993 21.907-147.5 22h-1c-70.836-0.101-131.357-10.803-155-26z"></path>
</symbol>
<symbol id="icon-npm-logo-3d" viewBox="0 0 884 1024">
	<title>npm-logo-3d</title>
	<path class="path1" d="M443.119 15.99l-429.272 247.84v495.68l429.272 247.84 429.272-247.84v-495.68z"></path>
	<path class="path2" d="M443.119 15.99l-429.272 247.84 429.272 247.84 429.272-247.84z"></path>
	<path class="path3" d="M13.785 263.83v495.68l429.272 247.84v-495.68z"></path>
	<path class="path4" d="M872.328 263.83l-429.272 247.84v495.68l429.272-247.84z"></path>
	<path class="path5" d="M442.211 0l-442.211 255.835v511.67l442.211 255.835 442.211-255.835v-511.67l-442.211-255.835zM442.211 39.974l407.733 235.848v471.696l-407.733 235.848-407.733-235.848v-471.696l407.733-235.848z"></path>
	<path class="path6" d="M13.785 263.83c0 0 0 424.97 0 424.97s253.349 146.271 253.349 146.271c0 0 0 70.71 0 70.71s175.922 101.569 175.922 101.569c0 0 0-141.421 0-141.421s-24.229-13.989-24.229-13.989c0 0 0 70.71 0 70.71s-101.129-58.387-101.129-58.387c0 0 0-354.259 0-354.259s125.358 72.375 125.358 72.375c0 0 0-70.71 0-70.71s-429.272-247.84-429.272-247.84c0 0 0 0 0 0zM64.35 363.734c0 0 202.785 117.078 202.785 117.078s0 283.549 0 283.549c0 0-50.565-29.193-50.565-29.193s0-212.838 0-212.838c0 0-50.565-29.193-50.565-29.193s0 212.838 0 212.838c0 0-101.656-58.691-101.656-58.691s0-283.549 0-283.549c0 0 0 0 0 0zM418.828 639.102c0 0 0 142.128 0 142.128s24.229 13.989 24.229 13.989c0 0 0-142.128 0-142.128s-24.229-13.989-24.229-13.989c0 0 0 0 0 0z"></path>
	<path class="path7" d="M442.996 511.674c0 0 0 70.71 0 70.71s68.931-39.991 68.931-39.991c0 0 0 283.549 0 283.549s-68.931 39.991-68.931 39.991c0 0 0 141.421 0 141.421s23.446-13.602 23.446-13.602c0 0 0-70.71 0-70.71s406.081-235.59 406.081-235.59c0 0 0-424.97 0-424.97s-429.527 249.193-429.527 249.193c0 0 0 0 0 0zM556.943 516.278c0 0 270.095-156.697 270.095-156.697s0 283.549 0 283.549c0 0-45.016 26.116-45.016 26.116s0-212.838 0-212.838c0 0-45.016 26.116-45.016 26.116s0 212.838 0 212.838c0 0-45.016 26.116-45.016 26.116s0-212.838 0-212.838c0 0-45.016 26.116-45.016 26.116s0 212.838 0 212.838c0 0-90.032 52.233-90.032 52.233s0-283.549 0-283.549c0 0 0 0 0 0zM442.996 653.095c0 0 0 142.128 0 142.128s23.446-13.602 23.446-13.602c0 0 0-142.128 0-142.128s-23.446 13.602-23.446 13.602c0 0 0 0 0 0z"></path>
	<path class="path8" d="M442.736 513.989v65.35z"></path>
	<path class="path9" d="M443.151 653.079v140.603z"></path>
	<path class="path10" d="M443.269 866.827l-1.605 154.658z"></path>
</symbol>
</defs>
</svg>
