<?xml version="1.0" encoding="UTF-8" standalone="no"?>
<!-- Created with Inkscape (http://www.inkscape.org/) -->

<svg
   xmlns:dc="http://purl.org/dc/elements/1.1/"
   xmlns:cc="http://creativecommons.org/ns#"
   xmlns:rdf="http://www.w3.org/1999/02/22-rdf-syntax-ns#"
   xmlns:svg="http://www.w3.org/2000/svg"
   xmlns="http://www.w3.org/2000/svg"
   xmlns:sodipodi="http://sodipodi.sourceforge.net/DTD/sodipodi-0.dtd"
   xmlns:inkscape="http://www.inkscape.org/namespaces/inkscape"
   inkscape:version="0.48.5 r10040"
   version="1.1"
   id="svg2988"
   height="75.459442"
   width="240"
   sodipodi:docname="New document 1">
  <defs
     id="defs2990" />
  <sodipodi:namedview
     id="base"
     pagecolor="#ffffff"
     bordercolor="#666666"
     borderopacity="1.0"
     inkscape:pageopacity="0.0"
     inkscape:pageshadow="2"
     inkscape:zoom="1.4"
     inkscape:cx="217.30023"
     inkscape:cy="24.970292"
     inkscape:document-units="px"
     inkscape:current-layer="layer1"
     showgrid="false"
     inkscape:window-width="1362"
     inkscape:window-height="722"
     inkscape:window-x="0"
     inkscape:window-y="20"
     inkscape:window-maximized="0"
     fit-margin-top="0"
     fit-margin-left="0"
     fit-margin-right="0"
     fit-margin-bottom="0" />
  <metadata
     id="metadata2993">
    <rdf:RDF>
      <cc:Work
         rdf:about="">
        <dc:format>image/svg+xml</dc:format>
        <dc:type
           rdf:resource="http://purl.org/dc/dcmitype/StillImage" />
        <dc:title></dc:title>
      </cc:Work>
    </rdf:RDF>
  </metadata>
  <g
     inkscape:label="Layer 1"
     inkscape:groupmode="layer"
     id="layer1"
     transform="translate(13.571366,-429.28922)">
    <g
       id="g4416"
       transform="matrix(0.09663797,0,0,0.09663797,58.423916,430.01658)">
      <path
         inkscape:connector-curvature="0"
         id="path4298"
         d="m 690.21424,628.74758 c -12.3926,-1.4976 -26.0263,-3.9608 -35.74082,-6.4572 -80.08791,-20.5807 -143.44585,-87.30704 -159.71769,-168.2089 -6.8592,-34.10318 -5.78805,-69.99041 3.06592,-102.7193 14.22357,-52.57773 49.55554,-100.0612 95.74199,-128.66987 87.4938,-54.19515 199.71049,-41.36442 272.19769,31.12277 85.9977,85.99768 85.9977,225.09652 0,311.0942 -27.3501,27.3501 -60.997,46.9578 -97.54709,56.8455 -18.5433,5.0164 -31.9833,6.7866 -54,7.1124 -11.275,0.1669 -22.075,0.113 -24,-0.1196 z m 35.7553,-60.39511 c 27.0268,-2.84731 50.87769,-11.54074 74.28689,-27.07688 12.7593,-8.46807 33.4032,-29.11189 41.8712,-41.87121 28.4815,-42.91461 35.442,-92.91782 19.5831,-140.68072 -7.837,-23.60284 -20.0827,-43.08416 -38.9282,-61.92972 -14.2553,-14.25527 -25.0652,-22.15012 -41.8876,-30.59198 -44.02029,-22.09045 -97.34099,-22.09045 -141.36138,0 -16.82238,8.44186 -27.63227,16.33671 -41.88752,30.59198 -14.25527,14.25526 -22.15012,25.06515 -30.59199,41.88752 -22.10762,44.05458 -22.10762,97.30686 0,141.36144 2.73345,5.44702 7.79451,14.15968 11.24682,19.36148 8.46807,12.75932 29.11188,33.40314 41.8712,41.87121 32.52864,21.58848 69.08548,30.94449 105.79748,27.07688 z m -14.7553,-151.55153 c 0,-2.33877 34.1606,-122.75271 35.2091,-124.10982 0.6752,-0.87396 2.6847,-0.56569 7.9203,1.21506 26.79159,9.11243 51.30309,28.25561 67.08399,52.39181 2.6739,4.0897 4.7323,8.06709 4.5742,8.83866 -0.2456,1.19796 -111.93519,63.08572 -114.03759,63.18877 -0.4125,0.0202 -0.75,-0.6658 -0.75,-1.52448 z M 482.34172,264.9164 c -9.04319,-9.41755 -11.51155,-15.41548 -11.54528,-28.05422 -0.0399,-14.93218 1.95272,-19.25244 14.80905,-32.10877 12.8318,-12.83181 17.15934,-14.83227 32.10877,-14.84275 9.20479,-0.006 10.5169,0.24512 16.5,3.16366 3.575,1.74388 8.43482,5.14932 10.7996,7.56766 l 4.2996,4.39698 -11.7996,10.56233 c -16.35288,14.63816 -30.80515,31.21915 -43.15453,49.51089 -2.32077,3.4375 -4.58149,6.25 -5.02382,6.25 -0.44233,0 -3.58953,-2.9006 -6.99379,-6.44578 z M 774.21423,157.85734 c -38.31679,-10.08424 -76.45189,-11.01036 -115.99997,-2.81708 -6.875,1.42431 -13.78092,2.81186 -15.34648,3.08345 l -2.84648,0.49379 0.40464,-14.37766 c 0.34057,-12.10093 0.77684,-15.32777 2.75504,-20.37766 3.23917,-8.26885 13.18281,-18.23937 21.53326,-21.59145 l 6,-2.408553 44.5,0 44.5,0 6,2.408553 c 8.33019,3.34392 18.28379,13.31528 21.55309,21.59145 2.1249,5.37931 2.3741,7.60163 2.4085,21.48249 0.032,13.04352 -0.1979,15.50769 -1.4616,15.64246 -0.825,0.088 -7.125,-1.32042 -14,-3.12979 z"
         style="fill:#3b97d0;fill-opacity:1" />
      <path
         inkscape:connector-curvature="0"
         id="path4413"
         d="M 175.50006,772.3867 C 146.548,770.37481 104.18518,762.29089 78.93243,753.9591 l -7.56764,-2.49684 6.71426,-32.0419 c 3.69284,-17.62304 6.93497,-32.26261 7.20472,-32.53237 0.26976,-0.26976 4.92878,1.05094 10.35338,2.93489 11.1382,3.86827 32.94001,9.5997 47.86291,12.58257 17.9307,3.58409 33.6184,5.22325 55.589,5.80834 82.2451,2.19021 121.6366,-20.75107 133.4794,-77.73731 0.9709,-4.67196 1.7663,-15.62133 2.1227,-29.22241 l 0.57,-21.75096 -10.3805,4.90715 c -19.3137,9.13007 -38.2527,15.39653 -56.3806,18.655 -12.223,2.19708 -44.193,3.02565 -58.6075,1.51894 C 142.34776,597.52392 93.99292,563.33315 67.10703,503.62332 53.31475,472.99257 47.34345,438.79103 48.31779,396.00504 c 0.55117,-24.20303 1.93487,-36.15548 6.36719,-55 19.53292,-83.04635 79.57507,-136.67398 165.65578,-147.95817 13.8391,-1.81414 54.0419,-2.09207 74.7094,-0.51647 26.753,2.03953 56.4321,7.12567 102.7321,17.60529 l 12.2822,2.77998 -0.3336,202.04468 c -0.3628,219.69194 -0.077,208.16431 -5.7883,233.80266 -5.0381,22.61847 -15.3523,46.75667 -26.1684,61.24203 -27.4299,36.73517 -75.0753,57.7232 -141.7741,62.45217 -16.6024,1.17711 -42.9886,1.14636 -60.5,-0.0705 z m 100.7058,-234.79975 c 17.9443,-3.89164 37.052,-11.31408 50.0097,-19.42645 l 8.2845,-5.1866 0.2539,-123.19483 0.254,-123.19482 -3.754,-1.00573 c -17.1656,-4.59891 -37.403,-7.06492 -63.7539,-7.76866 -31.4301,-0.8394 -50.0418,1.7791 -68.5506,9.64444 -32.3135,13.73166 -56.71834,44.68222 -66.8679,84.80271 -8.50647,33.6255 -7.33182,79.81227 2.79887,110.05034 3.51322,10.48626 10.65062,25.13824 16.2991,33.45953 14.74233,21.71822 37.37233,36.66518 64.82053,42.81351 12.0002,2.68802 45.8025,2.13025 60.2058,-0.99344 z m 1278.19884,91.83178 c -73.851,-4.47207 -120.4179,-33.65861 -136.8019,-85.74275 -3.9059,-12.41689 -5.692,-23.94805 -6.3187,-40.79488 -1.2102,-32.52959 5.6949,-57.84413 21.5385,-78.9617 22.9066,-30.53172 57.9225,-47.80221 113.6775,-56.06784 15.0142,-2.22584 60.2564,-2.56737 73.5,-0.55485 8.2996,1.26123 38.2732,6.78337 42.75,7.876 l 2.25,0.54915 -0.01,-17.35841 c -0.013,-39.51271 -7.0999,-61.85463 -25.4941,-80.37694 -6.7058,-6.75248 -9.6987,-8.90086 -18.5,-13.27987 -16.5445,-8.23153 -26.9565,-10.15709 -55,-10.17147 -21.0485,-0.0108 -37.0045,1.15838 -54.874,4.02091 -13.8387,2.21684 -33.7596,6.8295 -42.1678,9.7639 l -5.5417,1.93405 -4.238,-30.12449 c -2.3309,-16.56848 -4.2246,-30.65005 -4.2083,-31.29238 0.094,-3.67493 40.0992,-12.841 74.0398,-16.96398 20.9363,-2.54326 69.9157,-2.58263 85.99,-0.0691 46.8145,7.32031 77.9791,24.9398 98.5216,55.70097 9.8544,14.75644 16.144,30.67834 20.3915,51.62039 4.6296,22.82594 4.5869,21.22597 4.5869,171.86735 l 0,142.98774 -16.5,2.71337 c -37.9759,6.245 -85.4046,11.15714 -123.5,12.79076 -25.1746,1.07954 -25.1795,1.07953 -44.0954,-0.0659 z m 91.5954,-64.8637 c 4.675,-0.58618 10.8625,-1.54414 13.75,-2.12879 l 5.25,-1.063 0,-62.91568 0,-62.91568 -3.6499,-1.52504 c -10.9184,-4.56199 -36.5834,-7.65261 -63.8501,-7.68892 -43.3334,-0.0577 -66.8576,5.50864 -86.8286,20.54558 -17.8665,13.45235 -24.4871,28.5535 -23.2984,53.14154 0.9881,20.43722 5.6284,32.6691 16.5435,43.60858 5.0882,5.09966 8.7617,7.65935 16.0886,11.21058 9.832,4.76536 24.3585,8.991 36.4949,10.61605 8.9779,1.20213 78.3227,0.51626 89.5,-0.88522 z M -35.99994,628.7984 c -20.30832,-1.24314 -45.12567,-6.37369 -59.22728,-12.2442 -8.11831,-3.37966 -17.43663,-9.00371 -24.48606,-14.7785 -10.19999,-8.35568 -20.78297,-26.25009 -25.70259,-43.45968 -5.86519,-20.51732 -5.58407,-5.86173 -5.58407,-291.10986 l 0,-261.542206 2.75,-0.557056 c 1.5125,-0.306381 17.375,-3.047686 35.25,-6.091788 17.875,-3.044103 33.50593,-5.761106 34.73539,-6.037785 l 2.23539,-0.503053 0.28794,264.265378 c 0.26818,246.14383 0.4057,264.69468 2.00539,270.52566 3.89259,14.18872 12.1056,24.77275 23.14505,29.82677 6.02537,2.75851 17.21895,5.73465 29.09084,7.73465 6.78524,1.14308 7.99142,1.63855 7.94351,3.26302 -0.0311,1.05341 -2.26946,15.30279 -4.9742,31.66529 l -4.9177,29.75 -3.5258,-0.18498 c -1.9392,-0.10174 -6.00081,-0.33649 -9.02581,-0.52166 z m 1160.34844,-0.3596 c -32.3412,-2.48989 -59.8929,-11.27367 -76.5702,-24.41137 -19.0776,-15.02855 -30.3366,-39.83844 -33.7537,-74.37834 -1.0347,-10.45932 -1.5528,-524.144047 -0.5286,-524.144047 0.7524,0 70.6754,-11.968471 73.2413,-12.536463 l 2.2373,-0.49523 0.2821,265.26584 c 0.269,252.82777 0.3672,265.54463 2.0951,271.2114 4.1581,13.63756 10.7588,22.05746 21.57,27.51493 6.4448,3.25331 22.3476,7.51813 32.1833,8.63091 4.9348,0.55831 5.895,0.98244 5.895,2.60388 0,1.74974 -8.2346,52.43639 -9.594,59.05473 -0.6374,3.10277 0.244,3.01578 -17.0576,1.68376 z m -1869.34844,-7.35466 c 0,-1.27529 54.42693,-148.54399 73.02043,-197.5791 49.5611,-130.70341 97.69713,-246.48359 139.69323,-335.999997 l 12.90146,-27.5 35.98722,-0.26226 35.98722,-0.26226 2.34571,4.76226 c 34.86752,70.788087 88.99822,198.590377 137.76492,325.262257 24.59572,63.88758 85.29981,228.02893 85.29981,230.64718 0,1.11582 -7.42709,1.35282 -42.39504,1.35282 l -42.39504,0 -6.2243,-16.75 c -7.3831,-19.86839 -12.72787,-34.91686 -29.03523,-81.75 -6.70287,-19.25 -13.06677,-37.36421 -14.14199,-40.25381 l -1.95495,-5.25381 -127.1711,0.25381 -127.1711,0.25381 -24.72549,69.5 c -13.59902,38.225 -25.1794,70.5125 -25.73419,71.75 l -1.00869,2.25 -40.52144,0 c -22.28679,0 -40.52144,-0.18941 -40.52144,-0.4209 z m 364,-208.44912 c 0,-2.24944 -45.59355,-122.64141 -61.96818,-163.62998 -16.47145,-41.23092 -41.55459,-99.31056 -42.48705,-98.37811 -1.99707,1.99707 -30.10626,66.94551 -44.30847,102.37811 -17.82137,44.46192 -59.2363,155.6841 -59.2363,159.08249 0,1.21426 14.91194,1.41751 104,1.41751 58.30809,0 104,-0.38224 104,-0.87002 z m 1617.00004,-2.12998 0,-211 37.5,0 37.5,0 0,211 0,211 -37.5,0 -37.5,0 0,-211 z m 23.1046,-288.58252 c -7.6582,-2.0594 -14.6835,-6.12329 -20.6817,-11.96349 -9.1583,-8.91713 -13.4299,-20.187887 -13.411,-35.385487 0.02,-15.82557 3.7425,-25.91703 12.9866,-35.20216 9.3914,-9.43305 20.6211,-13.88273 34.933,-13.84189 14.882,0.0425 24.2094,3.50828 34.1098,12.67425 15.4742,14.32637 19.2623,40.02337 8.9791,60.91135 -5.1382,10.437207 -15.9034,18.906947 -28.9519,22.778427 -6.7339,1.99794 -20.5886,2.01231 -27.9639,0.029 z"
         style="fill:#555656;fill-opacity:1" />
    </g>
  </g>
</svg>
