<?xml version="1.0" encoding="UTF-8" standalone="no"?>
<!-- Created with Inkscape (http://www.inkscape.org/) -->

<svg
   xmlns:dc="http://purl.org/dc/elements/1.1/"
   xmlns:cc="http://creativecommons.org/ns#"
   xmlns:rdf="http://www.w3.org/1999/02/22-rdf-syntax-ns#"
   xmlns:svg="http://www.w3.org/2000/svg"
   xmlns="http://www.w3.org/2000/svg"
   xmlns:sodipodi="http://sodipodi.sourceforge.net/DTD/sodipodi-0.dtd"
   xmlns:inkscape="http://www.inkscape.org/namespaces/inkscape"
   sodipodi:docname="berlisco.svg"
   inkscape:version="0.48.5 r10040"
   version="1.1"
   id="svg3952"
   height="64"
   width="55.3125"
   inkscape:export-filename="/home/vvo/Dev/www.berlisco.com/svg/npm.png"
   inkscape:export-xdpi="405.67267"
   inkscape:export-ydpi="405.67267">
  <sodipodi:namedview
     id="base"
     pagecolor="#ffffff"
     bordercolor="#666666"
     borderopacity="1.0"
     inkscape:pageopacity="0.0"
     inkscape:pageshadow="2"
     inkscape:zoom="3.4022696"
     inkscape:cx="-28.19336"
     inkscape:cy="44.385055"
     inkscape:current-layer="layer1"
     showgrid="true"
     inkscape:grid-bbox="true"
     inkscape:document-units="px"
     fit-margin-top="0"
     fit-margin-left="0"
     fit-margin-right="0"
     fit-margin-bottom="0"
     inkscape:window-width="1366"
     inkscape:window-height="768"
     inkscape:window-x="0"
     inkscape:window-y="0"
     inkscape:window-maximized="0" />
  <defs
     id="defs3954">
    <marker
       style="overflow:visible"
       id="Arrow1Lend"
       refX="0"
       refY="0"
       orient="auto"
       inkscape:stockid="Arrow1Lend">
      <path
         inkscape:connector-curvature="0"
         transform="matrix(-0.8,0,0,-0.8,-10,0)"
         style="fill-rule:evenodd;stroke:#000000;stroke-width:1pt"
         d="M 0,0 5,-5 -12.5,0 5,5 0,0 z"
         id="path7021" />
    </marker>
    <marker
       style="overflow:visible"
       id="Arrow1Lstart"
       refX="0"
       refY="0"
       orient="auto"
       inkscape:stockid="Arrow1Lstart">
      <path
         inkscape:connector-curvature="0"
         transform="matrix(0.8,0,0,0.8,10,0)"
         style="fill-rule:evenodd;stroke:#000000;stroke-width:1pt"
         d="M 0,0 5,-5 -12.5,0 5,5 0,0 z"
         id="path7018" />
    </marker>
    <inkscape:perspective
       sodipodi:type="inkscape:persp3d"
       inkscape:vp_x="-0.43783376 : 122.67566 : 0"
       inkscape:vp_y="-551.1378 : -320.82768 : 0"
       inkscape:vp_z="28.167639 : -16.128829 : 0"
       inkscape:persp3d-origin="21.743603 : -111.45338 : 1"
       id="perspective6081" />
    <inkscape:perspective
       sodipodi:type="inkscape:persp3d"
       inkscape:vp_x="-0.019003776 : 124.26298 : 0"
       inkscape:vp_y="-576.1558 : -323.00128 : 0"
       inkscape:vp_z="29.330187 : -16.438182 : 0"
       inkscape:persp3d-origin="104.37625 : -94.576499 : 1"
       id="perspective6081-5" />
  </defs>
  <metadata
     id="metadata3957">
    <rdf:RDF>
      <cc:Work
         rdf:about="">
        <dc:format>image/svg+xml</dc:format>
        <dc:type
           rdf:resource="http://purl.org/dc/dcmitype/StillImage" />
        <dc:title />
      </cc:Work>
    </rdf:RDF>
  </metadata>
  <g
     inkscape:groupmode="layer"
     id="layer2"
     inkscape:label="cut me"
     style="display:none"
     transform="translate(-31.051533,-29.794647)">
    <path
       style="fill:#0000ff;fill-opacity:1;fill-rule:nonzero;stroke:none;display:inline"
       d="m -36.288971,31.185788 0,63 55.499997,0 0,-63 -27.7187501,0 27.5625101,15.688477 0,31.499998 -27.6562601,15.750004 -27.6562439,-15.750004 0,-31.499998 27.5624939,-15.688477 -27.5937469,0 z"
       id="rect5002-1"
       inkscape:connector-curvature="0" />
  </g>
  <g
     id="layer1"
     inkscape:label="Layer 1"
     inkscape:groupmode="layer"
     transform="translate(29.23564,37.651977)"
     style="display:inline">
    <path
       d="m -29.07547,-21.580253 0.0049,31.949789 27.1907746,-15.2435416 -0.00489,-31.9497894 z"
       style="fill:#8686bf;fill-opacity:1;fill-rule:evenodd;stroke:none"
       id="path3907"
       inkscape:connector-curvature="0" />
    <path
       d="M -29.070584,10.369536 -1.8798094,-4.8740056 25.762742,10.618337 -1.428032,25.861878 z"
       style="fill:#d7d7ff;fill-opacity:1;fill-rule:evenodd;stroke:none"
       id="path3909"
       inkscape:connector-curvature="0" />
    <path
       d="m -1.8846955,-36.823795 0.00489,31.9497894 27.6425515,15.4923426 -0.0049,-31.94979 z"
       style="fill:#afafde;fill-opacity:1;fill-rule:evenodd;stroke:none"
       id="path3911"
       inkscape:connector-curvature="0" />
    <path
       d="m -29.07547,-21.580253 0.0049,31.949789 27.642552,15.492342 -0.00489,-31.949789 z"
       style="fill:#e6e6e6;fill-opacity:1;fill-rule:evenodd;stroke:none"
       id="path3913"
       inkscape:connector-curvature="0" />
    <path
       d="M -29.07547,-21.580253 -1.8846955,-36.823795 25.757856,-21.331453 -1.4329182,-6.087911 z"
       style="fill:#f9f9f9;fill-opacity:1;fill-rule:evenodd;stroke:none"
       id="path3915"
       inkscape:connector-curvature="0" />
    <path
       d="m -1.4329182,-6.087911 0.00489,31.949789 27.1907742,-15.243541 -0.0049,-31.94979 z"
       style="fill:#b3b3b3;fill-opacity:1;fill-rule:evenodd;stroke:none"
       id="path3917"
       inkscape:connector-curvature="0" />
    <path
       inkscape:connector-curvature="0"
       id="path3960-2"
       d="m -1.57964,-37.651977 -27.656,16 0,32 27.656,16 27.656,-16 0,-32 -27.656,-16 z m 0,2.5 25.499769,14.75 0,29.5 -25.499769,14.75 -25.499769,-14.75 0,-29.5 25.499769,-14.75 z"
       style="fill:#a82353;fill-opacity:1;fill-rule:nonzero" />
    <g
       transform="matrix(0.80864067,0,0,-0.80864067,-2.3307267,0.37087083)"
       style="font-size:20px;font-style:normal;font-weight:normal;line-height:125%;letter-spacing:0px;word-spacing:0px;fill:#a82352;fill-opacity:1;stroke:none;font-family:sans-serif"
       id="text4259">
      <path
         d="m -24.900429,10.321113 c 1.161131,-0.6507812 2.057554,-2.1667319 2.689275,-4.5478565 0.631701,-2.3676379 0.947833,-5.3624777 0.948398,-8.9845239 5.54e-4,-3.6761199 -0.320061,-6.3411208 -0.961847,-7.9950076 -0.641805,-1.640366 -1.532568,-2.141169 -2.672295,-1.502406 -0.593951,0.332881 -1.123727,0.900074 -1.58933,1.701582 -0.465612,0.801511 -0.845646,1.8185837 -1.140103,3.0512175 0,0 -0.112369,0.062977 -0.112369,0.062977 -0.16563,-1.5288488 -0.264477,-2.4126705 -0.29654,-2.6514665 0,0 -1.035392,0.5802879 -1.035392,0.5802879 0,0 -0.0048,31.5443361 -0.0048,31.5443361 0,0 1.444733,-0.809704 1.444733,-0.809704 0,0 0.0012,-7.663086 0.0012,-7.663086 2.31e-4,-1.527232 -0.02629,-3.039444 -0.07956,-4.536649 0,0 0.08027,-0.044985 0.08027,-0.044985 0.593602,1.883585 1.503078,2.482013 2.72843,1.795284 m -0.240325,-2.8856827 c -0.888248,0.4978001 -1.524903,0.219459 -1.909966,-0.8350263 -0.385071,-1.0545164 -0.577372,-3.0954604 -0.576905,-6.12284009 0,0 2.5e-5,-0.16219204 2.5e-5,-0.16219204 4.63e-4,-3.04091077 0.196103,-5.32630547 0.58692,-6.85619027 0.396159,-1.5193723 1.041037,-2.5294662 1.934635,-3.0302836 0.791921,-0.443837 1.380403,-0.043899 1.765449,1.1998143 0.390379,1.2542271 0.58536,3.2666407 0.584943,6.0372492 -4.38e-4,2.81113907 -0.196068,5.0289586 -0.586888,6.6534647 -0.390836,1.6244792 -0.99024,2.6631421 -1.798213,3.1159937"
         id="path4268"
         inkscape:connector-curvature="0"
         style="fill:#a82352;fill-opacity:1" />
      <path
         d="m -15.209164,-18.138198 c -1.321666,0.740731 -2.359887,2.329396 -3.114664,4.765995 -0.749433,2.447112 -1.124419,5.4411515 -1.124961,8.9821249 -5.47e-4,3.56798248 0.349498,6.209731 1.05014,7.9252518 0.700635,1.7290007 1.647574,2.2591322 2.84082,1.5903973 1.107623,-0.6207929 1.990653,-2.0211242 2.649093,-4.20100177 0.658424,-2.16639223 0.987875,-4.79030483 0.988356,-7.87174463 0,0 3.38e-4,-2.2097248 3.38e-4,-2.2097248 0,0 -6.035773,3.3827645 -6.035773,3.3827645 0.02714,-2.5423327 0.281599,-4.6039273 0.76338,-6.1847933 0.481775,-1.580871 1.16411,-2.618714 2.047006,-3.113532 0.470871,-0.263904 0.917652,-0.412941 1.340345,-0.447136 0.422678,-0.02067 0.917569,0.114143 1.484675,0.404439 0,0 4.9e-4,-3.203088 4.9e-4,-3.203088 -0.486855,-0.254185 -0.944296,-0.369444 -1.372325,-0.345778 -0.428042,0.02367 -0.933681,0.198948 -1.51692,0.525826 m -0.364261,20.2926768 c -0.690265,0.3868423 -1.235967,0.1318526 -1.637106,-0.7649704 -0.401146,-0.89685257 -0.63902,-2.32439967 -0.713623,-4.2826409 0,0 4.486699,-2.5145818 4.486699,-2.5145818 -0.01103,2.0873181 -0.201226,3.7750489 -0.570594,5.06319665 -0.369381,1.28811965 -0.891173,2.12111885 -1.565376,2.49899645"
         id="path4270"
         inkscape:connector-curvature="0"
         style="fill:#a82352;fill-opacity:1" />
      <path
         d="m -5.5731178,-0.47038558 c 0.3906072,-0.21893963 0.7357499,-0.49345238 1.0354294,-0.82355972 0,0 -0.1760633,-3.2663066 -0.1760633,-3.2663066 -0.3264376,0.3721302 -0.6448283,0.645169 -0.9551726,0.819123 -0.46553,0.2608867 -0.8988999,0.1794365 -1.3001108,-0.2443562 -0.3958683,-0.4268243 -0.7060804,-1.1516434 -0.9306374,-2.1744606 -0.2245654,-1.0093305 -0.3367399,-2.2100192 -0.3365239,-3.6020656 0,0 0.00182,-11.8798067 0.00182,-11.8798067 0,0 -1.4447328,0.809705 -1.4447328,0.809705 0,0 -0.00341,22.2594332 -0.00341,22.2594332 0,0 1.1878916,-0.66575684 1.1878916,-0.66575684 0,0 0.1611499,-4.16478286 0.1611499,-4.16478286 0,0 0.06421,-0.035987 0.06421,-0.035987 0.3368757,1.2842014 0.7353439,2.1757816 1.1954058,2.67474169 0.4600539,0.49892312 0.9603012,0.59694837 1.5007434,0.29407903"
         id="path4272"
         inkscape:connector-curvature="0"
         style="fill:#a82352;fill-opacity:1" />
      <path
         d="m -1.4280802,-25.456425 c 0,0 -1.4447329,0.809704 -1.4447329,0.809704 0,0 -0.00483,31.5443365 -0.00483,31.5443365 0,0 1.4447334,-0.8097044 1.4447334,-0.8097044 0,0 0.00483,-31.5443361 0.00483,-31.5443361"
         id="path4274"
         inkscape:connector-curvature="0"
         style="fill:#a82352;fill-opacity:1" />
    </g>
    <g
       transform="matrix(0.77302087,0,0,-0.77302087,2.3201333,1.0188731)"
       style="font-size:20px;font-style:normal;font-weight:normal;line-height:125%;letter-spacing:0px;word-spacing:0px;opacity:0.79910715;fill:#a82353;fill-opacity:1;stroke:none;font-family:sans-serif"
       id="text4263">
      <path
         d="m 0.09647753,-24.589266 c 0,0 -1.41454903,-0.793016 -1.41454903,-0.793016 0,0 -0.00351,22.9436703 -0.00351,22.9436703 0,0 1.41454864,0.7930167 1.41454864,0.7930167 0,0 0.003512,-22.943671 0.003512,-22.943671 M -1.4325536,3.7057828 c -1.287e-4,0.8358042 0.07836,1.4858382 0.23548,1.9501091 0.1623519,0.4671442 0.36140785,0.7668176 0.59716768,0.899018 0.220038,0.1233266 0.41129257,0.042478 0.57376371,-0.2425767 C 0.14156284,6.0301639 0.22548094,5.4711777 0.22561129,4.6353744 0.22573469,3.8134402 0.1420021,3.1604666 -0.02558567,2.676454 -0.18793954,2.1953178 -0.37913548,1.8930875 -0.5991735,1.7697567 -0.83493334,1.6375606 -1.0340479,1.7209707 -1.1965171,2.0200127 -1.3537501,2.321926 -1.4324286,2.8838495 -1.4325536,3.7057828"
         id="path4277"
         inkscape:connector-curvature="0"
         style="fill:#a82353;fill-opacity:1" />
      <path
         d="m 8.4492037,-13.574612 c 3.213e-4,-2.145318 -0.3006694,-3.978905 -0.9029747,-5.500764 -0.6023195,-1.507939 -1.4483386,-2.567363 -2.5380605,-3.178277 -1.1368802,-0.637352 -2.0406925,-0.663396 -2.7114387,-0.07813 0,0 -5.246e-4,3.426924 -5.246e-4,3.426924 0.9484572,-0.694281 1.8627673,-0.794703 2.7429342,-0.301267 0.7125088,0.399441 1.2311296,0.996686 1.555863,1.791738 0.3247229,0.795038 0.4870074,1.707991 0.4868552,2.738862 -1.443e-4,0.905478 -0.1574333,1.583548 -0.4718678,2.034208 -0.3092063,0.453577 -0.8620372,0.861138 -1.6584951,1.222685 -0.8121864,0.380571 -1.3833533,0.770887 -1.7135016,1.170947 -0.3301544,0.4139645 -0.5738732,0.9460576 -0.7311571,1.5962789 -0.1520475,0.653129 -0.2281516,1.5090639 -0.2283128,2.5678043 -2.888e-4,1.8806083 0.2876329,3.5257547 0.863765,4.9354417 0.5761288,1.40964228 1.3671442,2.3964358 2.3730485,2.960384 0.979701,0.5492111 1.8966153,0.5477719 2.7507478,-0.00432 0,0 -0.478917,-3.2568554 -0.478917,-3.2568554 C 6.9120878,-0.96433032 6.1235339,-0.91879207 5.4215034,-1.3123413 4.8347251,-1.6413171 4.389443,-2.1417218 4.0856564,-2.8135537 3.7818628,-3.471495 3.6300333,-4.2323036 3.630168,-5.0959794 c 1.256e-4,-0.8358534 0.1312086,-1.4589534 0.3932499,-1.8693061 0.2620343,-0.3964535 0.8725008,-0.8134975 1.8314035,-1.251134 0.7178564,-0.3080924 1.2471028,-0.673147 1.5877417,-1.0951667 0.3458664,-0.4191106 0.6000667,-0.9662258 0.7626017,-1.6413438 0.1625213,-0.675145 0.2438674,-1.549038 0.2440389,-2.621682"
         id="path4279"
         inkscape:connector-curvature="0"
         style="fill:#a82353;fill-opacity:1" />
      <path
         d="m 13.990554,-17.217998 c -1.241663,-0.696094 -2.208425,-0.228021 -2.900289,1.404217 -0.69187,1.646164 -1.038095,4.363806 -1.038674,8.1529315 -5.9e-4,3.8448251 0.347354,7.00038965 1.043834,9.466698 0.701712,2.4831343 1.699594,4.087444 2.993647,4.812933 0.41912,0.2349413 0.833025,0.348561 1.241714,0.3408618 0.413914,0.00912 0.754498,-0.092516 1.021753,-0.3048918 0,0 -0.431743,-3.3766919 -0.431743,-3.3766919 C 15.192448,3.5941712 14.571564,3.6083187 14.05814,3.3205074 13.188451,2.8329254 12.546778,1.7417776 12.133119,0.04705635 11.719452,-1.6337728 11.512841,-3.915992 11.513285,-6.7996059 c 4.22e-4,-2.7721963 0.207691,-4.7805941 0.621806,-6.0251971 0.414107,-1.230685 1.02719,-1.618401 1.83925,-1.163147 0.759659,0.425874 1.506158,1.290189 2.239497,2.592946 0,0 5.13e-4,-3.34334 5.13e-4,-3.34334 -0.597135,-1.156737 -1.3384,-1.983287 -2.223797,-2.479654"
         id="path4281"
         inkscape:connector-curvature="0"
         style="fill:#a82353;fill-opacity:1" />
      <path
         d="m 25.760916,1.3132079 c 5.66e-4,-3.7473385 -0.355242,-6.8724808 -1.067424,-9.3754359 -0.712199,-2.502968 -1.696982,-4.106901 -2.954353,-4.811801 -0.780625,-0.43763 -1.472256,-0.344722 -2.074893,0.278724 -0.602644,0.637371 -1.066515,1.770496 -1.391613,3.3993766 -0.325101,1.6288687 -0.487835,3.6413351 -0.488201,6.0374032 -5.73e-4,3.73338154 0.349999,6.8346915 1.051717,9.303937 0.701713,2.4831344 1.686496,4.0801012 2.954355,4.7909052 1.215458,0.68138 2.179609,0.156118 2.892456,-1.5757907 0.718069,-1.7150891 1.077387,-4.3975237 1.077956,-8.0473184 m -6.514784,-3.6522825 c 4.4e-4,-2.8836403 0.212958,-4.9587516 0.637556,-6.2253421 0.429829,-1.2497376 1.061251,-1.6411033 1.894267,-1.1740981 0.822528,0.4611171 1.448483,1.5573858 1.877864,3.2888093 0.429366,1.745335 0.643831,4.0598196 0.643396,6.94346277 C 24.298766,3.3773705 24.081012,5.421685 23.645955,6.6267067 23.21612,7.8485534 22.584701,8.2259869 21.751695,7.7590106 20.080428,6.822055 19.245242,3.4560308 19.246132,-2.3390746"
         id="path4283"
         inkscape:connector-curvature="0"
         style="fill:#a82353;fill-opacity:1" />
    </g>
  </g>
  <text
     x="-36.887142"
     y="63.118237"
     sodipodi:linespacing="125%"
     id="text4069"
     style="font-size:40px;font-style:normal;font-weight:normal;line-height:125%;letter-spacing:0px;word-spacing:0px;fill:#000000;fill-opacity:1;stroke:none;font-family:sans-serif"
     xml:space="preserve"><tspan
       id="tspan4071"
       sodipodi:role="line" /></text>
</svg>
