<?xml version="1.0" encoding="UTF-8" standalone="no"?>
<!-- Created with Inkscape (http://www.inkscape.org/) -->

<svg
   xmlns:dc="http://purl.org/dc/elements/1.1/"
   xmlns:cc="http://creativecommons.org/ns#"
   xmlns:rdf="http://www.w3.org/1999/02/22-rdf-syntax-ns#"
   xmlns:svg="http://www.w3.org/2000/svg"
   xmlns="http://www.w3.org/2000/svg"
   xmlns:sodipodi="http://sodipodi.sourceforge.net/DTD/sodipodi-0.dtd"
   xmlns:inkscape="http://www.inkscape.org/namespaces/inkscape"
   id="svg3151"
   version="1.1"
   inkscape:version="0.48.5 r10040"
   width="55.425579"
   height="63.999996"
   xml:space="preserve"
   sodipodi:docname="browserify-logo.svg"><metadata
     id="metadata3157"><rdf:RDF><cc:Work
         rdf:about=""><dc:format>image/svg+xml</dc:format><dc:type
           rdf:resource="http://purl.org/dc/dcmitype/StillImage" /><dc:title></dc:title></cc:Work></rdf:RDF></metadata><defs
     id="defs3155"><clipPath
       clipPathUnits="userSpaceOnUse"
       id="clipPath3169"><path
         d="m 0,848.508 734.828,0 L 734.828,0 0,0 0,848.508 z"
         id="path3171"
         inkscape:connector-curvature="0" /></clipPath><clipPath
       clipPathUnits="userSpaceOnUse"
       id="clipPath3177"><path
         d="m 29.2832,813.686 676.2448,0 0,-780.8618 -676.2448,0 0,780.8618 z"
         id="path3179"
         inkscape:connector-curvature="0" /></clipPath><clipPath
       clipPathUnits="userSpaceOnUse"
       id="clipPath3201"><path
         d="m 282.346,565.025 81.041,0 0,-101.629 -81.041,0 0,101.629 z"
         id="path3203"
         inkscape:connector-curvature="0" /></clipPath><clipPath
       clipPathUnits="userSpaceOnUse"
       id="clipPath3221"><path
         d="m 346.301,582.099 44.084,0 0,-36 -44.084,0 0,36 z"
         id="path3223"
         inkscape:connector-curvature="0" /></clipPath><clipPath
       clipPathUnits="userSpaceOnUse"
       id="clipPath3241"><path
         d="m 320.234,592.964 23.271,0 0,-21.994 -23.271,0 0,21.994 z"
         id="path3243"
         inkscape:connector-curvature="0" /></clipPath><clipPath
       clipPathUnits="userSpaceOnUse"
       id="clipPath3261"><path
         d="m 368.607,536.753 21.181,0 0,-22.316 -21.181,0 0,22.316 z"
         id="path3263"
         inkscape:connector-curvature="0" /></clipPath><clipPath
       clipPathUnits="userSpaceOnUse"
       id="clipPath3281"><path
         d="m 185.319,483.755 313.702,0 0,-187.46 -313.702,0 0,187.46 z"
         id="path3283"
         inkscape:connector-curvature="0" /></clipPath><clipPath
       clipPathUnits="userSpaceOnUse"
       id="clipPath3301"><path
         d="m 197.084,284.262 36.758,0 0,-22.076 -36.758,0 0,22.076 z"
         id="path3303"
         inkscape:connector-curvature="0" /></clipPath><clipPath
       clipPathUnits="userSpaceOnUse"
       id="clipPath3321"><path
         d="m 178.808,287.926 26.827,0 0,-71.926 -26.827,0 0,71.926 z"
         id="path3323"
         inkscape:connector-curvature="0" /></clipPath><clipPath
       clipPathUnits="userSpaceOnUse"
       id="clipPath3341"><path
         d="m 109.407,328.866 75.237,0 0,-111.623 -75.237,0 0,111.623 z"
         id="path3343"
         inkscape:connector-curvature="0" /></clipPath><clipPath
       clipPathUnits="userSpaceOnUse"
       id="clipPath3361"><path
         d="m 125.116,326.957 31.183,0 0,-105.165 -31.183,0 0,105.165 z"
         id="path3363"
         inkscape:connector-curvature="0" /></clipPath><clipPath
       clipPathUnits="userSpaceOnUse"
       id="clipPath3381"><path
         d="m 115.914,249.455 27.816,0 0,-29.545 -27.816,0 0,29.545 z"
         id="path3383"
         inkscape:connector-curvature="0" /></clipPath><clipPath
       clipPathUnits="userSpaceOnUse"
       id="clipPath3401"><path
         d="m 124.42,291.653 60.933,0 0,-69.518 -60.933,0 0,69.518 z"
         id="path3403"
         inkscape:connector-curvature="0" /></clipPath><clipPath
       clipPathUnits="userSpaceOnUse"
       id="clipPath3421"><path
         d="m 228.078,283.592 53.183,0 0,-67.246 -53.183,0 0,67.246 z"
         id="path3423"
         inkscape:connector-curvature="0" /></clipPath><clipPath
       clipPathUnits="userSpaceOnUse"
       id="clipPath3441"><path
         d="m 273.968,288.607 64.816,0 0,-73.568 -64.816,0 0,73.568 z"
         id="path3443"
         inkscape:connector-curvature="0" /></clipPath><clipPath
       clipPathUnits="userSpaceOnUse"
       id="clipPath3461"><path
         d="m 336.753,283.627 39.664,0 0,-68.647 -39.664,0 0,68.647 z"
         id="path3463"
         inkscape:connector-curvature="0" /></clipPath><clipPath
       clipPathUnits="userSpaceOnUse"
       id="clipPath3481"><path
         d="m 339.103,235.62 23.241,0 0,-22.633 -23.241,0 0,22.633 z"
         id="path3483"
         inkscape:connector-curvature="0" /></clipPath><clipPath
       clipPathUnits="userSpaceOnUse"
       id="clipPath3501"><path
         d="m 332.541,236.547 15.415,0 0,-13.8 -15.415,0 0,13.8 z"
         id="path3503"
         inkscape:connector-curvature="0" /></clipPath><clipPath
       clipPathUnits="userSpaceOnUse"
       id="clipPath3521"><path
         d="m 347.854,282.789 29.94,0 0,-20.251 -29.94,0 0,20.251 z"
         id="path3523"
         inkscape:connector-curvature="0" /></clipPath><clipPath
       clipPathUnits="userSpaceOnUse"
       id="clipPath3541"><path
         d="m 371.531,281.47 8.786,0 0,-17.694 -8.786,0 0,17.694 z"
         id="path3543"
         inkscape:connector-curvature="0" /></clipPath><clipPath
       clipPathUnits="userSpaceOnUse"
       id="clipPath3561"><path
         d="m 375.158,281.414 54.353,0 0,-68.94 -54.353,0 0,68.94 z"
         id="path3563"
         inkscape:connector-curvature="0" /></clipPath><clipPath
       clipPathUnits="userSpaceOnUse"
       id="clipPath3581"><path
         d="m 418.469,288.328 35.455,0 0,-80.457 -35.455,0 0,80.457 z"
         id="path3583"
         inkscape:connector-curvature="0" /></clipPath><clipPath
       clipPathUnits="userSpaceOnUse"
       id="clipPath3601"><path
         d="m 444.307,284.354 34.097,0 0,-21.417 -34.097,0 0,21.417 z"
         id="path3603"
         inkscape:connector-curvature="0" /></clipPath><clipPath
       clipPathUnits="userSpaceOnUse"
       id="clipPath3621"><path
         d="m 465.824,290.764 35.223,0 0,-81.803 -35.223,0 0,81.803 z"
         id="path3623"
         inkscape:connector-curvature="0" /></clipPath><clipPath
       clipPathUnits="userSpaceOnUse"
       id="clipPath3641"><path
         d="m 488.49,329.349 16.379,0 0,-36.874 -16.379,0 0,36.874 z"
         id="path3643"
         inkscape:connector-curvature="0" /></clipPath><clipPath
       clipPathUnits="userSpaceOnUse"
       id="clipPath3661"><path
         d="m 489.611,314.615 11.686,0 0,-20.579 -11.686,0 0,20.579 z"
         id="path3663"
         inkscape:connector-curvature="0" /></clipPath><clipPath
       clipPathUnits="userSpaceOnUse"
       id="clipPath3681"><path
         d="m 494.77,327.636 63.034,0 0,-123.642 -63.034,0 0,123.642 z"
         id="path3683"
         inkscape:connector-curvature="0" /></clipPath><clipPath
       clipPathUnits="userSpaceOnUse"
       id="clipPath3701"><path
         d="m 504.778,272.121 7.812,0 0,-17.096 -7.812,0 0,17.096 z"
         id="path3703"
         inkscape:connector-curvature="0" /></clipPath><clipPath
       clipPathUnits="userSpaceOnUse"
       id="clipPath3721"><path
         d="m 523.761,267.7 7.33,0 0,-7.42 -7.33,0 0,7.42 z"
         id="path3723"
         inkscape:connector-curvature="0" /></clipPath><clipPath
       clipPathUnits="userSpaceOnUse"
       id="clipPath3741"><path
         d="m 540.49,307.979 78.045,0 0,-129.653 -78.045,0 0,129.653 z"
         id="path3743"
         inkscape:connector-curvature="0" /></clipPath></defs><sodipodi:namedview
     pagecolor="#ffffff"
     bordercolor="#666666"
     borderopacity="1"
     objecttolerance="10"
     gridtolerance="10"
     guidetolerance="10"
     inkscape:pageopacity="0"
     inkscape:pageshadow="2"
     inkscape:window-width="679"
     inkscape:window-height="722"
     id="namedview3153"
     showgrid="false"
     fit-margin-top="0"
     fit-margin-left="0"
     fit-margin-right="0"
     fit-margin-bottom="0"
     inkscape:zoom="7.1202626"
     inkscape:cx="18.039871"
     inkscape:cy="38.802554"
     inkscape:window-x="0"
     inkscape:window-y="20"
     inkscape:window-maximized="0"
     inkscape:current-layer="g3159" /><g
     id="g3159"
     inkscape:groupmode="layer"
     inkscape:label="browserify"
     transform="matrix(1.25,0,0,-1.25,-5.020408e-4,64.000504)"><g
       id="g3161"
       transform="matrix(0.06021763,0,0,0.06034128,22.125081,51.200403)"><path
         style="fill:#3d6a92;fill-opacity:1;fill-rule:nonzero;stroke:none"
         d="m 0,0 c -122.47067,-70.708667 -244.94133,-141.41733 -367.412,-212.126 0,-141.418 0,-282.836 0,-424.254 122.47067,-70.709 244.94133,-141.418 367.412,-212.127 122.472,70.709 244.944,141.418 367.416,212.127 0,141.418 0,282.836 0,424.254 C 244.944,-141.41733 122.472,-70.708667 0,0 z"
         id="path3163"
         inkscape:connector-curvature="0" /></g><g
       id="g3165"
       transform="matrix(0.06021763,0,0,0.06034128,3.7505153e-4,3.7350563e-4)"><g
         id="g3167"
         clip-path="url(#clipPath3169)"><g
           id="g3173"><g
             id="g3175" /><g
             id="g3181"><g
               clip-path="url(#clipPath3177)"
               id="g3183"><g
                 transform="translate(29.2832,618.4712)"
                 id="g3185"><path
                   style="fill:#222222;fill-opacity:1;fill-rule:nonzero;stroke:none"
                   d="M 0,0 C 112.707,65.071667 225.414,130.14333 338.121,195.215 450.829,130.14333 563.537,65.071667 676.245,0 c 0,-130.14367 0,-260.28733 0,-390.431 C 563.537,-455.503 450.829,-520.575 338.121,-585.647 225.414,-520.575 112.707,-455.503 0,-390.431 0,-260.28733 0,-130.14367 0,0 z"
                   id="path3187"
                   inkscape:connector-curvature="0" /></g></g></g></g><g
           id="g3189"
           transform="translate(338.0713,725.1543)"><path
             style="fill:#3d6a92;fill-opacity:1;fill-rule:nonzero;stroke:none"
             d="m 0,0 c -25.994378,-5.635922 -62.020406,3.0098186 -74.658,-28.406 -28.02479,-27.936549 -27.37655,-68.668619 -36.50706,-104.28073 24.551678,-21.75583 56.973061,20.34748 61.43406,46.82673 21.883892,-32.16737 5.070728,-58.09941 -1.984535,-88.06788 -16.106092,-28.88196 -15.221908,-81.14675 -55.760765,-85.3565 -35.85301,-7.52464 -69.15458,-21.97065 -98.71578,-42.01539 -35.17545,-27.60564 17.12877,-51.30792 42.57989,-53.23879 37.19878,-11.05541 69.315873,-34.19963 109.523112,-36.3613 40.489936,-13.93298 86.146291,-13.33193 127.923453,-4.34134 33.135205,5.26784 64.597595,11.80064 98.652745,12.81133 35.45482,14.97733 77.73109,15.41563 104.09988,47.47087 36.86691,42.47395 -35.45457,58.13702 -61.96313,75.65513 -30.06375,8.5041 -69.62121,11.12195 -63.53875,50.8473 -4.73949,33.64038 -10.51644,70.89203 -36.61812,94.70957 -7.24561,34.71112 -20.639879,71.144415 -51.594188,92.182906 C 44.738464,-6.6176604 22.565268,-2.0663854 0,0 z"
             id="path3191"
             inkscape:connector-curvature="0" /></g><g
           id="g3193"
           transform="translate(332.2021,563.7197)"><path
             style="fill:#e6b35a;fill-opacity:1;fill-rule:nonzero;stroke:none"
             d="M 0,0 C -17.005864,4.235218 -58.394419,-10.20384 -19.696652,-8.7439629 23.464345,-17.766713 3.014991,-70.810968 -21.1905,-89.382781 c -13.101917,-6.995342 -42.76827,-6.408036 -10.343779,-10.287633 42.856152,-7.180396 75.868885,45.719944 56.507076,82.36432 C 18.66839,-9.4234163 10.120213,-2.1448541 0,0 z"
             id="path3195"
             inkscape:connector-curvature="0" /></g><g
           id="g3197"><g
             id="g3199" /><g
             id="g3205"><g
               clip-path="url(#clipPath3201)"
               id="g3207"
               style="opacity:0"><g
                 transform="translate(332.2021,563.7197)"
                 id="g3209"><path
                   style="fill:none;stroke:#ffffff;stroke-width:1.17999995;stroke-linecap:butt;stroke-linejoin:miter;stroke-miterlimit:4;stroke-opacity:1;stroke-dasharray:none"
                   d="M 0,0 C -17.005864,4.235218 -58.394419,-10.20384 -19.696652,-8.7439629 23.464345,-17.766713 3.014991,-70.810968 -21.1905,-89.382781 c -13.101917,-6.995342 -42.76827,-6.408036 -10.343779,-10.287633 42.856152,-7.180396 75.868885,45.719944 56.507076,82.36432 C 18.66839,-9.4234163 10.120213,-2.1448541 0,0 z"
                   id="path3211"
                   inkscape:connector-curvature="0" /></g></g></g></g><g
           id="g3213"
           transform="translate(359.7754,581.5093)"><path
             style="fill:#e6b35a;fill-opacity:1;fill-rule:nonzero;stroke:none"
             d="M 0,0 C 6.6930426,-16.513155 -29.107055,-16.893123 0.093,-21.85 -4.4078209,-47.919477 22.6774,-15.534861 28.5,-21.472 7.4924556,-16.015723 34.395807,0.84819404 8.071,-5.196 L 4.67425,-2.433375 -0.005,0 0,0 z"
             id="path3215"
             inkscape:connector-curvature="0" /></g><g
           id="g3217"><g
             id="g3219" /><g
             id="g3225"><g
               clip-path="url(#clipPath3221)"
               id="g3227"
               style="opacity:0"><g
                 transform="translate(359.7754,581.5093)"
                 id="g3229"><path
                   style="fill:none;stroke:#ffffff;stroke-width:1.17999995;stroke-linecap:butt;stroke-linejoin:miter;stroke-miterlimit:4;stroke-opacity:1;stroke-dasharray:none"
                   d="M 0,0 C 6.6930426,-16.513155 -29.107055,-16.893123 0.093,-21.85 -4.4078209,-47.919477 22.6774,-15.534861 28.5,-21.472 7.4924556,-16.015723 34.395807,0.84819404 8.071,-5.196 L 4.67425,-2.433375 -0.005,0 0,0 z"
                   id="path3231"
                   inkscape:connector-curvature="0" /></g></g></g></g><g
           id="g3233"
           transform="translate(325.5288,582.5781)"><path
             style="fill:#e6b35a;fill-opacity:1;fill-rule:nonzero;stroke:none"
             d="M 0,0 C -11.86873,-11.156068 19.688916,-11.004067 15.314,1.732 11.67569,12.061216 -4.7028495,8.2320464 0,0 z"
             id="path3235"
             inkscape:connector-curvature="0" /></g><g
           id="g3237"><g
             id="g3239" /><g
             id="g3245"><g
               clip-path="url(#clipPath3241)"
               id="g3247"
               style="opacity:0"><g
                 transform="translate(325.5288,582.5781)"
                 id="g3249"><path
                   style="fill:none;stroke:#ffffff;stroke-width:0.80299997;stroke-linecap:butt;stroke-linejoin:miter;stroke-miterlimit:4;stroke-opacity:1;stroke-dasharray:none"
                   d="M 0,0 C -11.86873,-11.156068 19.688916,-11.004067 15.314,1.732 11.67569,12.061216 -4.7028495,8.2320464 0,0 z"
                   id="path3251"
                   inkscape:connector-curvature="0" /></g></g></g></g><g
           id="g3253"
           transform="translate(376.8428,531.0762)"><path
             style="fill:#e6b35a;fill-opacity:1;fill-rule:nonzero;stroke:none"
             d="M 0,0 C -14.714316,6.9843712 -3.0684102,-22.350027 7.197,-13.627 15.485738,-6.476371 5.9502057,7.3858956 0,0 z"
             id="path3255"
             inkscape:connector-curvature="0" /></g><g
           id="g3257"><g
             id="g3259" /><g
             id="g3265"><g
               clip-path="url(#clipPath3261)"
               id="g3267"
               style="opacity:0"><g
                 transform="translate(376.8428,531.0762)"
                 id="g3269"><path
                   style="fill:none;stroke:#ffffff;stroke-width:0.80299997;stroke-linecap:butt;stroke-linejoin:miter;stroke-miterlimit:4;stroke-opacity:1;stroke-dasharray:none"
                   d="M 0,0 C -14.714316,6.9843712 -3.0684102,-22.350027 7.197,-13.627 15.485738,-6.476371 5.9502057,7.3858956 0,0 z"
                   id="path3271"
                   inkscape:connector-curvature="0" /></g></g></g></g><g
           id="g3273"
           transform="translate(493.5479,483.2168)"><path
             style="fill:#e6b35a;fill-opacity:1;fill-rule:nonzero;stroke:none"
             d="m 0,0 c -14.987107,-35.931368 -52.620863,-55.205592 -89.785,-57.21575 -41.1131,-6.248964 -84.85863,-7.157171 -124.53313,7.383 -20.11521,3.057278 -31.77966,26.042991 -31.75362,29.42625 -30.01795,-23.665003 40.38792,-38.487819 2.66375,-46.8165 -26.80512,-16.432983 -90.7788,-57.07946 -53.863,-87.295 8.57413,4.58254 0.30926,52.7796 31.43012,56.736225 27.11366,21.403782 52.82206,38.546069 80.83688,21.124775 2.93595,-35.3344 -23.07011,-69.53343 -11.762,-104.987 30.40403,-15.73235 4.54704,35.22738 16.9382,53.19245 9.4211,27.30348 -12.58215,69.779684 27.24341,56.884657 42.90496,0.01041 87.274329,3.0948 126.85839,20.113893 C -13.203448,-38.753451 14.994192,-20.163487 0,0 z"
             id="path3275"
             inkscape:connector-curvature="0" /></g><g
           id="g3277"><g
             id="g3279" /><g
             id="g3285"><g
               clip-path="url(#clipPath3281)"
               id="g3287"
               style="opacity:0"><g
                 transform="translate(493.5479,483.2168)"
                 id="g3289"><path
                   style="fill:none;stroke:#ffffff;stroke-width:1;stroke-linecap:butt;stroke-linejoin:miter;stroke-miterlimit:4;stroke-opacity:1;stroke-dasharray:none"
                   d="m 0,0 c -14.987107,-35.931368 -52.620863,-55.205592 -89.785,-57.21575 -41.1131,-6.248964 -84.85863,-7.157171 -124.53313,7.383 -20.11521,3.057278 -31.77966,26.042991 -31.75362,29.42625 -30.01795,-23.665003 40.38792,-38.487819 2.66375,-46.8165 -26.80512,-16.432983 -90.7788,-57.07946 -53.863,-87.295 8.57413,4.58254 0.30926,52.7796 31.43012,56.736225 27.11366,21.403782 52.82206,38.546069 80.83688,21.124775 2.93595,-35.3344 -23.07011,-69.53343 -11.762,-104.987 30.40403,-15.73235 4.54704,35.22738 16.9382,53.19245 9.4211,27.30348 -12.58215,69.779684 27.24341,56.884657 42.90496,0.01041 87.274329,3.0948 126.85839,20.113893 C -13.203448,-38.753451 14.994192,-20.163487 0,0 z"
                   id="path3291"
                   inkscape:connector-curvature="0" /></g></g></g></g><g
           id="g3293"
           transform="translate(217.6646,283.7607)"><path
             style="fill:#e6b35a;fill-opacity:1;fill-rule:nonzero;stroke:none"
             d="M 0,0 C -31.473775,-5.5003816 -16.735565,-11.121977 0.365,-13.833 -2.901644,-4.7925851 12.756307,-34.974777 14.684,-8.724 13.946641,-1.7571673 5.2806855,-0.5929142 0,0 z"
             id="path3295"
             inkscape:connector-curvature="0" /></g><g
           id="g3297"><g
             id="g3299" /><g
             id="g3305"><g
               clip-path="url(#clipPath3301)"
               id="g3307"
               style="opacity:0"><g
                 transform="translate(217.6646,283.7607)"
                 id="g3309"><path
                   style="fill:none;stroke:#ffffff;stroke-width:1;stroke-linecap:butt;stroke-linejoin:miter;stroke-miterlimit:4;stroke-opacity:1;stroke-dasharray:none"
                   d="M 0,0 C -31.473775,-5.5003816 -16.735565,-11.121977 0.365,-13.833 -2.901644,-4.7925851 12.756307,-34.974777 14.684,-8.724 13.946641,-1.7571673 5.2806855,-0.5929142 0,0 z"
                   id="path3311"
                   inkscape:connector-curvature="0" /></g></g></g></g><g
           id="g3313"
           transform="translate(199.6436,249.1455)"><path
             style="fill:#e6b35a;fill-opacity:1;fill-rule:nonzero;stroke:none"
             d="M 0,0 -0.208,-0.069 0,0 z M 1.078,38.266 C -16.307897,25.08288 -25.889247,36.518012 -9.905,21.859 -10.014601,-6.5547787 -2.9051075,-0.56189515 -14.32125,-28.636125 -22.058388,-38.044857 8.3210093,-10.271974 4.709,-28.292 0.52362251,-16.481046 0.12869185,-0.42041042 3.851125,4.226125 0.76663603,21.754245 2.0804712,14.926746 4.849,32.407 6.8403967,43.18047 4.0610913,33.015418 1.078,38.266 z"
             id="path3315"
             inkscape:connector-curvature="0" /></g><g
           id="g3317"><g
             id="g3319" /><g
             id="g3325"><g
               clip-path="url(#clipPath3321)"
               id="g3327"
               style="opacity:0"><g
                 transform="translate(199.6436,249.1455)"
                 id="g3329"><path
                   style="fill:none;stroke:#ffffff;stroke-width:1;stroke-linecap:butt;stroke-linejoin:miter;stroke-miterlimit:4;stroke-opacity:1;stroke-dasharray:none"
                   d="M 0,0 -0.208,-0.069 0,0 z M 1.078,38.266 C -16.307897,25.08288 -25.889247,36.518012 -9.905,21.859 -10.014601,-6.5547787 -2.9051075,-0.56189515 -14.32125,-28.636125 -22.058388,-38.044857 8.3210093,-10.271974 4.709,-28.292 0.52362251,-16.481046 0.12869185,-0.42041042 3.851125,4.226125 0.76663603,21.754245 2.0804712,14.926746 4.849,32.407 6.7797565,43.58792 3.7441254,32.320365 1.078,38.266 z"
                   id="path3331"
                   inkscape:connector-curvature="0" /></g></g></g></g><g
           id="g3333"
           transform="translate(171.2837,225.8594)"><path
             style="fill:#e6b35a;fill-opacity:1;fill-rule:nonzero;stroke:none"
             d="M 0,0 1.043,-0.157 0,0 z m -8.34,60.074 c -11.343097,-9.810969 -45.476657,-15.90092 -8.915,-9.228 41.554727,-2.171402 13.5671997,-61.900603 -18.282,-52.08 -10.744792,-2.691053 -0.4493,-5.8113154 4.727,-5.91 17.809425,4.1036148 45.29573,7.34804116 43.061,41.082 1.409627,21.005163 -22.282333,12.681609 -20.591,26.136 z m -7.491,42.33 C -34.620804,98.450759 -55.571415,77.140506 -56.38675,94.907125 -76.603568,62.628491 -19.088707,97.196159 -15.831,102.404 z"
             id="path3335"
             inkscape:connector-curvature="0" /></g><g
           id="g3337"><g
             id="g3339" /><g
             id="g3345"><g
               clip-path="url(#clipPath3341)"
               id="g3347"
               style="opacity:0"><g
                 transform="translate(171.2837,225.8594)"
                 id="g3349"><path
                   style="fill:none;stroke:#ffffff;stroke-width:1;stroke-linecap:butt;stroke-linejoin:miter;stroke-miterlimit:4;stroke-opacity:1;stroke-dasharray:none"
                   d="M 0,0 1.043,-0.157 0,0 z m -8.34,60.074 c -11.343097,-9.810969 -45.476657,-15.90092 -8.915,-9.228 41.554727,-2.171402 13.5671997,-61.900603 -18.282,-52.08 -10.744792,-2.691053 -0.4493,-5.8113154 4.727,-5.91 17.809425,4.1036148 45.29573,7.34804116 43.061,41.082 2.353222,20.062491 -22.1101701,12.774316 -20.591,26.136 z m -7.491,42.33 C -34.620804,98.450759 -55.571415,77.140506 -56.38675,94.907125 -77.796997,62.53634 -18.262652,97.379336 -15.831,102.404 z"
                   id="path3351"
                   inkscape:connector-curvature="0" /></g></g></g></g><g
           id="g3353"
           transform="translate(125.7031,299.8525)"><path
             style="fill:#e6b35a;fill-opacity:1;fill-rule:nonzero;stroke:none"
             d="M 0,0 -0.087,-0.036 0,0 z m 28.638,-72.812 0.608,0.07 -0.608,-0.07 z m 1.216,99.416 C 15.105429,30.371344 -3.3233414,-3.6732878 4.24,0.087 c 16.802823,-21.950577 -15.841299,-81.483232 21.391,-74.219 -12.180295,5.515769 -1.931792,44.07436 -9.87,60.056 6.079728,-0.561769 -1.228323,22.1066326 1.807,30.306 6.045662,-5.264475 7.931483,7.146663 12.286,10.374 z"
             id="path3355"
             inkscape:connector-curvature="0" /></g><g
           id="g3357"><g
             id="g3359" /><g
             id="g3365"><g
               clip-path="url(#clipPath3361)"
               id="g3367"
               style="opacity:0"><g
                 transform="translate(125.7031,299.8525)"
                 id="g3369"><path
                   style="fill:none;stroke:#ffffff;stroke-width:1;stroke-linecap:butt;stroke-linejoin:miter;stroke-miterlimit:4;stroke-opacity:1;stroke-dasharray:none"
                   d="M 0,0 -0.087,-0.036 0,0 z m 28.638,-72.812 0.608,0.07 -0.608,-0.07 z m 1.216,99.416 C 15.105429,30.371344 -3.3233414,-3.6732878 4.24,0.087 c 16.802823,-21.950577 -15.841299,-81.483232 21.391,-74.219 -12.180295,5.515769 -1.931792,44.07436 -9.87,60.056 6.079728,-0.561769 -1.228323,22.1066326 1.807,30.306 6.240929,-5.274719 7.775377,7.086543 12.286,10.374 z"
                   id="path3371"
                   inkscape:connector-curvature="0" /></g></g></g></g><g
           id="g3373"
           transform="translate(122.9058,248.9531)"><path
             style="fill:#e6b35a;fill-opacity:1;fill-rule:nonzero;stroke:none"
             d="M 0,0 C -19.110152,-14.742205 12.173807,-3.7835507 9.505,-20.609 27.6705,-39.555645 12.042271,-4.9452551 0.417,-0.122 0.18127108,-0.41330742 0.26048023,-0.03939743 0,0 z"
             id="path3375"
             inkscape:connector-curvature="0" /></g><g
           id="g3377"><g
             id="g3379" /><g
             id="g3385"><g
               clip-path="url(#clipPath3381)"
               id="g3387"
               style="opacity:0"><g
                 transform="translate(122.9058,248.9531)"
                 id="g3389"><path
                   style="fill:none;stroke:#ffffff;stroke-width:1;stroke-linecap:butt;stroke-linejoin:miter;stroke-miterlimit:4;stroke-opacity:1;stroke-dasharray:none"
                   d="M 0,0 C -19.110152,-14.742205 12.173807,-3.7835507 9.505,-20.609 27.6705,-39.555645 12.042271,-4.9452551 0.417,-0.122 0.18127108,-0.41330742 0.26048023,-0.03939743 0,0 z"
                   id="path3391"
                   inkscape:connector-curvature="0" /></g></g></g></g><g
           id="g3393"
           transform="translate(159.6411,282.3008)"><path
             style="fill:#e6b35a;fill-opacity:1;fill-rule:nonzero;stroke:none"
             d="M 0,0 C -18.064744,0.05894285 -52.261307,-30.033735 -16.821,-8.914 -3.548819,5.9775507 25.535617,-27.826106 6.768625,-21.432375 10.788422,-28.745032 11.238646,-27.840177 5.1852969,-41.632953 -1.5109465,-56.12238 -47.457598,-62.777059 -7.003,-55.712 c 17.969577,-5.818439 12.0930012,11.281774 31.818,24.015 3.640324,12.176997 -1.792337,27.4628271 -5.874,20.993 0.554519,2.3403402 -0.487121,2.6264611 -13.067,9.643 L 3.037125,-0.749875 0,0 z m 6.256,8.098 c -7.0879219,-8.12092337 -0.3536105,-6.0703983 0,0 z m 0.661,0.956 c -0.8988963,-1.0187487 -0.5529356,-1.1154232 0,0 z"
             id="path3395"
             inkscape:connector-curvature="0" /></g><g
           id="g3397"><g
             id="g3399" /><g
             id="g3405"><g
               clip-path="url(#clipPath3401)"
               id="g3407"
               style="opacity:0"><g
                 transform="translate(159.6411,282.3008)"
                 id="g3409"><path
                   style="fill:none;stroke:#ffffff;stroke-width:1.02600002;stroke-linecap:butt;stroke-linejoin:miter;stroke-miterlimit:4;stroke-opacity:1;stroke-dasharray:none"
                   d="M 0,0 C -18.064744,0.05894285 -52.261307,-30.033735 -16.821,-8.914 -3.548819,5.9775507 25.535617,-27.826106 6.768625,-21.432375 10.788422,-28.745032 11.238646,-27.840177 5.1852969,-41.632953 -1.5109465,-56.12238 -47.457598,-62.777059 -7.003,-55.712 c 17.969577,-5.818439 12.0930012,11.281774 31.818,24.015 3.640324,12.176997 -1.792337,27.4628271 -5.874,20.993 0.554519,2.3403402 -0.487121,2.6264611 -13.067,9.643 L 3.037125,-0.749875 0,0 z m 6.256,8.098 c -9.4449236,-12.9523693 0.476206,-3.7431123 0,0 z m 0.661,0.956 c -0.8988963,-1.0187487 -0.5529356,-1.1154232 0,0 z"
                   id="path3411"
                   inkscape:connector-curvature="0" /></g></g></g></g><g
           id="g3413"
           transform="translate(253.2012,229.2305)"><path
             style="fill:#e6b35a;fill-opacity:1;fill-rule:nonzero;stroke:none"
             d="M 0,0 -0.278,-0.383 0,0 z m -24.433,31.539 c -1.010133,-0.158845 1.785346,-0.30184 0,0 z M 1.269,44.902 C 23.080527,38.862478 8.4343894,13.165333 10.6,1.355 -5.2159112,-14.279195 8.5935815,4.499055 -12.70675,7.509 -14.873421,22.658881 -11.903664,38.524055 1.269,44.902 z m -11.8,8.707 C -0.18312225,48.688449 -29.109353,29.155283 -20.453,30.184 -17.766582,26.136437 -23.956881,12.173154 -20.314,6.621 1.0386417,-34.166612 31.875251,11.428408 22.82025,34.46425 40.691026,23.832417 -0.75896579,57.371064 -10.531,53.609 z"
             id="path3415"
             inkscape:connector-curvature="0" /></g><g
           id="g3417"><g
             id="g3419" /><g
             id="g3425"><g
               clip-path="url(#clipPath3421)"
               id="g3427"
               style="opacity:0"><g
                 transform="translate(253.2012,229.2305)"
                 id="g3429"><path
                   style="fill:none;stroke:#ffffff;stroke-width:0.90799999;stroke-linecap:butt;stroke-linejoin:miter;stroke-miterlimit:4;stroke-opacity:1;stroke-dasharray:none"
                   d="M 0,0 -0.278,-0.383 0,0 z m -24.433,31.539 c -1.010133,-0.158845 1.785346,-0.30184 0,0 z M 1.269,44.902 C 23.080527,38.862478 8.4343894,13.165333 10.6,1.355 -5.2159112,-14.279195 8.5935815,4.499055 -12.70675,7.509 -14.873421,22.658881 -11.903664,38.524055 1.269,44.902 z m -11.8,8.707 C -0.18312225,48.688449 -29.109353,29.155283 -20.453,30.184 -17.766582,26.136437 -23.956881,12.173154 -20.314,6.621 1.0386417,-34.166612 31.875251,11.428408 22.82025,34.46425 41.873996,23.122957 -1.2995981,57.706655 -10.531,53.609 z"
                   id="path3431"
                   inkscape:connector-curvature="0" /></g></g></g></g><g
           id="g3433"
           transform="translate(296.7661,216.4932)"><path
             style="fill:#e6b35a;fill-opacity:1;fill-rule:nonzero;stroke:none"
             d="m 0,0 c -0.03473313,-0.09629907 0.05619938,0.02273313 0,0 z m 12.998,38.63 c 0.15993,0.0448 -0.08906,-0.09904 0,0 z m -31.887,26.674 c 1.53771,-0.04261 0.267475,0.133664 0,0 z m 6.395,6.151 c 7.9927715,-18.882194 -3.428472,4.201985 -5.127,-6.1 -6.80599,-0.92283 -1.037397,-0.138521 4.362,-0.956 C -12.28835,57.319384 -17.40955,22.537506 -1.2669832,2.9078023 4.3114748,9.7767965 17.83053,24.953545 23.98,1.094 45.977992,14.915951 29.118877,57.311007 37.952,64.644 9.5121963,71.35084 33.817774,27.434868 27.509,22.572 33.658726,5.9681718 3.7319689,23.677098 14.458,29.802 14.348304,35.692374 12.188116,39.146481 15.136,40.228 9.2805413,43.69075 29.535344,77.241703 4.327,63.948 5.9707224,48.469789 6.4722681,29.328429 7.351,19.792 -8.6337721,6.6500185 -6.9494078,25.660648 -3.91,36.753 c -7.388976,17.563687 12.1111662,11.396671 0.278,25.301 2.897469,-24.619784 -5.6333064,17.508399 -8.341,9.175 l -0.521,0.226 z"
             id="path3435"
             inkscape:connector-curvature="0" /></g><g
           id="g3437"><g
             id="g3439" /><g
             id="g3445"><g
               clip-path="url(#clipPath3441)"
               id="g3447"
               style="opacity:0"><g
                 transform="translate(296.7661,216.4932)"
                 id="g3449"><path
                   style="fill:none;stroke:#ffffff;stroke-width:1.07599998;stroke-linecap:butt;stroke-linejoin:miter;stroke-miterlimit:4;stroke-opacity:1;stroke-dasharray:none"
                   d="m 0,0 c -0.03473313,-0.09629907 0.05619938,0.02273313 0,0 z m 12.998,38.63 c 0.15993,0.0448 -0.08906,-0.09904 0,0 z m -31.887,26.674 c 1.53771,-0.04261 0.267475,0.133664 0,0 z m 6.395,6.151 c 7.9927715,-18.882194 -3.428472,4.201985 -5.127,-6.1 -6.80599,-0.92283 -1.037397,-0.138521 4.362,-0.956 C -12.28835,57.319384 -17.40955,22.537506 -1.2669832,2.9078023 4.3114748,9.7767965 17.83053,24.953545 23.98,1.094 45.977992,14.915951 29.118877,57.311007 37.952,64.644 9.5121963,71.35084 33.817774,27.434868 27.509,22.572 33.658726,5.9681718 3.7319689,23.677098 14.458,29.802 14.348304,35.692374 12.188116,39.146481 15.136,40.228 9.2805413,43.69075 29.535344,77.241703 4.327,63.948 5.9707224,48.469789 6.4722681,29.328429 7.351,19.792 -8.6337721,6.6500185 -6.9494078,25.660648 -3.91,36.753 c -7.388976,17.563687 12.1111662,11.396671 0.278,25.301 3.48596505,-23.077189 -3.1066811,7.37322 -8.862,9.401 z"
                   id="path3451"
                   inkscape:connector-curvature="0" /></g></g></g></g><g
           id="g3453"
           transform="translate(356.3745,216.2666)"><path
             style="fill:#e6b35a;fill-opacity:1;fill-rule:nonzero;stroke:none"
             d="M 0,0 -0.295,-0.453 0,0 z M -0.139,66.416 C -29.259126,52.205441 -13.480356,20.164156 0.157,34.615 25.885139,36.561337 -13.674213,-21.219667 11.726547,11.620125 28.363857,33.206387 15.144179,48.589442 -5.5246875,45.948984 -6.8617728,53.113861 -3.6548592,60.39328 -0.139,66.416 z"
             id="path3455"
             inkscape:connector-curvature="0" /></g><g
           id="g3457"><g
             id="g3459" /><g
             id="g3465"><g
               clip-path="url(#clipPath3461)"
               id="g3467"
               style="opacity:0"><g
                 transform="translate(356.3745,216.2666)"
                 id="g3469"><path
                   style="fill:none;stroke:#ffffff;stroke-width:1.11300004;stroke-linecap:butt;stroke-linejoin:miter;stroke-miterlimit:4;stroke-opacity:1;stroke-dasharray:none"
                   d="M 0,0 -0.295,-0.453 0,0 z M -0.139,66.416 C -29.259126,52.205441 -13.480356,20.164156 0.157,34.615 25.885139,36.561337 -13.674213,-21.219667 11.726547,11.620125 28.363857,33.206387 15.144179,48.589442 -5.5246875,45.948984 -6.8617728,53.113861 -3.6548592,60.39328 -0.139,66.416 z"
                   id="path3471"
                   inkscape:connector-curvature="0" /></g></g></g></g><g
           id="g3473"
           transform="translate(344.3506,235.0635)"><path
             style="fill:#e6b35a;fill-opacity:1;fill-rule:nonzero;stroke:none"
             d="M 0,0 C -7.6411181,-7.1063733 22.811482,-33.605918 13.35,-8.604 9.2157317,-5.4926688 5.6745874,-0.34161624 0,0 z"
             id="path3475"
             inkscape:connector-curvature="0" /></g><g
           id="g3477"><g
             id="g3479" /><g
             id="g3485"><g
               clip-path="url(#clipPath3481)"
               id="g3487"
               style="opacity:0"><g
                 transform="translate(344.3506,235.0635)"
                 id="g3489"><path
                   style="fill:none;stroke:#ffffff;stroke-width:1.11300004;stroke-linecap:butt;stroke-linejoin:miter;stroke-miterlimit:4;stroke-opacity:1;stroke-dasharray:none"
                   d="M 0,0 C -7.6411181,-7.1063733 22.811482,-33.605918 13.35,-8.604 9.2157317,-5.4926688 5.6745874,-0.34161624 0,0 z"
                   id="path3491"
                   inkscape:connector-curvature="0" /></g></g></g></g><g
           id="g3493"
           transform="translate(343.9702,235.9873)"><path
             style="fill:#e6b35a;fill-opacity:1;fill-rule:nonzero;stroke:none"
             d="M 0,0 C -25.114203,-17.47378 0.55389093,-11.405872 0,0 z"
             id="path3495"
             inkscape:connector-curvature="0" /></g><g
           id="g3497"><g
             id="g3499" /><g
             id="g3505"><g
               clip-path="url(#clipPath3501)"
               id="g3507"
               style="opacity:0"><g
                 transform="translate(343.9702,235.9873)"
                 id="g3509"><path
                   style="fill:none;stroke:#ffffff;stroke-width:1.11300004;stroke-linecap:butt;stroke-linejoin:miter;stroke-miterlimit:4;stroke-opacity:1;stroke-dasharray:none"
                   d="M 0,0 C -25.114203,-17.47378 0.55389093,-11.405872 0,0 z"
                   id="path3511"
                   inkscape:connector-curvature="0" /></g></g></g></g><g
           id="g3513"
           transform="translate(356.1831,282.2314)"><path
             style="fill:#e6b35a;fill-opacity:1;fill-rule:nonzero;stroke:none"
             d="m 0,0 c -9.8856678,-10.798825 -5.6108813,-10.724936 2.711,-12.86 -0.2733793,0.305362 13.337737,-1.183904 18.33,-4.904625 C 22.552239,-3.3168294 6.18055,-11.459098 0,0 z"
             id="path3515"
             inkscape:connector-curvature="0" /></g><g
           id="g3517"><g
             id="g3519" /><g
             id="g3525"><g
               clip-path="url(#clipPath3521)"
               id="g3527"
               style="opacity:0"><g
                 transform="translate(356.1831,282.2314)"
                 id="g3529"><path
                   style="fill:none;stroke:#ffffff;stroke-width:1.11300004;stroke-linecap:butt;stroke-linejoin:miter;stroke-miterlimit:4;stroke-opacity:1;stroke-dasharray:none"
                   d="m 0,0 c -9.8856678,-10.798825 -5.6108813,-10.724936 2.711,-12.86 -0.2733793,0.305362 13.337737,-1.183904 18.33,-4.904625 C 22.552239,-3.3168294 6.18055,-11.459098 0,0 z"
                   id="path3531"
                   inkscape:connector-curvature="0" /></g></g></g></g><g
           id="g3533"
           transform="translate(372.2861,270.8398)"><path
             style="fill:#e6b35a;fill-opacity:1;fill-rule:nonzero;stroke:none"
             d="M 0,0 C 8.526534,-17.020418 2.9343242,24.67567 3.467,2.029 2.4557187,1.6023142 2.3429608,-3.7880048 0,0 z"
             id="path3535"
             inkscape:connector-curvature="0" /></g><g
           id="g3537"><g
             id="g3539" /><g
             id="g3545"><g
               clip-path="url(#clipPath3541)"
               id="g3547"
               style="opacity:0"><g
                 transform="translate(372.2861,270.8398)"
                 id="g3549"><path
                   style="fill:none;stroke:#ffffff;stroke-width:1.11300004;stroke-linecap:butt;stroke-linejoin:miter;stroke-miterlimit:4;stroke-opacity:1;stroke-dasharray:none"
                   d="M 0,0 C 8.526534,-17.020418 2.9343242,24.67567 3.467,2.029 2.4557187,1.6023142 2.3429608,-3.7880048 0,0 z"
                   id="path3551"
                   inkscape:connector-curvature="0" /></g></g></g></g><g
           id="g3553"
           transform="translate(391.6641,253.2969)"><path
             style="fill:#e6b35a;fill-opacity:1;fill-rule:nonzero;stroke:none"
             d="m 0,0 c 8.1017905,-8.8984255 -10.113185,-5.1569649 0,0 z m 25.354,1.426 c 0.232259,-0.55460825 0.153091,-0.80461554 0,0 z m -19.479,-28.62 0.034,0 -0.034,0 z m 4.152,54.756 C -4.7652788,17.867133 -6.5248815,8.4744147 -15.951,4.259 c 12.8075783,-0.5053974 4.739805,-25.288876 6.393,-26.9 7.5895549,-3.800524 12.9277029,-17.662826 21.079,-16.041 19.384221,24.978045 22.18169,8.209844 20.906,5.752 7.601282,15.204891 -17.997214,13.744538 -13.241,20.002 15.430105,-7.514076 -9.9097981,-13.209244 -3.303,-13.119 -7.8684323,-6.38001 -7.2749482,-4.452257 -16.213,2.432 -5.7616696,6.797692 -5.1209616,23.09312244 -2.415,30.028 C 4.6816103,16.228835 25.918784,28.015947 25.389,5.162 25.004971,-1.8249837 16.241333,7.4023662 -1.112,1.93 -12.172123,-8.8124531 13.463419,0.98428896 11.018,-1.858 22.287577,-3.2459019 39.444316,-6.1615268 34.964,8.516 39.011407,21.342736 33.397916,11.828918 24.99425,20.60275 19.444015,21.718242 15.420681,26.052165 10.027,27.562 z"
             id="path3555"
             inkscape:connector-curvature="0" /></g><g
           id="g3557"><g
             id="g3559" /><g
             id="g3565"><g
               clip-path="url(#clipPath3561)"
               id="g3567"
               style="opacity:0"><g
                 transform="translate(391.6641,253.2969)"
                 id="g3569"><path
                   style="fill:none;stroke:#ffffff;stroke-width:1.11000001;stroke-linecap:butt;stroke-linejoin:miter;stroke-miterlimit:4;stroke-opacity:1;stroke-dasharray:none"
                   d="m 0,0 c 8.1017905,-8.8984255 -10.113185,-5.1569649 0,0 z m 25.354,1.426 c 0.221845,-0.3183547 0.210631,-1.45740423 0,0 z m -19.479,-28.62 0.034,0 -0.034,0 z m 4.152,54.756 C -4.7652788,17.867133 -6.5248815,8.4744147 -15.951,4.259 c 12.8075783,-0.5053974 4.739805,-25.288876 6.393,-26.9 7.5895549,-3.800524 12.9277029,-17.662826 21.079,-16.041 19.384221,24.978045 22.18169,8.209844 20.906,5.752 7.601282,15.204891 -17.997214,13.744538 -13.241,20.002 15.430105,-7.514076 -9.9097981,-13.209244 -3.303,-13.119 -7.8684323,-6.38001 -7.2749482,-4.452257 -16.213,2.432 -5.7616696,6.797692 -5.1209616,23.09312244 -2.415,30.028 C 4.6816103,16.228835 25.918784,28.015947 25.389,5.162 25.004971,-1.8249837 16.241333,7.4023662 -1.112,1.93 -12.172123,-8.8124531 13.463419,0.98428896 11.018,-1.858 22.287577,-3.2459019 39.444316,-6.1615268 34.964,8.516 39.011407,21.342736 33.397916,11.828918 24.99425,20.60275 19.444015,21.718242 15.420681,26.052165 10.027,27.562 z"
                   id="path3571"
                   inkscape:connector-curvature="0" /></g></g></g></g><g
           id="g3573"
           transform="translate(427.0967,209.126)"><path
             style="fill:#e6b35a;fill-opacity:1;fill-rule:nonzero;stroke:none"
             d="M 0,0 0.018,-0.036 0,0 z M 2.225,13.71 2.138,13.675 2.225,13.71 z m 23.65,-0.522 0.452,-0.07 -0.452,0.07 z M 22.626,78.701 C 14.941082,63.599554 -23.304126,79.29856 2.563625,69.59675 9.1029037,57.915982 11.139629,17.573597 1.687,9.296 c -6.0526411,-20.284998 1.9000037,11.425597 16.02,4.517 18.476997,-1.782225 -18.0082534,1.486733 0.583781,18.142516 2.1082,15.780582 -2.945738,8.780084 2.372219,24.728484 0.140332,7.35221 0.386942,14.80757 1.963,22.017 z"
             id="path3575"
             inkscape:connector-curvature="0" /></g><g
           id="g3577"><g
             id="g3579" /><g
             id="g3585"><g
               clip-path="url(#clipPath3581)"
               id="g3587"
               style="opacity:0"><g
                 transform="translate(427.0967,209.126)"
                 id="g3589"><path
                   style="fill:none;stroke:#ffffff;stroke-width:1;stroke-linecap:butt;stroke-linejoin:miter;stroke-miterlimit:4;stroke-opacity:1;stroke-dasharray:none"
                   d="M 0,0 0.018,-0.036 0,0 z M 2.225,13.71 2.138,13.675 2.225,13.71 z m 23.65,-0.522 0.452,-0.07 -0.452,0.07 z M 22.626,78.701 C 14.941082,63.599554 -23.304126,79.29856 2.563625,69.59675 9.1029037,57.915982 11.139629,17.573597 1.687,9.296 c -6.0526411,-20.284998 1.9000037,11.425597 16.02,4.517 18.476997,-1.782225 -18.0082534,1.486733 0.583781,18.142516 2.1082,15.780582 -2.945738,8.780084 2.372219,24.728484 0.139624,7.344836 0.38796,14.816145 1.963,22.017 z"
                   id="path3591"
                   inkscape:connector-curvature="0" /></g></g></g></g><g
           id="g3593"
           transform="translate(445.7939,278.3906)"><path
             style="fill:#e6b35a;fill-opacity:1;fill-rule:nonzero;stroke:none"
             d="m 0,0 c -0.82622967,2.9560775 -0.01626151,3.3842184 0,0 z m 0.175,-0.156 c 0.20290696,0.24718224 -0.5649692,0.18740961 0,0 z m 13.971,5.613 c -30.929067,-6.5944685 8.443487,-9.7489358 3.615,-10.288 8.264522,-0.4233113 -4.752819,-2.4256158 1.51,-5.596 -0.03973,-12.689297 31.989914,12.4896624 -5.125,15.884 z"
             id="path3595"
             inkscape:connector-curvature="0" /></g><g
           id="g3597"><g
             id="g3599" /><g
             id="g3605"><g
               clip-path="url(#clipPath3601)"
               id="g3607"
               style="opacity:0"><g
                 transform="translate(445.7939,278.3906)"
                 id="g3609"><path
                   style="fill:none;stroke:#ffffff;stroke-width:1;stroke-linecap:butt;stroke-linejoin:miter;stroke-miterlimit:4;stroke-opacity:1;stroke-dasharray:none"
                   d="m 0,0 c -0.82622967,2.9560775 -0.01626151,3.3842184 0,0 z m 0.175,-0.156 c 0.20290696,0.24718224 -0.5649692,0.18740961 0,0 z m 13.971,5.613 c -30.929067,-6.5944685 8.443487,-9.7489358 3.615,-10.288 8.264522,-0.4233113 -4.752819,-2.4256158 1.51,-5.596 -0.77636,-12.987244 32.356504,13.547242 -5.125,15.884 z"
                   id="path3611"
                   inkscape:connector-curvature="0" /></g></g></g></g><g
           id="g3613"
           transform="translate(495.7373,290.2432)"><path
             style="fill:#e6b35a;fill-opacity:1;fill-rule:nonzero;stroke:none"
             d="m 0,0 c -7.6086908,-12.797932 -38.996717,-41.814741 -14.74125,-28.204375 9.934521,-10.878048 -3.060063,-55.070148 -8.19675,-49.612625 8.286603,11.640115 31.7244198,10.214306 23.391,23.164 -5.1835814,1.482868 1.2119629,12.351539 4.118,34.129 C 0.59727423,-14.745246 8.1319812,-3.3148643 0,0 z"
             id="path3615"
             inkscape:connector-curvature="0" /></g><g
           id="g3617"><g
             id="g3619" /><g
             id="g3625"><g
               clip-path="url(#clipPath3621)"
               id="g3627"
               style="opacity:0"><g
                 transform="translate(495.7373,290.2432)"
                 id="g3629"><path
                   style="fill:none;stroke:#ffffff;stroke-width:1;stroke-linecap:butt;stroke-linejoin:miter;stroke-miterlimit:4;stroke-opacity:1;stroke-dasharray:none"
                   d="m 0,0 c -7.6086908,-12.797932 -38.996717,-41.814741 -14.74125,-28.204375 9.934521,-10.878048 -3.060063,-55.070148 -8.19675,-49.612625 8.286603,11.640115 31.7244198,10.214306 23.391,23.164 -5.1835814,1.482868 1.2119629,12.351539 4.118,34.129 C 0.59727423,-14.745246 8.1319812,-3.3148643 0,0 z"
                   id="path3631"
                   inkscape:connector-curvature="0" /></g></g></g></g><g
           id="g3633"
           transform="translate(495.9092,292.9756)"><path
             style="fill:#6488c5;fill-opacity:1;fill-rule:nonzero;stroke:none"
             d="M 0,0 C -17.815781,11.403086 8.5548645,29.07469 4.74525,27.664625 8.5097756,45.106505 5.8628237,22.179073 4.38775,16.72025 -3.2466148,14.419576 16.795566,6.4948453 0,0 z"
             id="path3635"
             inkscape:connector-curvature="0" /></g><g
           id="g3637"><g
             id="g3639" /><g
             id="g3645"><g
               clip-path="url(#clipPath3641)"
               id="g3647"
               style="opacity:0"><g
                 transform="translate(495.9092,292.9756)"
                 id="g3649"><path
                   style="fill:none;stroke:#ffffff;stroke-width:1;stroke-linecap:butt;stroke-linejoin:miter;stroke-miterlimit:4;stroke-opacity:1;stroke-dasharray:none"
                   d="M 0,0 C -17.815781,11.403086 8.5548645,29.07469 4.74525,27.664625 8.5097756,45.106505 5.8628237,22.179073 4.38775,16.72025 -3.2466148,14.419576 16.795566,6.4948453 0,0 z"
                   id="path3651"
                   inkscape:connector-curvature="0" /></g></g></g></g><g
           id="g3653"
           transform="translate(494.0762,294.8164)"><path
             style="fill:#c8dceb;fill-opacity:1;fill-rule:nonzero;stroke:none"
             d="M 0,0 C -9.7345503,5.8132478 6.9775013,24.624145 2.777,13.354 -4.4065641,5.4325049 16.406075,2.4052161 0,0 z"
             id="path3655"
             inkscape:connector-curvature="0" /></g><g
           id="g3657"><g
             id="g3659" /><g
             id="g3665"><g
               clip-path="url(#clipPath3661)"
               id="g3667"
               style="opacity:0"><g
                 transform="translate(494.0762,294.8164)"
                 id="g3669"><path
                   style="fill:none;stroke:#ffffff;stroke-width:1;stroke-linecap:butt;stroke-linejoin:miter;stroke-miterlimit:4;stroke-opacity:1;stroke-dasharray:none"
                   d="M 0,0 C -9.7345503,5.8132478 6.9775013,24.624145 2.777,13.354 -4.4065641,5.4325049 16.406075,2.4052161 0,0 z"
                   id="path3671"
                   inkscape:connector-curvature="0" /></g></g></g></g><g
           id="g3673"
           transform="translate(527.8682,269.1465)"><path
             style="fill:#e6b35a;fill-opacity:1;fill-rule:nonzero;stroke:none"
             d="m 0,0 c 17.03451,-10.779172 -17.786373,-14.572633 0,0 z m -32.305,-63.896 c -0.806878,-0.694423 0.037,-0.323568 0,0 z m 53.523,49.819 -0.018,-0.156 0.018,0.156 z M 10.531,57.988 c -19.0293216,6.240246 -31.986509,-24.932593 -25.754,-26.9 -7.084508,19.24165 16.6670788,17.447172 6.534,8.896 -8.553661,-1.577976 14.1672283,-45.697839 -8.116,-43.13 32.028726,-3.406291 -16.578936,-59.999022 -12.179,-57.797 19.6379007,17.109617 28.72638535,18.380732 23.77,23.216 1.4897987,27.162818 29.220376,28.3370049 27.11,29.89 4.832679,8.9562441 3.10137,-3.198041 -1.113,11.954 -22.2939983,-32.193678 -37.472788,67.124112 0,34.756 C 27.314891,26.485633 3.3868154,0.16252867 25.929,24.137 24.993503,34.747775 29.393973,57.165014 10.531,57.988 z"
             id="path3675"
             inkscape:connector-curvature="0" /></g><g
           id="g3677"><g
             id="g3679" /><g
             id="g3685"><g
               clip-path="url(#clipPath3681)"
               id="g3687"
               style="opacity:0"><g
                 transform="translate(527.8682,269.1465)"
                 id="g3689"><path
                   style="fill:none;stroke:#ffffff;stroke-width:1;stroke-linecap:butt;stroke-linejoin:miter;stroke-miterlimit:4;stroke-opacity:1;stroke-dasharray:none"
                   d="m 0,0 c 17.03451,-10.779172 -17.786373,-14.572633 0,0 z m -32.305,-63.896 c -0.806878,-0.694423 0.037,-0.323568 0,0 z m 53.523,49.819 -0.018,-0.156 0.018,0.156 z M 10.531,57.988 c -19.0293216,6.240246 -31.986509,-24.932593 -25.754,-26.9 -7.084508,19.24165 16.6670788,17.447172 6.534,8.896 -8.553661,-1.577976 14.1672283,-45.697839 -8.116,-43.13 32.028726,-3.406291 -16.578936,-59.999022 -12.179,-57.797 19.6379007,17.109617 28.72638535,18.380732 23.77,23.216 1.4897987,27.162818 29.220376,28.3370049 27.11,29.89 4.832679,8.9562441 3.10137,-3.198041 -1.113,11.954 -22.2939983,-32.193678 -37.472788,67.124112 0,34.756 C 27.314891,26.485633 3.3868154,0.16252867 25.929,24.137 24.993503,34.747775 29.393973,57.165014 10.531,57.988 z"
                   id="path3691"
                   inkscape:connector-curvature="0" /></g></g></g></g><g
           id="g3693"
           transform="translate(510.6826,271.1611)"><path
             style="fill:#e6b35a;fill-opacity:1;fill-rule:nonzero;stroke:none"
             d="M 0,0 C -11.96306,-10.74857 3.0685314,-17.598531 -0.817,-7.993 3.635094,-2.704723 -2.2851122,-11.306681 0,0 z"
             id="path3695"
             inkscape:connector-curvature="0" /></g><g
           id="g3697"><g
             id="g3699" /><g
             id="g3705"><g
               clip-path="url(#clipPath3701)"
               id="g3707"
               style="opacity:0"><g
                 transform="translate(510.6826,271.1611)"
                 id="g3709"><path
                   style="fill:none;stroke:#ffffff;stroke-width:1;stroke-linecap:butt;stroke-linejoin:miter;stroke-miterlimit:4;stroke-opacity:1;stroke-dasharray:none"
                   d="M 0,0 C -11.96306,-10.74857 3.0685314,-17.598531 -0.817,-7.993 3.635094,-2.704723 -2.2851122,-11.306681 0,0 z"
                   id="path3711"
                   inkscape:connector-curvature="0" /></g></g></g></g><g
           id="g3713"
           transform="translate(524.2959,264.0234)"><path
             style="fill:#e6b35a;fill-opacity:1;fill-rule:nonzero;stroke:none"
             d="M 0,0 C 5.9231532,11.111436 7.5669385,-11.852962 0,0 z"
             id="path3715"
             inkscape:connector-curvature="0" /></g><g
           id="g3717"><g
             id="g3719" /><g
             id="g3725"><g
               clip-path="url(#clipPath3721)"
               id="g3727"
               style="opacity:0"><g
                 transform="translate(524.2959,264.0234)"
                 id="g3729"><path
                   style="fill:none;stroke:#ffffff;stroke-width:1;stroke-linecap:butt;stroke-linejoin:miter;stroke-miterlimit:4;stroke-opacity:1;stroke-dasharray:none"
                   d="M 0,0 C 5.9231532,11.111436 7.5669385,-11.852962 0,0 z"
                   id="path3731"
                   inkscape:connector-curvature="0" /></g></g></g></g><g
           id="g3733"
           transform="translate(562.3623,265.2197)"><path
             style="fill:#e6b35a;fill-opacity:1;fill-rule:nonzero;stroke:none"
             d="m 0,0 c 0.12405666,0.02545792 -0.13137446,-0.09262639 0,0 z m 37.9,14.196 c 0.755132,0.04304 -0.229334,-0.167765 0,0 z M -4.293,-75.888 c -3.5932941,0.166401 -2.635652,-3.756598 0,0 z m 28.117,42.957 0.261,0.575 -0.261,-0.575 z M 21.514,2.744 21.219,3.005 21.514,2.744 z M -0.816,40.645 C -9.0572312,17.767565 -13.512908,15.53779 -1.737,-0.782 -5.2278301,-17.537769 20.484224,-17.915865 -1.2443711,-36.131955 -11.230037,-49.830501 -28.294537,-78.141541 -3.632,-51.768 13.613093,-35.200438 -45.387579,-100.37043 -7.2485,-81.517297 4.0176881,-71.391192 -29.316724,-91.521059 -12.761938,-70.550891 0.57420789,-49.935001 42.146956,-22.825979 4.52,-40.977 21.104623,-24.574476 34.984997,7.6543402 41.984,16.733 34.358898,11.844657 72.663096,44.373135 44.955,35.015 62.509661,33.438447 14.382565,27.334637 27.989203,7.2103438 19.734799,-1.124273 14.910006,-25.356108 5.1719688,1.7711406 0.05910844,18.796378 -5.9268497,21.167185 -1.29175,31.5355 c 0.2303225,3.031492 0.085951,6.0901 0.47575,9.1095 z m 0.26,1.234 c -1.1839962,-2.651729 0.51850327,-0.606153 0,0 z m 0,0.381 0,-0.381 0,0.381 z"
             id="path3735"
             inkscape:connector-curvature="0" /></g><g
           id="g3737"><g
             id="g3739" /><g
             id="g3745"><g
               clip-path="url(#clipPath3741)"
               id="g3747"
               style="opacity:0"><g
                 transform="translate(562.3623,265.2197)"
                 id="g3749"><path
                   style="fill:none;stroke:#ffffff;stroke-width:1;stroke-linecap:butt;stroke-linejoin:miter;stroke-miterlimit:4;stroke-opacity:1;stroke-dasharray:none"
                   d="m 0,0 c 0.12405666,0.02545792 -0.13137446,-0.09262639 0,0 z m 37.9,14.196 c 0.755132,0.04304 -0.229334,-0.167765 0,0 z M -4.293,-75.888 c -3.5932941,0.166401 -2.635652,-3.756598 0,0 z m 28.117,42.957 0.261,0.575 -0.261,-0.575 z M 21.514,2.744 21.219,3.005 21.514,2.744 z M -0.816,40.645 C -9.0572312,17.767565 -13.512908,15.53779 -1.737,-0.782 -5.2278301,-17.537769 20.484224,-17.915865 -1.2443711,-36.131955 -11.230037,-49.830501 -28.294537,-78.141541 -3.632,-51.768 13.613093,-35.200438 -45.387579,-100.37043 -7.2485,-81.517297 4.0176881,-71.391192 -29.316724,-91.521059 -12.761938,-70.550891 0.57420789,-49.935001 42.146956,-22.825979 4.52,-40.977 21.104623,-24.574476 34.984997,7.6543402 41.984,16.733 34.358898,11.844657 72.663096,44.373135 44.955,35.015 62.509661,33.438447 14.382565,27.334637 27.989203,7.2103438 19.734799,-1.124273 14.910006,-25.356108 5.1719688,1.7711406 0.05910844,18.796378 -5.9268497,21.167185 -1.29175,31.5355 c 0.2303225,3.031492 0.085951,6.0901 0.47575,9.1095 z m 0.26,1.234 c -1.1839962,-2.651729 0.51850327,-0.606153 0,0 z m 0,0.381 0,-0.381 0,0.381 z"
                   id="path3751"
                   inkscape:connector-curvature="0" /></g></g></g></g></g></g></g></svg>