<?xml version="1.0" encoding="UTF-8" standalone="no"?>
<!-- Created with Inkscape (http://www.inkscape.org/) -->

<svg
   xmlns:dc="http://purl.org/dc/elements/1.1/"
   xmlns:cc="http://creativecommons.org/ns#"
   xmlns:rdf="http://www.w3.org/1999/02/22-rdf-syntax-ns#"
   xmlns:svg="http://www.w3.org/2000/svg"
   xmlns="http://www.w3.org/2000/svg"
   xmlns:sodipodi="http://sodipodi.sourceforge.net/DTD/sodipodi-0.dtd"
   xmlns:inkscape="http://www.inkscape.org/namespaces/inkscape"
   sodipodi:docname="grunt-logo2.svg"
   inkscape:version="0.48.5 r10040"
   version="1.1"
   id="svg3952"
   height="64"
   width="55.3125"
   inkscape:export-filename="/home/vvo/Dev/www.berlisco.com/svg/npm.png"
   inkscape:export-xdpi="405.67267"
   inkscape:export-ydpi="405.67267">
  <sodipodi:namedview
     id="base"
     pagecolor="#ffffff"
     bordercolor="#666666"
     borderopacity="1.0"
     inkscape:pageopacity="0.0"
     inkscape:pageshadow="2"
     inkscape:zoom="5.8201637"
     inkscape:cx="34.806384"
     inkscape:cy="48.086695"
     inkscape:current-layer="layer1"
     showgrid="true"
     inkscape:grid-bbox="true"
     inkscape:document-units="px"
     fit-margin-top="0"
     fit-margin-left="0"
     fit-margin-right="0"
     fit-margin-bottom="0"
     inkscape:window-width="679"
     inkscape:window-height="722"
     inkscape:window-x="683"
     inkscape:window-y="20"
     inkscape:window-maximized="0" />
  <defs
     id="defs3954">
    <marker
       inkscape:stockid="Arrow1Lend"
       orient="auto"
       refY="0"
       refX="0"
       id="Arrow1Lend"
       style="overflow:visible">
      <path
         id="path7021"
         d="M 0,0 5,-5 -12.5,0 5,5 0,0 z"
         style="fill-rule:evenodd;stroke:#000000;stroke-width:1pt"
         transform="matrix(-0.8,0,0,-0.8,-10,0)"
         inkscape:connector-curvature="0" />
    </marker>
    <marker
       inkscape:stockid="Arrow1Lstart"
       orient="auto"
       refY="0"
       refX="0"
       id="Arrow1Lstart"
       style="overflow:visible">
      <path
         id="path7018"
         d="M 0,0 5,-5 -12.5,0 5,5 0,0 z"
         style="fill-rule:evenodd;stroke:#000000;stroke-width:1pt"
         transform="matrix(0.8,0,0,0.8,10,0)"
         inkscape:connector-curvature="0" />
    </marker>
    <inkscape:perspective
       id="perspective6081"
       inkscape:persp3d-origin="21.743603 : -111.45338 : 1"
       inkscape:vp_z="28.167639 : -16.128829 : 0"
       inkscape:vp_y="-551.1378 : -320.82768 : 0"
       inkscape:vp_x="-0.43783376 : 122.67566 : 0"
       sodipodi:type="inkscape:persp3d" />
    <inkscape:perspective
       id="perspective6081-5"
       inkscape:persp3d-origin="104.21967 : -92.749426 : 1"
       inkscape:vp_z="29.379823 : -16.128829 : 0"
       inkscape:vp_y="-574.85582 : -320.82768 : 0"
       inkscape:vp_x="-0.45667578 : 122.67566 : 0"
       sodipodi:type="inkscape:persp3d" />
  </defs>
  <metadata
     id="metadata3957">
    <rdf:RDF>
      <cc:Work
         rdf:about="">
        <dc:format>image/svg+xml</dc:format>
        <dc:type
           rdf:resource="http://purl.org/dc/dcmitype/StillImage" />
        <dc:title></dc:title>
      </cc:Work>
    </rdf:RDF>
  </metadata>
  <g
     transform="translate(-31.051532,-29.794647)"
     style="display:none"
     inkscape:label="cut me"
     id="layer2"
     inkscape:groupmode="layer">
    <path
       inkscape:connector-curvature="0"
       id="rect5002-1"
       d="m -36.288971,31.185788 0,63 55.499997,0 0,-63 -27.7187501,0 27.5625101,15.688477 0,31.499998 -27.6562601,15.750004 -27.6562439,-15.750004 0,-31.499998 27.5624939,-15.688477 -27.5937469,0 z"
       style="fill:#0000ff;fill-opacity:1;fill-rule:nonzero;stroke:none;display:inline" />
  </g>
  <g
     style="display:inline"
     transform="translate(29.235641,37.651977)"
     inkscape:groupmode="layer"
     inkscape:label="Layer 1"
     id="layer1">
    <path
       style="fill:#463014;fill-opacity:1;fill-rule:nonzero"
       d="m -1.5793909,-37.651977 -27.6562501,16 0,32 27.6562501,16 27.6562499,-16 0,-32 -27.6562499,-16 z m 0,2.5 25.4999999,14.75 0,29.4999996 L -1.5793909,23.848023 -27.079391,9.0980226 l 0,-29.4999996 25.5000001,-14.75 z"
       id="path3960-2"
       inkscape:connector-curvature="0" />
    <path
       sodipodi:type="arc"
       style="fill:#463014;fill-opacity:1;fill-rule:nonzero;stroke:#000000;stroke-width:0;stroke-linecap:square;stroke-linejoin:miter;stroke-miterlimit:1.89999998;stroke-opacity:1;stroke-dasharray:none"
       id="path9078"
       sodipodi:cx="27.812792"
       sodipodi:cy="61.315369"
       sodipodi:rx="0.53692645"
       sodipodi:ry="0.53692645"
       d="m 28.349718,61.315369 a 0.53692645,0.53692645 0 1 1 -1.073853,0 0.53692645,0.53692645 0 1 1 1.073853,0 z"
       transform="matrix(7.4000004,0,0,5.4800002,-207.38845,-314.06304)" />
    <g
       transform="matrix(0.15468143,0,0,0.15468143,-28.816104,-29.276825)"
       id="g5930">
      <path
         inkscape:connector-curvature="0"
         id="path5621"
         d="m 67.892,81.419 c 1.880162,13.297962 11.409374,28.29598 2.248482,40.69657 -8.775437,10.7805 -14.977813,25.92482 -5.292835,38.34225 8.902363,13.72135 30.734016,14.26939 34.1334,32.73279 6.218443,17.83841 -0.685082,36.19177 -4.178834,53.69393 -0.115102,19.80755 -0.661097,42.38686 12.605527,58.49156 12.07026,8.24819 25.73588,13.96673 40.01376,16.952 20.33337,6.10649 43.08088,11.27368 63.16497,1.42998 11.62966,-9.96785 29.14882,-5.85994 38.6122,-19.01312 8.98124,-17.73908 9.75385,-38.43863 11.65296,-57.91666 3.16458,-21.91187 -7.52071,-44.41452 0.65848,-65.70685 7.72835,-15.10406 34.27798,-16.02184 35.84189,-34.95745 -5.21282,-12.6621 -20.1621,-19.34898 -17.20965,-34.87479 C 276.07944,97.447807 296.96672,90.233935 291.25242,76.589807 282.0934,64.315585 265.61551,65.422633 252.07043,67.149261 240.30205,65.64693 231.40089,52.414277 219.01091,49.502936 182.23942,32.068909 136.46445,40.912904 106.404,67.487 93.470109,62.772778 79.116474,66.545333 67.458682,72.18493 c -1.048217,3.003896 0.0869,6.214178 0.433318,9.23407 z"
         style="fill:#fba919" />
      <path
         inkscape:connector-curvature="0"
         id="path5623"
         d="m 142.775,203.437 c -9.13628,14.54889 -19.63826,28.65408 -28.15036,43.33225 8.7121,5.46806 14.44052,0.57275 15.57598,-8.20395 4.19146,-11.70943 8.38292,-23.41887 12.57438,-35.1283 z"
         style="fill:#e78724" />
      <path
         inkscape:connector-curvature="0"
         id="path5625"
         d="m 150.502,151.989 c -3.04399,10.58149 -11.63688,29.46597 -20.67372,28.02712 7.52426,-8.58132 -0.13482,-30.37386 16.42925,-28.6203 1.41482,0.19773 2.82965,0.39545 4.24447,0.59318 z"
         style="fill:#e78724" />
      <path
         inkscape:connector-curvature="0"
         id="path5627"
         d="m 145.56,158.89 c -13.95511,14.5769 -41.06925,5.74472 -45.87425,-13.36375 -7.033565,-12.78282 -3.024346,-27.2995 13.21613,-17.94304 12.91436,4.26796 30.05426,7.6329 33.63198,23.08503 0.66173,2.73487 0.5052,5.76516 -0.97386,8.22176 z"
         style="fill:#e78724" />
      <path
         inkscape:connector-curvature="0"
         id="path5629"
         d="m 75.261,31.399 c 15.706467,-3.466328 31.31376,4.461898 40.32675,17.240125 7.328,5.829134 -3.90691,8.874594 -7.35883,13.004744 -5.50573,5.798034 -12.440259,9.981835 -16.941104,-0.3424 C 83.236027,52.498075 90.144746,33.600209 75.261,31.399 z"
         style="fill:#e78724" />
      <path
         inkscape:connector-curvature="0"
         id="path5631"
         d="m 140.549,124.427 c -11.75263,-16.35398 -36.44299,-20.60027 -53.795,-11.27 16.19576,0.33049 32.7093,5.35595 42.24667,19.17307 8.5176,6.90582 21.27212,14.11933 32.02933,8.76693 -9.84734,-0.0361 -15.87162,-9.20283 -20.481,-16.67 z"
         style="fill:#e78724" />
      <path
         inkscape:connector-curvature="0"
         id="path5633"
         d="M 94.666,161.554 C 82.853339,157.50381 62.429294,148.94368 72.839156,133.7242 74.893518,112.88556 52.849038,141.41644 58.861,150.399 c 4.083489,15.37809 22.362306,18.62625 32.386087,27.60304 7.732557,18.61169 4.75527,39.36839 1.927913,58.70496 13.55554,-8.07213 14.97967,-26.4801 15.35745,-40.743 -0.27881,-12.20879 -0.16684,-29.22338 -13.86645,-34.41 z"
         style="fill:#e78724" />
      <path
         inkscape:connector-curvature="0"
         id="path5635"
         d="m 134.184,50.074 c -7.55018,5.446981 -27.637,11.02484 -27.72998,16.489669 5.40451,2.262689 4.76076,5.804462 11.36746,7.703608 8.03159,4.848708 22.40308,18.440987 26.06615,17.702561 C 140.78904,78.340335 123.79892,66.239177 133.12454,51.673525 L 134.184,50.074 l 0,0 z"
         style="fill:#e78724" />
      <path
         inkscape:connector-curvature="0"
         id="path5637"
         d="m 176.191,311.934 c -18.74434,-0.042 -39.543,-4.66115 -52.031,-19.731 3.99309,9.57184 6.85046,20.31914 16.56663,25.92803 10.24468,7.73492 22.24596,14.76553 35.40537,15.17397"
         style="fill:#e78724" />
      <path
         inkscape:connector-curvature="0"
         id="path5639"
         d="m 128.419,278.871 c 0.50833,12.59563 15.08661,29.99119 26.9388,17.45608 5.01535,-6.10833 11.70798,-21.71652 -1.63375,-17.77271 -8.43502,0.10554 -16.87003,0.21109 -25.30505,0.31663 z"
         style="fill:#e78724" />
      <path
         inkscape:connector-curvature="0"
         id="path5641"
         d="m 104.592,245.912 c 8.05415,-21.89934 8.89111,-45.46985 8.247,-68.548 -2.17379,14.85035 -15.676703,24.65071 -17.250094,39.69723 0.95306,10.95933 -12.729811,33.99143 7.086414,28.24035 l 1.91668,0.61042 0,0 z"
         style="fill:#e78724" />
      <path
         inkscape:connector-curvature="0"
         id="path5643"
         d="m 70.016,150.162 c 13.658173,-10.31041 11.836965,-30.60638 9.570062,-45.76344 -5.126859,-17.6415 2.491963,22.34175 -8.438187,27.08982 -4.771392,5.37637 -8.923312,13.50908 -1.131875,18.67362 z"
         style="fill:#e78724" />
      <path
         inkscape:connector-curvature="0"
         id="path5647"
         d="m 79.701,35.576 c -1.995349,-2.326567 -5.77913,0.204014 0,0 z"
         style="fill:#fdc168" />
      <path
         inkscape:connector-curvature="0"
         id="path5649"
         d="M 140.786,44.846 C 126.36129,40.512302 120.61934,21.541497 103.61675,21.081688 91.80537,19.840739 70.85555,21.419929 64.562369,26.010153 70.932741,29.05517 76.138959,36.057992 83.838297,34.559641 97.976225,31.257695 105.38633,47.292192 110.97009,53.414637 132.09773,50.505425 153.22536,47.596212 174.353,44.687"
         style="fill:#fba919" />
      <path
         inkscape:connector-curvature="0"
         id="path5651"
         d="m 147.151,146.942 c -12.26531,11.28178 -34.47348,7.19062 -43.3117,-6.3047 -5.685079,-11.20073 -0.3784,-28.94827 13.21846,-16.87775 13.11945,3.81773 17.56886,19.32659 30.09324,23.18245 z"
         style="fill:#ffffff" />
      <path
         inkscape:connector-curvature="0"
         id="path5653"
         d="m 136.368,143.759 c -11.47354,5.42747 -27.70595,-1.15871 -28.423,-14.874 -6.96626,15.7946 10.1966,29.43868 25.17809,24.29679 10.81449,-3.35606 16.54067,-5.93344 3.24491,-9.42279 z"
         style="fill:#c9c9c9" />
      <path
         inkscape:connector-curvature="0"
         id="path5657"
         d="m 141.859,40.528 c -1.25264,-11.48381 8.93124,-30.8029393 18.51349,-30.471926 -1.02556,9.066589 4.98218,23.430962 7.29852,7.585743 4.30365,-9.9920559 28.89878,-27.150968 21.00083,-6.24293 0.11688,8.185089 2.62436,17.225758 9.96918,7.61077 5.41355,-4.180135 20.80076,-8.725806 11.68663,2.669332 -5.50958,8.694726 2.58734,23.737298 -12.57637,18.365546 -18.47777,-0.776149 -37.0027,2.115318 -55.41642,0.922588 L 141.859,40.528 l 0,0 z"
         style="fill:#463014" />
      <path
         inkscape:connector-curvature="0"
         id="path5659"
         d="M 85.857,67.117 C 79.345831,57.330727 88.865849,39.049437 71.846403,34.643351 68.144222,30.149253 50.376722,33.06797 59.943093,25.641509 78.414121,7.6753513 109.86988,11.873642 126.69346,30.014611 c 7.23952,6.486792 17.42856,15.825367 3.08216,18.371006 C 121.29335,36.507095 109.10423,22.142652 92.428906,21.975906 83.888321,21.27987 62.732855,25.261541 80.564625,30.958125 92.24451,36.799276 92.798719,58.097957 93.670611,64.56025 91.066074,65.4125 88.461537,66.26475 85.857,67.117 z"
         style="fill:#463014" />
      <path
         inkscape:connector-curvature="0"
         id="path5661"
         d="m 69.023,143.45 c 11.217258,-16.50941 13.355986,-38.43054 6.95,-57.168 0.178258,17.33462 -4.534556,34.1795 -5.743359,51.42725 -0.32022,1.92805 -0.543313,3.88783 -1.206641,5.74075 z"
         style="fill:#463014" />
      <path
         inkscape:connector-curvature="0"
         id="path5663"
         d="M 110.896,57.172 C 108.74228,43.442884 95.214367,32.322864 81.202219,36.199453 69.426575,30.361915 94.245277,27.379996 99.764551,32.954309 c 6.490079,3.024708 27.522239,18.992492 13.949289,23.09459 -0.93928,0.374367 -1.87856,0.748734 -2.81784,1.123101 z"
         style="fill:#463014" />
      <path
         inkscape:connector-curvature="0"
         id="path5665"
         d="m 93.964,136.388 c -8.180639,-6.34472 -0.91774,-29.16235 8.324,-16.81 -6.249193,2.79431 -7.648786,10.71482 -8.324,16.81 z"
         style="fill:#463014" />
      <path
         inkscape:connector-curvature="0"
         id="path5669"
         d="m 139.707,145.478 c -9.15373,9.60799 -31.82212,4.18983 -31.6755,-11.529 -3.85487,-14.33803 7.92482,-12.52572 15.8785,-5.771 -5.20066,-5.89894 -11.78656,-9.16885 -19.25832,-10.95078 -11.810848,-8.06363 -8.014876,10.54202 -6.737886,17.34447 3.242176,19.81795 33.627636,31.20279 46.210676,13.66427 6.50686,-6.89868 -1.47885,-2.29674 -4.41747,-2.75796 z"
         style="fill:#463014" />
      <path
         inkscape:connector-curvature="0"
         id="path5671"
         d="m 138.49,146.907 c 5.59237,13.60268 30.62147,0.19079 23.35955,-6.13223 -15.91719,5.67051 -23.76646,-12.48309 -35.37725,-19.21326 -11.53341,-7.99462 -26.37309,-11.73876 -40.1503,-8.16751 19.94624,5.47792 39.28805,17.20549 52.168,33.513 z"
         style="fill:#463014" />
      <path
         inkscape:connector-curvature="0"
         id="path5677"
         d="m 83.739,178.333 c 13.094167,11.31051 6.360074,30.27023 6.826995,45.14265 -1.354277,9.35654 -3.835454,18.66951 7.941005,20.95735 1.39299,-19.25266 4.11235,-38.80642 1.55478,-58.02614 C 97.286061,170.72326 80.18176,167.23698 69.4685,158.55538 54.351202,147.26236 70.675115,135.19334 76.126104,124.8782 81.068446,109.64868 76.087051,94.879879 68.770766,81.735109 68.911773,62.574629 96.212,70.961999 107.67305,74.834631 123.41821,80.909311 136.8623,91.33279 150.379,101.169 135.55782,74.688106 104.25436,55.882715 73.588775,61.43241 60.004302,63.868576 55.21576,80.524051 62.079875,91.488375 69.819782,101.42731 71.884342,119.60228 61.952,128.534 c -15.246906,8.66644 -11.768972,31.3779 2.795561,38.802 5.971973,4.25906 12.631848,7.38605 18.991439,10.997 z"
         style="fill:#463014" />
      <g
         id="g5679">
        <g
           id="g5681">
          <path
             inkscape:connector-curvature="0"
             id="path5683"
             d="M 85.857,67.117 C 79.345831,57.330727 88.865849,39.049437 71.846403,34.643351 68.144807,30.149228 50.377376,33.067987 59.942603,25.642082 78.413377,7.6752433 109.86976,11.873466 126.69346,30.014611 c 7.23816,6.486225 17.42919,15.824938 3.08333,18.370456 C 121.29326,36.510188 109.10507,22.14145 92.428906,21.975906 83.888321,21.27987 62.732855,25.261541 80.564625,30.958125 92.244775,36.799301 92.798114,58.097502 93.670918,64.56015 91.066278,65.412433 88.461639,66.264717 85.857,67.117 z"
             style="fill:#463014" />
        </g>
        <g
           id="g5685">
          <path
             inkscape:connector-curvature="0"
             id="path5687"
             d="M 85.652,68.188 C 78.076513,58.375895 87.956684,38.635179 69.858375,34.783625 66.776456,30.698181 49.110309,33.759816 57.610884,26.897117 74.724712,7.3464922 107.33473,9.6771932 125.08474,27.216715 c 3.59166,5.349306 23.07864,17.180088 9.09134,20.152137 -10.2218,7.142122 -12.24,-15.106594 -22.1185,-17.140227 C 103.5968,21.27103 79.152803,20.802941 75.966871,27.094498 94.176011,32.222995 88.695172,52.907904 97.946922,64.103951 94.057507,65.503855 89.716387,66.821037 85.652,68.188 z"
             style="fill:#463014" />
        </g>
      </g>
      <g
         id="g5689">
        <g
           id="g5691">
          <path
             inkscape:connector-curvature="0"
             id="path5693"
             d="M 110.896,57.172 C 108.74228,43.442884 95.214367,32.322864 81.202219,36.199453 69.426824,30.362296 94.245144,27.379767 99.764551,32.954309 c 6.489779,3.024647 27.521649,18.99182 13.949989,23.094311 -0.93951,0.37446 -1.87903,0.74892 -2.81854,1.12338 z"
             style="fill:#463014" />
        </g>
        <g
           id="g5695">
          <path
             inkscape:connector-curvature="0"
             id="path5697"
             d="M 110.212,58.472 C 108.3424,45.074858 95.715123,33.307252 81.736875,37.0635 74.809545,40.107855 74.257076,23.919604 84.447168,29.170623 100.0428,28.226838 116.06015,39.475351 120.198,54.495 c -3.32867,1.325667 -6.65733,2.651333 -9.986,3.977 z M 86.928,34.65 c 14.48509,-2.814603 20.80916,15.923318 26.9434,20.307748 10.62245,-4.968096 -9.61137,-19.094696 -15.978556,-21.775529 -5.55913,-5.946039 -29.089019,1.348545 -13.275563,1.56114 L 86.928,34.65 l 0,0 z"
             style="fill:#463014" />
        </g>
      </g>
      <path
         inkscape:connector-curvature="0"
         id="path5699"
         d="m 145.715,295.482 c -10.51249,1.09574 -26.36103,-22.80284 -8.22368,-21.66662 7.66965,1.68498 19.70146,-3.63742 24.36606,4.09587 -2.4354,7.02412 -7.64398,17.26164 -16.14238,17.57075 z"
         style="fill:#463014" />
      <path
         inkscape:connector-curvature="0"
         id="path5701"
         d="m 148.671,147.562 c -7.93723,-1.28197 -13.15175,-1.3891 -6.56136,7.71118 4.10137,7.20776 -4.9102,26.49633 3.95165,11.5026 3.20942,-5.65781 5.9124,-12.9843 2.60971,-19.21378 z"
         style="fill:#463014" />
      <g
         id="g5703">
        <path
           inkscape:connector-curvature="0"
           id="path5705"
           d="m 135.961,322.367 c -23.84934,-1.24477 -44.987419,-20.85568 -48.989,-44.16 5.997245,0.002 11.432078,0.006 5.566053,0 9.082087,2.05174 8.888197,20.23233 19.582687,24.91005 5.41502,10.30935 27.48032,3.62511 24.05399,16.46875 -0.0712,0.92707 -0.14249,1.85413 -0.21373,2.7812 z"
           style="fill:#463014" />
      </g>
      <path
         inkscape:connector-curvature="0"
         id="path5707"
         d="m 125.777,261.016 c 3.32775,-19.83266 -23.88895,-10.14821 -34.472113,-19.15403 -11.405849,-5.95661 -17.521526,-25.64712 -19.161821,-31.91691 -10.728204,9.07277 -14.39541,25.4545 -12.086853,38.91201 6.066815,19.09686 24.062762,34.54597 44.438787,35.65093 -0.1209,-5.96669 14.9645,-1.69674 10.79125,-11.63737 0.0255,-6.65656 9.6172,-7.61932 10.49075,-11.85463 z"
         style="fill:#ffffff" />
      <path
         inkscape:connector-curvature="0"
         id="path5709"
         d="m 114.821,279.149 c 0.33427,-10.92683 -23.952471,-4.61849 -31.629921,-17.32376 -13.367318,-9.62147 -9.964178,-31.71749 -14.18022,-41.34969 -13.095532,17.14245 -9.388315,47.34289 11.418507,57.06025 9.105353,3.76955 31.012544,15.74154 34.391634,1.6132 z"
         style="fill:#c9c9c9" />
      <path
         inkscape:connector-curvature="0"
         id="path5711"
         d="m 125.336,255.892 c 8.46046,-16.19743 -14.71904,-6.65865 -23.5608,-12.75346 -16.074649,-3.92995 -25.760638,-22.92857 -29.386001,-34.85071 -22.960644,22.13504 -16.739272,67.86148 14.012609,79.84477 9.204359,3.72263 24.109192,7.96445 31.221822,5.5667 0.25469,-17.70081 -24.04952,-5.55868 -33.906685,-17.91529 C 68.028728,265.41814 64.009088,242.69629 70.749,226.093 c 6.892479,22.85679 33.19727,30.43585 54.587,29.799 z"
         style="fill:#463014" />
      <path
         inkscape:connector-curvature="0"
         id="path5715"
         d="m 128.302,237.902 c -1.30112,9.35684 -14.41521,22.64432 -13.25025,26.9057 17.93315,2.79186 16.92346,-18.89193 22.27571,-30.32414 3.01749,-10.55894 8.30018,-30.56041 7.31529,-35.65812 -6.2023,12.68666 -11.22183,25.92711 -16.34075,39.07656 z"
         style="fill:#463014" />
      <path
         inkscape:connector-curvature="0"
         id="path5717"
         d="m 209.393,203.437 c 9.13476,14.54982 19.63661,28.65533 28.15018,43.33225 -8.71322,5.46713 -14.4446,0.57518 -15.579,-8.20423 -4.19039,-11.70934 -8.38079,-23.41868 -12.57118,-35.12802 z"
         style="fill:#e78724" />
      <path
         inkscape:connector-curvature="0"
         id="path5719"
         d="m 201.664,151.989 c 1.41901,10.13023 15.12885,32.5069 19.86991,26.67889 C 216.9931,168.07574 219.14463,146.35732 201.664,151.989 l 0,0 z"
         style="fill:#e78724" />
      <path
         inkscape:connector-curvature="0"
         id="path5721"
         d="m 206.605,158.89 c 14.16059,14.73731 41.12317,5.51049 45.9954,-13.62011 7.20811,-12.87262 1.85241,-26.4646 -13.42536,-17.61622 -12.73584,4.21827 -29.57637,7.38309 -33.39182,22.54577 -0.66265,2.86956 -0.81062,6.09965 0.82178,8.69056 z"
         style="fill:#e78724" />
      <path
         inkscape:connector-curvature="0"
         id="path5723"
         d="m 276.906,31.399 c -15.70735,-3.46609 -31.31587,4.460606 -40.32937,17.240125 -7.33195,5.828133 3.90438,8.874177 7.35692,13.004148 5.50653,5.798871 12.44215,9.980385 16.94471,-0.342804 C 268.91954,52.56259 262.00623,33.637427 276.906,31.399 z"
         style="fill:#e78724" />
      <path
         inkscape:connector-curvature="0"
         id="path5725"
         d="m 211.618,124.427 c 11.64154,-16.11163 36.35596,-20.84128 53.48484,-11.25456 -14.51459,0.99817 -31.12809,3.67153 -39.56063,17.03283 -8.73375,8.03971 -21.63539,15.66915 -33.70624,11.46772 8.15917,-1.29436 15.58925,-9.31814 19.78203,-17.24599 z"
         style="fill:#e78724" />
      <path
         inkscape:connector-curvature="0"
         id="path5727"
         d="m 257.501,161.554 c 11.81127,-4.05086 32.23647,-12.61091 21.82722,-27.8298 -2.06055,-20.83858 19.99169,7.69216 13.97478,16.6748 -4.08349,15.37809 -22.36231,18.62625 -32.38609,27.60304 -7.73179,18.61168 -4.75689,39.36891 -1.92491,58.70496 -13.55562,-8.07185 -14.9785,-26.48042 -15.35645,-40.743 0.27819,-12.20877 0.16565,-29.22341 13.86545,-34.41 z"
         style="fill:#e78724" />
      <path
         inkscape:connector-curvature="0"
         id="path5729"
         d="m 217.984,50.074 c 7.5495,5.448288 27.63578,11.025144 27.72904,16.4898 -5.40451,2.263132 -4.75784,5.804219 -11.36556,7.703477 -8.03243,4.848612 -22.4026,18.44061 -26.06781,17.702561 3.09451,-13.630704 20.08549,-25.730698 10.76391,-40.296313 L 217.984,50.074 l 0,0 z"
         style="fill:#e78724" />
      <path
         inkscape:connector-curvature="0"
         id="path5731"
         d="m 175.978,311.934 c 18.74264,-0.0418 39.53877,-4.66229 52.025,-19.731 -3.99016,9.57264 -6.84591,20.32008 -16.56305,25.92803 -10.24418,7.73418 -22.24435,14.7652 -35.40295,15.17397"
         style="fill:#e78724" />
      <path
         inkscape:connector-curvature="0"
         id="path5733"
         d="m 223.748,278.871 c -0.51095,12.59328 -15.08577,29.99145 -26.93768,17.45608 -5.01505,-6.10849 -11.70822,-21.71647 1.63363,-17.77271 8.43468,0.10554 16.86937,0.21109 25.30405,0.31663 z"
         style="fill:#e78724" />
      <path
         inkscape:connector-curvature="0"
         id="path5735"
         d="m 247.575,245.912 c -8.05555,-21.89913 -8.89769,-45.46935 -8.247,-68.548 2.16984,14.85156 15.67466,24.65034 17.24609,39.69723 -0.95427,10.95703 12.72957,33.98897 -7.08226,28.24035 l -1.91683,0.61042 0,0 z"
         style="fill:#e78724" />
      <path
         inkscape:connector-curvature="0"
         id="path5737"
         d="m 282.154,150.162 c -12.99614,-9.70259 -11.76416,-28.60262 -10.0536,-43.07734 0.98495,-6.52005 3.18046,-14.296983 2.43333,-3.34713 -1.66307,13.64681 3.41264,25.68173 11.59416,36.15069 1.77769,3.97246 -1.12873,7.8046 -3.97389,10.27378 z"
         style="fill:#e78724" />
      <path
         inkscape:connector-curvature="0"
         id="path5741"
         d="m 272.465,35.576 c 1.99914,-2.325131 5.78208,0.202934 0,0 z"
         style="fill:#fdc168" />
      <path
         inkscape:connector-curvature="0"
         id="path5743"
         d="m 211.378,44.846 c 14.42536,-4.333516 20.16828,-23.305821 37.17275,-23.764313 11.81151,-1.240981 32.76159,0.338238 39.05485,4.928423 -6.37114,3.045443 -11.5783,10.04833 -19.27858,8.549531 C 253.9749,30.952862 246.91963,47.494275 241.19591,53.414627 220.06894,50.505418 198.94197,47.596209 177.815,44.687"
         style="fill:#fba919" />
      <path
         inkscape:connector-curvature="0"
         id="path5745"
         d="m 205.016,146.942 c 12.54197,11.55616 35.65396,7.01915 43.84455,-7.40318 4.7068,-11.07079 -0.3851,-27.18411 -13.29514,-16.02314 -13.38231,3.82001 -17.91854,19.49772 -30.54941,23.42632 z"
         style="fill:#ffffff" />
      <path
         inkscape:connector-curvature="0"
         id="path5747"
         d="m 215.796,143.759 c 11.26871,5.27922 27.09039,-0.8821 28.48725,-14.1941 7.20356,16.55975 -12.04095,28.79079 -26.52917,23.31205 -11.06683,-3.89084 -13.88297,-5.74816 -1.95808,-9.11795 z"
         style="fill:#c9c9c9" />
      <path
         inkscape:connector-curvature="0"
         id="path5751"
         d="m 266.309,67.117 c 6.51749,-9.785575 -3.01099,-28.068658 14.01135,-32.473649 3.70209,-4.49458 21.47473,-1.574559 11.90704,-9.001401 -18.47135,-17.9656294 -49.929,-13.770363 -66.7523,4.372661 -7.23964,6.48683 -17.42612,15.825134 -3.0814,18.372479 8.48447,-11.885685 20.67306,-26.241171 37.34778,-26.411184 8.53967,-0.69666 29.69178,3.286272 11.86203,8.982219 -11.68194,5.840246 -12.22892,27.142205 -13.10811,33.602125 2.60454,0.85225 5.20907,1.7045 7.81361,2.55675 z"
         style="fill:#463014" />
      <path
         inkscape:connector-curvature="0"
         id="path5753"
         d="m 283.14,143.45 c -11.18357,-16.52685 -13.35398,-38.42721 -6.95,-57.168 -0.22968,16.93965 4.40659,33.4285 5.58561,50.27809 0.36964,2.31232 0.81239,4.61385 1.36439,6.88991 z"
         style="fill:#463014" />
      <path
         inkscape:connector-curvature="0"
         id="path5755"
         d="m 241.271,57.172 c 2.15424,-13.728049 15.68122,-24.848915 29.69295,-20.972547 11.77766,-5.839409 -13.04203,-8.818094 -18.56226,-3.245144 -6.4908,3.022989 -27.52181,18.993738 -13.95035,23.094138 0.93989,0.374517 1.87977,0.749035 2.81966,1.123553 z"
         style="fill:#463014" />
      <path
         inkscape:connector-curvature="0"
         id="path5757"
         d="m 258.203,136.388 c 10.28006,-6.70488 -2.81045,-30.26903 -7.19354,-15.83825 5.56988,2.84978 6.46553,10.25424 7.19354,15.83825 z"
         style="fill:#463014" />
      <path
         inkscape:connector-curvature="0"
         id="path5761"
         d="m 212.461,145.478 c 10.85146,10.71424 33.67862,2.56215 31.81189,-13.94016 2.62159,-13.00903 -8.66327,-8.80477 -15.54277,-3.78199 6.96024,-7.03879 31.71766,-21.53804 26.81308,-1.55395 0.34556,16.25989 -13.21313,30.56322 -29.50324,30.74797 -6.89176,3.84306 -27.30226,-13.59839 -15.11212,-11.70023 l 0.82506,0.12289 0.7081,0.10547 0,0 z"
         style="fill:#463014" />
      <path
         inkscape:connector-curvature="0"
         id="path5763"
         d="m 213.674,146.907 c -5.56807,11.22436 -27.81387,4.31135 -24.22636,-6.63946 21.4088,7.28487 29.75014,-22.4626 49.42846,-25.41028 5.86841,-3.13211 25.28363,-4.08634 24.24789,-0.78755 -18.88523,6.11281 -37.11604,17.09253 -49.44999,32.83729 z"
         style="fill:#463014" />
      <path
         inkscape:connector-curvature="0"
         id="path5769"
         d="m 268.431,178.333 c -13.09524,11.30828 -6.36314,30.27074 -6.82913,45.14265 1.35553,9.35727 3.83773,18.66941 -7.93987,20.95735 -1.39392,-19.25265 -4.11477,-38.80621 -1.55544,-58.02614 2.77284,-15.68703 19.88173,-19.16847 30.59494,-27.85148 15.11725,-11.29227 -1.20812,-23.36126 -6.65702,-33.67718 -4.94327,-15.22924 0.0333,-30.000053 7.35513,-43.143091 C 283.2554,62.577198 255.95919,70.960137 244.49795,74.834631 228.75176,80.909686 215.30697,91.334143 201.788,101.169 c 14.82335,-26.478494 46.12286,-45.286897 76.78878,-39.73659 13.58522,2.434873 18.37647,19.091208 11.51085,30.055965 -7.73913,9.938005 -9.80749,28.117105 0.12737,37.045625 15.24525,8.66702 11.7661,31.37745 -2.79658,38.802 -5.97043,4.25937 -12.62965,7.3852 -18.98742,10.997 z"
         style="fill:#463014" />
      <path
         inkscape:connector-curvature="0"
         id="path5771"
         d="M 250.94,65.415 C 236.74405,45.177646 210.41166,38.4703 186.98604,36.258682 c -28.47072,-1.821918 -60.04874,3.007031 -81.38656,23.402281 -10.337566,7.546211 -0.95189,8.329052 6.0228,9.6143 8.64683,-11.572337 24.66337,-16.534973 38.56384,-19.921138 29.25017,-5.545807 62.46493,-2.99899 86.82025,15.520125 2.25188,7.756575 9.53914,2.147221 14.92963,1.86375 l -0.5017,-0.66642 -0.4943,-0.65658 0,0 z"
         style="fill:#463014" />
      <g
         id="g5773">
        <g
           id="g5775">
          <path
             inkscape:connector-curvature="0"
             id="path5777"
             d="m 266.309,67.117 c 6.51749,-9.785575 -3.01099,-28.068658 14.01135,-32.473649 3.7028,-4.494551 21.47552,-1.57458 11.90645,-9.002092 -18.47166,-17.9648083 -49.92855,-13.769459 -66.75171,4.373352 -7.24128,6.487514 -17.42535,15.825652 -3.07999,18.373143 8.48295,-11.89008 20.67266,-26.240385 37.34637,-26.411848 8.53967,-0.69666 29.69178,3.286272 11.86203,8.982219 -11.68162,5.840216 -12.22965,27.142754 -13.10774,33.602247 2.60441,0.852209 5.20883,1.704419 7.81324,2.556628 z"
             style="fill:#463014" />
        </g>
        <g
           id="g5779">
          <path
             inkscape:connector-curvature="0"
             id="path5781"
             d="m 254.178,64.147 c 9.59492,-10.333966 3.03629,-30.267875 19.96958,-35.936109 8.36955,-4.999489 -15.39251,-6.595128 -20.8571,-4.336078 -14.63416,1.540415 -22.81255,18.949994 -31.63444,25.219132 -7.77077,-2.489036 -13.35224,-6.037258 -3.53819,-12.746847 14.10037,-18.30299 39.7031,-29.571075 61.98961,-19.702317 5.06024,1.802812 19.75216,11.34289 15.24944,14.541825 -10.96871,1.783818 -26.08951,6.574574 -25.9879,19.993394 4.10076,9.749527 -1.24158,21.455388 -11.57328,14.153358 -1.20591,-0.395452 -2.41181,-0.790905 -3.61772,-1.186358 z"
             style="fill:#463014" />
        </g>
      </g>
      <g
         id="g5783">
        <g
           id="g5785">
          <path
             inkscape:connector-curvature="0"
             id="path5787"
             d="m 241.271,57.172 c 2.15424,-13.728049 15.68122,-24.848915 29.69295,-20.972547 11.77797,-5.839868 -13.04219,-8.817818 -18.56226,-3.245144 -6.49117,3.023062 -27.52253,18.994549 -13.9495,23.094474 0.9396,0.374406 1.87921,0.748811 2.81881,1.123217 z"
             style="fill:#463014" />
        </g>
        <g
           id="g5789">
          <path
             inkscape:connector-curvature="0"
             id="path5791"
             d="m 231.975,54.495 c 4.91033,-17.83307 26.24839,-29.955976 44.08,-23.803 0.041,12.059482 -10.86217,3.395457 -18.24075,7.022875 -13.07378,-0.603999 -10.34377,24.321921 -20.50595,18.903511 -1.77776,-0.707795 -3.55553,-1.415591 -5.3333,-2.123386 z m 40.49,-18.919 C 272.28725,25.016425 248.24246,33.52967 242.86819,40.695388 237.6089,45.080604 229.67776,54.78214 240.625,55.884 c 3.02646,-14.594618 17.06623,-24.832798 31.84,-20.308 z"
             style="fill:#463014" />
        </g>
      </g>
      <path
         inkscape:connector-curvature="0"
         id="path5793"
         d="m 199.242,292.559 c -8.43618,-5.96392 -13.09194,-21.89159 2.041,-18.748 9.02646,-1.2704 30.77439,-1.1251 18.39614,13.01412 -4.294,6.61293 -13.48763,12.47189 -20.43714,5.73388 z"
         style="fill:#463014" />
      <path
         inkscape:connector-curvature="0"
         id="path5795"
         d="m 203.498,147.562 c 6.39472,-0.54022 14.18701,-2.4687 6.93591,6.51458 -5.01871,6.24569 4.6573,28.23593 -4.54699,12.28625 -3.18513,-5.52817 -5.52858,-12.7259 -2.38892,-18.80083 z"
         style="fill:#463014" />
      <path
         inkscape:connector-curvature="0"
         id="path5797"
         d="m 176.085,111.211 c -8.30888,2.9708 -29.14844,-10.36224 -15.52012,2.5455 10.31905,8.31011 15.75626,8.42374 26.21815,3.906 6.06179,-4.01143 16.01134,-15.35156 2.78089,-7.68695 -4.39999,1.11182 -8.96535,1.24072 -13.47892,1.23545 z"
         style="fill:#e78724" />
      <path
         inkscape:connector-curvature="0"
         id="path5799"
         d="m 193.952,111.141 c -9.03658,9.62041 -31.52982,2.89903 -34.12259,1.80873 6.26649,8.12182 18.67538,14.19829 27.0127,5.06937 2.59327,-2.04461 4.96821,-4.36589 7.10989,-6.8781 z"
         style="fill:#463014" />
      <g
         id="g5801">
        <path
           inkscape:connector-curvature="0"
           id="path5803"
           d="m 216.207,322.367 c -4.85716,-12.59697 8.44239,-9.57293 16.44595,-14.289 12.02644,-5.72311 19.58777,-18.87713 23.90834,-29.872 13.1879,-3.70869 7.07421,9.33345 2.68651,16.37223 -8.72764,15.62009 -24.98283,26.76872 -43.0408,27.78877 z"
           style="fill:#463014" />
      </g>
      <path
         inkscape:connector-curvature="0"
         id="path5805"
         d="m 226.389,261.016 c -3.32635,-19.83294 23.89112,-10.14834 34.47574,-19.15403 11.40713,-5.95538 17.52055,-25.64865 19.15906,-31.91691 10.72898,9.07198 14.40044,25.45396 12.08872,38.91201 -6.0698,19.09584 -24.06465,34.54619 -44.44152,35.65093 0.12076,-5.96567 -14.96052,-1.69826 -10.78925,-11.63737 -0.031,-6.65623 -9.608,-7.61793 -10.49275,-11.85463 z"
         style="fill:#ffffff" />
      <path
         inkscape:connector-curvature="0"
         id="path5807"
         d="m 237.342,279.149 c -0.33153,-10.92615 23.95267,-4.61834 31.63151,-17.32376 13.36755,-9.62157 9.96097,-31.71882 14.1771,-41.34969 13.10008,17.14002 9.39154,47.34315 -11.41498,57.06025 -9.10545,3.76898 -31.01163,15.74265 -34.39363,1.6132 z"
         style="fill:#c9c9c9" />
      <path
         inkscape:connector-curvature="0"
         id="path5809"
         d="m 226.827,255.892 c -8.45301,-16.19781 14.72249,-6.65859 23.56476,-12.75346 16.07441,-3.9303 25.7597,-22.929 29.38604,-34.85071 22.96186,22.13562 16.73712,67.86088 -14.01421,79.84477 -9.20369,3.72264 -24.1084,7.96448 -31.22007,5.5667 -0.25487,-17.69989 24.04702,-5.55988 33.90428,-17.91529 15.69244,-10.36326 19.70547,-33.08809 12.9672,-49.69101 -6.89082,22.85851 -33.1984,30.43553 -54.588,29.799 z"
         style="fill:#463014" />
      <g
         id="g5811">
        <path
           inkscape:connector-curvature="0"
           id="path5813"
           d=""
           style="fill:#463014" />
        <path
           inkscape:connector-curvature="0"
           id="path5815"
           d="m 238.258,263.332 c -12.95477,-12.36506 -32.36414,-6.64048 -48.39099,-8.02856 -21.0634,0.5506 -42.31385,-1.31969 -63.24292,1.1371 -19.25227,2.40858 -20.07575,24.84951 -11.38488,38.07007 7.62214,21.14924 26.52869,38.36375 49.57607,39.8287 23.55702,3.02644 50.82477,-2.97657 64.02085,-24.52868 6.88208,-13.15728 18.52327,-29.30482 11.07448,-44.38616 l -1.65261,-2.09247 0,0 z m -6.636,20.248 c -6.29358,21.8213 -24.85626,40.81016 -48.43352,42.00168 -23.15322,3.14744 -47.97076,-8.34256 -57.71839,-30.17448 -7.75344,-10.76909 -11.01703,-32.76078 8.29693,-31.53343 29.18677,0.006 58.44556,-0.71405 87.60145,0.32081 10.66276,0.351 14.5823,10.43214 10.25353,19.38542 z"
           style="fill:#463014" />
      </g>
      <path
         inkscape:connector-curvature="0"
         id="path5817"
         d="m 223.863,237.902 c 1.3012,9.35663 14.41423,22.64406 13.24939,26.9057 -17.93356,2.7921 -16.91948,-18.89255 -22.27275,-30.32414 -3.01776,-10.55903 -8.29953,-30.55991 -7.31591,-35.65812 6.20105,12.68888 11.21879,25.92618 16.33927,39.07656 z"
         style="fill:#463014" />
    </g>
  </g>
</svg>
