<?xml version="1.0" encoding="UTF-8" standalone="no"?>
<!-- Created with Inkscape (http://www.inkscape.org/) -->

<svg
   xmlns:dc="http://purl.org/dc/elements/1.1/"
   xmlns:cc="http://creativecommons.org/ns#"
   xmlns:rdf="http://www.w3.org/1999/02/22-rdf-syntax-ns#"
   xmlns:svg="http://www.w3.org/2000/svg"
   xmlns="http://www.w3.org/2000/svg"
   xmlns:sodipodi="http://sodipodi.sourceforge.net/DTD/sodipodi-0.dtd"
   xmlns:inkscape="http://www.inkscape.org/namespaces/inkscape"
   width="55.3125"
   height="64"
   id="svg3952"
   version="1.1"
   inkscape:version="0.48.5 r10040"
   sodipodi:docname="gulp.svg">
  <defs
     id="defs3954" />
  <sodipodi:namedview
     id="base"
     pagecolor="#ffffff"
     bordercolor="#666666"
     borderopacity="1.0"
     inkscape:pageopacity="0.0"
     inkscape:pageshadow="2"
     inkscape:zoom="3.5"
     inkscape:cx="-5.8473437"
     inkscape:cy="31.102099"
     inkscape:current-layer="layer1"
     showgrid="true"
     inkscape:grid-bbox="true"
     inkscape:document-units="px"
     fit-margin-top="0"
     fit-margin-left="0"
     fit-margin-right="0"
     fit-margin-bottom="0"
     inkscape:window-width="1362"
     inkscape:window-height="722"
     inkscape:window-x="0"
     inkscape:window-y="20"
     inkscape:window-maximized="0" />
  <metadata
     id="metadata3957">
    <rdf:RDF>
      <cc:Work
         rdf:about="">
        <dc:format>image/svg+xml</dc:format>
        <dc:type
           rdf:resource="http://purl.org/dc/dcmitype/StillImage" />
        <dc:title />
      </cc:Work>
    </rdf:RDF>
  </metadata>
  <g
     inkscape:groupmode="layer"
     id="layer2"
     inkscape:label="cut me"
     style="display:none"
     transform="translate(-31.142856,-29.785715)">
    <path
       style="fill:#0000ff;fill-opacity:1;fill-rule:nonzero;stroke:none;display:inline"
       d="m 31.107144,30.357147 0,63 55.499997,0 0,-63 -27.71875,0 27.56251,15.688477 0,31.499998 -27.65626,15.750004 -27.656244,-15.750004 0,-31.499998 27.562494,-15.688477 -27.593747,0 z"
       id="rect5002-1"
       inkscape:connector-curvature="0" />
  </g>
  <g
     id="layer1"
     inkscape:label="Layer 1"
     inkscape:groupmode="layer"
     transform="translate(29.144317,37.660909)"
     style="display:inline">
    <path
       style="fill:#e94b4b;fill-opacity:1;fill-rule:nonzero"
       d="M 27.65625,0 0,16 0,48 27.65625,64 55.3125,48 l 0,-32 L 27.65625,0 z m 0.0625,2.5625 25.5,14.75 0,29.5 -25.5,14.75 -25.5,-14.75 0,-29.5 25.5,-14.75 z"
       id="path3960-2"
       transform="translate(-29.144317,-37.660909)"
       inkscape:connector-curvature="0" />
    <path
       style="fill:#e94b4b"
       d="m 7.0855943,-32.102874 -5.46875,5.71875 -1.53125005,6 c -0.507193,-0.007 -1.007862,0 -1.53124995,0 -7.177134,0 -12.9687503,0.668002 -12.9687503,1.5 0,0.831554 5.7916163,2.03125 12.9687503,2.03125 7.177895,0 12.9999997,-1.199696 12.9999997,-2.03125 1.23e-4,-0.666653 -3.7604217,-1.239084 -8.9374997,-1.4375 l 1.5,-5.1875 4.9375,-5.46875 -1.96875,-1.125 z m -4.9375,13.34375 0.03125,0 c 0.181441,0.07636 0.3125,0.199397 0.3125,0.28125 0,0.216245 -0.762654,0.46875 -1.59375005,0.46875 -0.830947,0 -1.59375,-0.252359 -1.59375,-0.46875 0,-0.08297 0.131826,-0.172919 0.3125,-0.25 -0.010846,0.02049 -0.03125,0.04094 -0.03125,0.0625 -1.47e-4,0.214449 0.595286,0.375 1.3125,0.375 0.71690905,0 1.28125005,-0.160393 1.28125005,-0.375 0,-0.0097 -0.028724,-0.02169 -0.03125,-0.03125 l 0,-0.03125 c -0.00317,-0.0071 0.00432,-0.0243 0,-0.03125 z m -16.5625003,0.65625 1.375,14.3125 c 0.07238,-0.246392 0.160804,-0.473575 0.25,-0.71875 0.182358,-0.502477 0.385427,-1.020085 0.625,-1.5 0.239715,-0.479756 0.499121,-0.916695 0.78125,-1.34375 0.281981,-0.427054 0.588081,-0.828137 0.90625,-1.1875 0.318324,-0.359207 0.6334663,-0.67869 0.9687503,-0.9375 0.335131,-0.258658 0.689763,-0.447908 1.03125,-0.59375 0.341655,-0.145689 0.664871,-0.21875 1,-0.21875 0.386021,0 0.764422,0.10155 1.125,0.3125 0.360576,0.211086 0.68576,0.558907 1,1.03125 0.072123,0.10559 0.13734,0.204535 0.15625,0.3125 0.019219,0.108141 0.03125,0.217077 0.03125,0.3125 0,0.226083 -0.048162,0.400706 -0.15625,0.53125 -0.108141,0.130668 -0.257844,0.1875 -0.40625,0.1875 -0.135828,0 -0.258237,-0.044425 -0.375,-0.1875 -0.116734,-0.143109 -0.230685,-0.358469 -0.375,-0.625 -0.135676,-0.241232 -0.305505,-0.423123 -0.46875,-0.53125 -0.163416,-0.107988 -0.340287,-0.15625 -0.53125,-0.15625 -0.296966,0 -0.600243,0.128771 -0.9375,0.375 -0.337408,0.246238 -0.669253,0.564257 -1,0.96875 -0.331044,0.404492 -0.6654233,0.854964 -0.9687503,1.375 -0.303324,0.520042 -0.579131,1.048574 -0.8125,1.59375 -0.233367,0.545637 -0.393442,1.094968 -0.53125,1.625 -0.137976,0.530034 -0.21875,1.015588 -0.21875,1.4375 0,0.140986 0.01244,0.28985 0.03125,0.4375 0.01922,0.148243 0.04058,0.285403 0.09375,0.40625 0.05303,0.120705 0.127431,0.20326 0.21875,0.28125 0.09131,0.078297 0.203824,0.125 0.34375,0.125 0.157047,0 0.363056,-0.050664 0.5625,-0.15625 0.199304,-0.105102 0.379619,-0.23557 0.59375,-0.40625 0.2143003,-0.171107 0.4398393,-0.377495 0.6562503,-0.59375 0.216575,-0.216093 0.407179,-0.434995 0.59375,-0.65625 0.186585,-0.22095 0.355834,-0.421468 0.5,-0.625 0.144324,-0.203679 0.271524,-0.380418 0.34375,-0.53125 l 0.59375,-1.78125 c 0.072123,-0.190805 0.164488,-0.325682 0.28125,-0.40625 0.116602,-0.080246 0.220636,-0.125 0.34375,-0.125 0.059202,0 0.127996,0.011022 0.1875,0.03125 0.059567,0.020221 0.10944,0.051056 0.15625,0.09375 0.046781,0.042704 0.097461,0.088424 0.125,0.15625 0.027562,0.067826 0.03125,0.159744 0.03125,0.25 0,0.241231 -0.0199,0.476238 -0.0625,0.6875 -0.042235,0.211263 -0.090554,0.392485 -0.15625,0.59375 -0.065877,0.200669 -0.13818,0.421313 -0.21875,0.625 -0.080581,0.203526 -0.173678,0.403749 -0.25,0.625 -0.016706,0.025289 -0.049022,0.117172 -0.09375,0.25 -0.044498,0.133428 -0.092515,0.298739 -0.15625,0.5 -0.063592,0.201124 -0.144527,0.407433 -0.21875,0.65625 -0.074219,0.24882 -0.140277,0.522444 -0.21875,0.78125 -0.078734,0.258811 -0.146651,0.50149 -0.21875,0.75 -0.072123,0.248667 -0.130373,0.486549 -0.1875,0.6875 -0.057378,0.20082 -0.11796,0.364304 -0.15625,0.5 -0.038179,0.135675 -0.054021,0.224559 -0.0625,0.25 -0.021254,0.079986 -0.078437,0.151868 -0.125,0.25 -0.046781,0.097819 -0.092499,0.193409 -0.15625,0.28125 -0.063593,0.087839 -0.142302,0.161218 -0.21875,0.21875 -0.076337,0.057846 -0.138027,0.09375 -0.21875,0.09375 -0.135675,0 -0.251166,-0.065958 -0.3125,-0.15625 -0.061653,-0.090561 -0.09375,-0.227514 -0.09375,-0.46875 l 0,-0.125 c 0,-0.035165 0.02714,-0.053823 0.03125,-0.09375 0.00411,-0.080414 0.034243,-0.247519 0.09375,-0.46875 0.059572,-0.220924 0.135878,-0.47105 0.21875,-0.75 0.082677,-0.2791 0.154606,-0.57576 0.25,-0.875 0.09542,-0.299246 0.173519,-0.544849 0.25,-0.78125 -0.225021,0.251246 -0.455697,0.501492 -0.71875,0.75 -0.263045,0.248819 -0.536883,0.457563 -0.8125003,0.65625 -0.275768,0.198723 -0.563747,0.374304 -0.84375,0.5 -0.280014,0.125409 -0.522433,0.1875 -0.78125,0.1875 -0.296961,0 -0.566965,-0.088167 -0.78125,-0.21875 -0.03875,-0.023777 -0.08872,-0.036001 -0.125,-0.0625 l 0.875,9.09375 0.5,0.8125 c 1.4812213,0.952091 5.2776623,1.621823 9.7187503,1.625 4.045382,-0.0031 7.539048,-0.555113 9.25,-1.375 l 0.65625,-1.0625 1.21875,-10.8125 c -0.10297,0.094356 -0.18538,0.191918 -0.28125,0.28125 -0.357846,0.333021 -0.715047,0.604933 -1.03125,0.84375 -0.315909,0.2385 -0.605339,0.432262 -0.90625,0.5625 -0.301363,0.130695 -0.624831,0.1875 -0.96875,0.1875 -0.322408,0 -0.57373,-0.046643 -0.75,-0.1875 -0.175987,-0.140683 -0.25,-0.34736 -0.25,-0.59375 l 0,-0.0625 c 0,-0.017185 -0.00407,-0.037588 0,-0.0625 0.016706,-0.150522 0.07307,-0.304186 0.1875,-0.5 0.11448,-0.196115 0.245135,-0.414198 0.40625,-0.625 0.161142,-0.211263 0.348776,-0.409051 0.53125,-0.625 0.18251,-0.215968 0.344776,-0.430852 0.5,-0.625 0.154617,-0.192955 0.27323,-0.370117 0.375,-0.53125 0.102084,-0.160838 0.15625,-0.305689 0.15625,-0.40625 0,-0.06014 -0.02015,-0.089513 -0.0625,-0.125 -0.042568,-0.034675 -0.121395,-0.0625 -0.21875,-0.0625 -0.169766,0 -0.319782,0.037207 -0.5,0.125 -0.180362,0.087839 -0.386527,0.226767 -0.5625,0.375 -0.175988,0.148244 -0.332361,0.309344 -0.5,0.5 -0.167363,0.191134 -0.322464,0.387791 -0.46875,0.59375 -0.146452,0.206131 -0.285404,0.416465 -0.40625,0.625 -0.120858,0.208535 -0.227702,0.386682 -0.3125,0.5625 l -0.09375,0.25 c -0.046939,0.100551 -0.101248,0.218374 -0.15625,0.34375 -0.055125,0.125713 -0.126176,0.242343 -0.1875,0.375 -0.061506,0.133425 -0.1054,0.257182 -0.15625,0.375 l -0.125,0.3125 c -0.040806,0.092678 -0.076939,0.152222 -0.09375,0.1875 -0.021253,0.045249 -0.076218,0.155553 -0.125,0.28125 -0.048711,0.125713 -0.09267,0.269257 -0.15625,0.4375 l -0.1875,0.53125 c -0.069839,0.185823 -0.15712,0.365582 -0.21875,0.53125 -0.061507,0.165821 -0.110048,0.311803 -0.15625,0.4375 -0.046938,0.125407 -0.081006,0.205028 -0.09375,0.25 -0.042079,0.130667 -0.099154,0.259146 -0.15625,0.375 -0.057419,0.115423 -0.112998,0.19311 -0.1875,0.28125 -0.074063,0.087849 -0.154474,0.166048 -0.25,0.21875 -0.095576,0.053122 -0.193941,0.09375 -0.3125,0.09375 -0.15295,0 -0.275052,-0.052126 -0.375,-0.125 -0.09932,-0.072697 -0.15625,-0.200303 -0.15625,-0.40625 0,-0.100551 0.00597,-0.207113 0.03125,-0.3125 0.025581,-0.10559 0.055623,-0.209802 0.09375,-0.3125 0.038178,-0.103408 0.085057,-0.214824 0.125,-0.3125 0.040462,-0.097996 0.060338,-0.191161 0.09375,-0.28125 0.229269,-0.502473 0.481297,-0.995105 0.71875,-1.5 0.237465,-0.504896 0.468824,-1.00494 0.6875,-1.5 0.0402,-0.090818 0.05525,-0.191344 0.09375,-0.28125 -0.275921,0.266679 -0.57025,0.51552 -0.84375,0.71875 -0.273955,0.203525 -0.543392,0.348052 -0.8125,0.46875 -0.26926,0.120377 -0.52683905,0.1875 -0.78125005,0.1875 -0.173838,0 -0.320884,-0.038447 -0.4375,-0.09375 -0.116734,-0.055302 -0.211117,-0.123487 -0.28125,-0.21875 -0.070131,-0.095566 -0.126736,-0.21306 -0.15625,-0.34375 -0.009907,-0.044665 0.00657,-0.078668 0,-0.125 -0.07448,0.057993 -0.174261,0.102786 -0.25,0.15625 -0.26275,0.185797 -0.495291,0.355774 -0.74999995,0.46875 -0.254426,0.112968 -0.483966,0.15625 -0.6875,0.15625 -0.20383,0 -0.372642,-0.051644 -0.5,-0.1875 -0.127231,-0.135525 -0.1875,-0.392245 -0.1875,-0.71875 0,-0.231241 0.026018,-0.474892 0.09375,-0.78125 -0.110394,0.196116 -0.241025,0.392793 -0.40625,0.59375 -0.165668,0.201123 -0.350484,0.365271 -0.5625,0.53125 -0.212329,0.165821 -0.455862,0.303268 -0.71875,0.40625 -0.263204,0.103148 -0.565467,0.15625 -0.875,0.15625 -0.140077,0 -0.276625,-0.026825 -0.40625,-0.0625 -0.129353,-0.035029 -0.246215,-0.071036 -0.34375,-0.15625 -0.097673,-0.085096 -0.159245,-0.200173 -0.21875,-0.34375 -0.059567,-0.143112 -0.09375,-0.346552 -0.09375,-0.5625 0,-0.00479 0.014417,-0.070156 0.03125,-0.21875 0.016697,-0.148245 0.065067,-0.368265 0.15625,-0.6875 0.091311,-0.31877 0.246685,-0.742372 0.4375,-1.25 0.191111,-0.507774 0.433244,-1.120327 0.78125,-1.84375 0.089059,-0.191134 0.196036,-0.323417 0.3125,-0.40625 0.116758,-0.08298 0.239306,-0.125 0.375,-0.125 0.059567,0 0.123897,0.013678 0.1875,0.03125 0.063905,0.017436 0.132091,0.024655 0.1875,0.0625 0.054999,0.037522 0.090964,0.098537 0.125,0.15625 0.033788,0.057679 0.0625,0.112089 0.0625,0.1875 0,0.050265 -0.018391,0.111252 -0.03125,0.15625 -0.021253,0.0857 -0.055175,0.205642 -0.125,0.34375 -0.070131,0.138406 -0.156556,0.290351 -0.25,0.46875 -0.093147,0.17854 -0.177508,0.35609 -0.28125,0.5625 -0.10418,0.205677 -0.223468,0.435452 -0.3125,0.65625 -0.089038,0.221253 -0.155148,0.427577 -0.21875,0.65625 -0.063759,0.228663 -0.085399,0.471699 -0.09375,0.6875 0,0.090561 0.01965,0.174589 0.0625,0.25 0.042235,0.075429 0.089835,0.09375 0.1875,0.09375 0.275621,0 0.562021,-0.069332 0.8125,-0.25 0.250159,-0.180968 0.475182,-0.418696 0.6875,-0.6875 0.212024,-0.268653 0.390615,-0.565906 0.5625,-0.875 0.171891,-0.309079 0.323014,-0.587217 0.4375,-0.84375 0.080757,-0.170675 0.157223,-0.366688 0.21875,-0.5625 0.061506,-0.196118 0.115425,-0.365278 0.1875,-0.53125 0.072124,-0.165971 0.156405,-0.295692 0.25,-0.40625 0.093136,-0.110369 0.203797,-0.1875 0.34375,-0.1875 0.15309995,0 0.28594995,0.071941 0.37499995,0.1875 0.089017,0.115721 0.125,0.245724 0.125,0.40625 0,0.090571 -0.036675,0.21673 -0.09375,0.375 -0.057106,0.158258 -0.1001,0.358972 -0.1875,0.5625 -0.086921,0.203527 -0.210734,0.393904 -0.31249995,0.625 -0.10175,0.231268 -0.194627,0.480084 -0.28125,0.71875 -0.087077,0.238679 -0.161369,0.458822 -0.21875,0.6875 -0.057429,0.228664 -0.0625,0.460439 -0.0625,0.65625 0,0.180969 0.094527,0.28125 0.28125,0.28125 0.131605,0 0.273544,-0.065822 0.46874995,-0.15625 0.195229,-0.090425 0.410868,-0.211719 0.625,-0.375 0.053602,-0.040869 0.102767,-0.080344 0.15625,-0.125 0.059922,-0.246693 0.137117,-0.480184 0.21875,-0.6875 0.148395,-0.392223 0.284693,-0.76932 0.4375,-1.15625 0.152668,-0.387077 0.310292,-0.740693 0.43749995,-1.0625 l 1.9375001,-4.875 c 0.076336,-0.195941 0.152045,-0.325837 0.28125,-0.40625 0.129479,-0.08025 0.27465,-0.125 0.40625,-0.125 0.1313,0 0.235478,0.039616 0.34375,0.125 0.108261,0.08557 0.1875,0.215285 0.1875,0.40625 0,0.09043 -0.026616,0.212111 -0.0625,0.3125 -0.036061,0.100707 -0.069721,0.196794 -0.125,0.3125 -0.105852,0.236249 -0.259808,0.533357 -0.40625,0.875 -0.14645,0.341801 -0.301414,0.691677 -0.46875,1.09375 -0.16749,0.402069 -0.324028,0.815223 -0.5,1.25 -0.175985,0.434783 -0.363761,0.869346 -0.53125,1.28125 -0.167364,0.412373 -0.322609,0.818132 -0.46875,1.1875 -0.146423,0.369196 -0.268845,0.666276 -0.375,0.9375 -0.046939,0.115697 -0.080654,0.252999 -0.125,0.40625 -0.044665,0.153252 -0.0625,0.285555 -0.0625,0.40625 0,0.075169 0.00596,0.142386 0.03125,0.1875 0.025394,0.04502 0.084056,0.0625 0.15625,0.0625 0.089205,0 0.178766,-0.030762 0.3125,-0.09375 0.13388,-0.062685 0.282571,-0.146871 0.4375,-0.25 0.15492,-0.103147 0.332655,-0.210303 0.5,-0.34375 0.16764,-0.13325 0.334629,-0.263139 0.5,-0.40625 0.165667,-0.143259 0.318225,-0.294544 0.46875,-0.4375 0.150521,-0.142958 0.287368,-0.285558 0.40625,-0.40625 0.027855,-0.028907 0.057083,-0.04695 0.09375,-0.0625 0.071643,-0.213845 0.129791,-0.420252 0.1875,-0.625 0.034101,-0.090686 0.096779,-0.20902 0.15625,-0.375 0.059202,-0.166123 0.111153,-0.339178 0.1875,-0.5 0.076346,-0.160686 0.154729,-0.288132 0.25,-0.40625 0.095577,-0.117949 0.202262,-0.1875 0.3125,-0.1875 0.169765,0 0.298672,0.047321 0.375,0.125 0.076346,0.078141 0.125,0.192779 0.125,0.34375 0,0.02995 -0.022411,0.059827 -0.03125,0.125 -0.00875,0.065335 -0.018766,0.146196 -0.03125,0.21875 -0.012899,0.072508 -0.016744,0.153481 -0.03125,0.21875 -0.015173,0.065397 -0.018507,0.094852 -0.03125,0.125 0.156614,-0.170979 0.317524,-0.331902 0.5,-0.5 0.182486,-0.168249 0.367451,-0.33321 0.5625,-0.46875 0.195232,-0.135675 0.38992,-0.22679 0.59375,-0.3125 0.203705,-0.085294 0.421463,-0.125 0.625,-0.125 0.13995,0 0.268442,0.022465 0.40625,0.0625 0.137774,0.040108 0.267172,0.078521 0.375,0.15625 0.108285,0.07814 0.182306,0.194547 0.25,0.3125 0.067566,0.11795 0.125,0.250421 0.125,0.40625 0,0.20613 -0.052416,0.422577 -0.15625,0.65625 -0.103868,0.233645 -0.249208,0.482952 -0.40625,0.71875 -0.156892,0.236552 -0.317818,0.463666 -0.5,0.6875 -0.182511,0.223683 -0.372098,0.410357 -0.53125,0.59375 -0.159296,0.183827 -0.267016,0.340476 -0.375,0.46875 -0.107962,0.128418 -0.183428,0.204742 -0.1875,0.25 0,0.060109 0.02429,0.118397 0.0625,0.15625 0.038157,0.037531 0.098465,0.0625 0.1875,0.0625 0.072353,0 0.17239,-0.044613 0.3125,-0.125 0.139949,-0.080424 0.341453,-0.207722 0.59375,-0.40625 0.25231,-0.198722 0.580463,-0.478272 0.96875,-0.8125 0.26622,-0.228991 0.586157,-0.501743 0.9375,-0.8125 l 1.7812497,-15.59375 c -1.8213447,0.872143 -6.9402857,1.8125 -12.9687497,1.8125 -6.027417,0 -11.1471053,-0.940361 -12.9687503,-1.8125 l -0.03125,0 z m 3.15625,28.875 1.8125003,2.90625 0.625,8.15625 5.09375,2.875 c 1.280537,0.251583 2.708348,0.369509 4.24999995,0.125 l 5.12500005,-2.9375 0.5,-8.3125 1.5625,-2.5625 c -1.706258,0.817566 -5.187044,1.369168 -9.21875,1.375 l -0.03125,0 -0.03125,0 c -4.427244,-0.0063 -8.209838,-0.675197 -9.6875003,-1.625 z"
       id="path3086"
       inkscape:connector-curvature="0" />
  </g>
</svg>
