<?xml version="1.0" encoding="UTF-8" standalone="no"?>
<!-- Created with Inkscape (http://www.inkscape.org/) -->

<svg
   xmlns:dc="http://purl.org/dc/elements/1.1/"
   xmlns:cc="http://creativecommons.org/ns#"
   xmlns:rdf="http://www.w3.org/1999/02/22-rdf-syntax-ns#"
   xmlns:svg="http://www.w3.org/2000/svg"
   xmlns="http://www.w3.org/2000/svg"
   version="1.1"
   width="55.3125"
   height="64"
   id="svg3952">
  <defs
     id="defs3954">
    <marker
       refX="0"
       refY="0"
       orient="auto"
       id="Arrow1Lend"
       style="overflow:visible">
      <path
         d="M 0,0 5,-5 -12.5,0 5,5 0,0 z"
         transform="matrix(-0.8,0,0,-0.8,-10,0)"
         id="path7021"
         style="fill-rule:evenodd;stroke:#000000;stroke-width:1pt" />
    </marker>
    <marker
       refX="0"
       refY="0"
       orient="auto"
       id="Arrow1Lstart"
       style="overflow:visible">
      <path
         d="M 0,0 5,-5 -12.5,0 5,5 0,0 z"
         transform="matrix(0.8,0,0,0.8,10,0)"
         id="path7018"
         style="fill-rule:evenodd;stroke:#000000;stroke-width:1pt" />
    </marker>
  </defs>
  <metadata
     id="metadata3957">
    <rdf:RDF>
      <cc:Work
         rdf:about="">
        <dc:format>image/svg+xml</dc:format>
        <dc:type
           rdf:resource="http://purl.org/dc/dcmitype/StillImage" />
        <dc:title></dc:title>
      </cc:Work>
    </rdf:RDF>
  </metadata>
  <g
     transform="translate(-31.051533,-29.794647)"
     id="layer2"
     style="display:none">
    <path
       d="m -36.288971,31.185788 0,63 55.499997,0 0,-63 -27.7187501,0 27.5625101,15.688477 0,31.499998 -27.6562601,15.750004 -27.6562439,-15.750004 0,-31.499998 27.5624939,-15.688477 -27.5937469,0 z"
       id="rect5002-1"
       style="fill:#0000ff;fill-opacity:1;fill-rule:nonzero;stroke:none;display:inline" />
  </g>
  <g
     transform="translate(29.23564,37.651977)"
     id="layer1"
     style="display:inline">
    <path
       d="m -1.57964,-37.651977 -27.656,16 0,32 27.656,16 27.656,-16 0,-32 -27.656,-16 z m 0,2.5 25.499769,14.75 0,29.5 -25.499769,14.75 -25.499769,-14.75 0,-29.5 25.499769,-14.75 z"
       id="path3960-2"
       style="fill:#cb3837;fill-opacity:1;fill-rule:nonzero" />
    <path
       d="m 53.828434,-3.8171812 0,-12.5312498 6,0 0,9.4062498 3,0 0,-9.4062498 3,0 0,9.4062498 3,0 0,-9.4062498 3,0 0,12.5312498 -18,0 z"
       id="path3280"
       style="fill:none;stroke:#000000;stroke-width:0;stroke-linecap:square;stroke-linejoin:miter;stroke-miterlimit:1.89999998;stroke-opacity:1;stroke-dasharray:none;display:inline" />
    <path
       d="M 27.712813,2 1.7320508,17 27.712813,32 53.693575,17 z"
       transform="translate(-29.23564,-37.651977)"
       id="path4178"
       style="fill:#ffffff;fill-opacity:1;stroke:none" />
    <path
       d="m 1.7320508,17 0,30 25.9807622,15 0,-30 z"
       transform="translate(-29.23564,-37.651977)"
       id="path4960"
       style="fill:#ececec;fill-opacity:1;stroke:none" />
    <path
       d="m 27.712813,32 0,30 25.980762,-15 0,-30 z"
       transform="translate(-29.23564,-37.651977)"
       id="path4962"
       style="fill:#b3b3b3;fill-opacity:1;stroke:none" />
    <path
       d="m -27.515304,-20.651975 c 0,0 0,25.7203992 0,25.7203992 0,0 15.339475,8.8527618 15.339475,8.8527618 0,0 0,4.279601 0,4.279601 0,0 10.6515245,6.147238 10.6515245,6.147238 0,0 0,-8.559201 0,-8.559201 0,0 -1.4669769,-0.846626 -1.4669769,-0.846626 0,0 0,4.2796 0,4.2796 0,0 -6.123034,-3.533742 -6.123034,-3.533742 0,0 0,-21.440799 0,-21.440799 0,0 7.5900107,4.3803686 7.5900107,4.3803686 0,0 0,-4.2796006 0,-4.2796006 0,0 -25.9909993,-15 -25.9909993,-15 0,0 0,0 0,0 m 3.061517,6.046472 c 0,0 12.277958,7.0858904 12.277958,7.0858904 0,0 0,17.161198 0,17.161198 0,0 -3.061517,-1.7668714 -3.061517,-1.7668714 0,0 0,-12.8815974 0,-12.8815974 0,0 -3.061517,-1.7668714 -3.061517,-1.7668714 0,0 0,12.8815975 0,12.8815975 0,0 -6.154924,-3.5521477 -6.154924,-3.5521477 0,0 0,-17.161198 0,-17.161198 0,0 0,0 0,0 M -2.9912819,2.0606003 c 0,0 0,8.6019967 0,8.6019967 0,0 1.4669771,0.846626 1.4669771,0.846626 0,0 0,-8.6019968 0,-8.6019968 0,0 -1.4669771,-0.8466259 -1.4669771,-0.8466259 0,0 0,0 0,0"
       id="rect3215-0"
       style="fill:#cb3837;fill-opacity:1;fill-rule:nonzero;stroke:#000000;stroke-width:0;stroke-linecap:square;stroke-linejoin:miter;stroke-miterlimit:1.89999998;stroke-opacity:1;stroke-dasharray:none;display:inline" />
    <path
       d="m -1.5267332,-5.651977 c 0,0 0,4.2796006 0,4.2796006 0,0 4.1694017,-2.4072053 4.1694017,-2.4072053 0,0 0,17.1611987 0,17.1611987 0,0 -4.1694017,2.407205 -4.1694017,2.407205 0,0 0,8.559201 0,8.559201 0,0 1.41816381,-0.818777 1.41816381,-0.818777 0,0 0,-4.279601 0,-4.279601 0,0 24.56259839,-14.1812226 24.56259839,-14.1812226 0,0 0,-25.7203994 0,-25.7203994 0,0 -25.9807622,15 -25.9807622,15 0,0 0,0 0,0 m 6.8922763,0.3003429 c 0,0 16.3372479,-9.4323139 16.3372479,-9.4323139 0,0 0,17.1611978 0,17.1611978 0,0 -2.722875,1.5720524 -2.722875,1.5720524 0,0 0,-12.8815977 0,-12.8815977 0,0 -2.722874,1.5720524 -2.722874,1.5720524 0,0 0,12.8815977 0,12.8815977 0,0 -2.722875,1.5720524 -2.722875,1.5720524 0,0 0,-12.8815977 0,-12.8815977 0,0 -2.722875,1.5720524 -2.722875,1.5720524 0,0 0,12.8815977 0,12.8815977 0,0 -5.4457489,3.1441046 -5.4457489,3.1441046 0,0 0,-17.1611981 0,-17.1611981 0,0 0,0 0,0 m -6.8922763,8.2588582 c 0,0 0,8.6019969 0,8.6019969 0,0 1.41816381,-0.818777 1.41816381,-0.818777 0,0 0,-8.6019972 0,-8.6019972 0,0 -1.41816381,0.8187773 -1.41816381,0.8187773 0,0 0,0 0,0"
       id="rect3215"
       style="fill:#cb3837;fill-opacity:1;fill-rule:nonzero;stroke:#000000;stroke-width:0;stroke-linecap:square;stroke-linejoin:miter;stroke-miterlimit:1.89999998;stroke-opacity:1;stroke-dasharray:none" />
  </g>
</svg>
