<svg xmlns="http://www.w3.org/2000/svg" height="75.459" width="240"><path d="M138.946 61.716c-1.202-.146-2.525-.385-3.467-.627-7.77-2-13.92-8.47-15.5-16.32-.668-3.31-.56-6.79.3-9.97 1.38-5.1 4.803-9.707 9.283-12.48 8.487-5.258 19.372-4.01 26.403 3.02 8.343 8.34 8.343 21.832 0 30.174-2.65 2.653-5.916 4.555-9.46 5.514-1.8.487-3.103.66-5.238.69-1.095.016-2.14.01-2.33-.01zm3.468-5.86c2.622-.275 4.935-1.118 7.206-2.625 1.238-.82 3.24-2.82 4.06-4.06 2.764-4.16 3.44-9.01 1.9-13.64-.76-2.29-1.947-4.18-3.775-6.005-1.383-1.383-2.43-2.15-4.063-2.967-4.27-2.143-9.442-2.143-13.712 0-1.632.818-2.68 1.584-4.063 2.967-1.383 1.38-2.15 2.43-2.968 4.06-2.15 4.27-2.15 9.438 0 13.71.26.53.75 1.375 1.09 1.88.82 1.237 2.82 3.24 4.06 4.06 3.15 2.095 6.7 3 10.26 2.627zm-1.43-14.7c0-.226 3.312-11.906 3.414-12.038.066-.085.26-.055.768.118 2.6.884 4.977 2.74 6.507 5.082.26.397.46.782.444.857-.024.116-10.858 6.12-11.06 6.13-.04.002-.074-.065-.074-.148zm-22.204-14.73c-.877-.915-1.116-1.496-1.12-2.72-.004-1.45.19-1.87 1.437-3.117 1.243-1.25 1.663-1.44 3.113-1.44.893 0 1.02.02 1.6.3.348.17.82.5 1.048.732l.418.425-1.144 1.024c-1.586 1.42-2.988 3.03-4.186 4.803-.225.332-.445.605-.487.605-.05 0-.35-.283-.68-.627zm28.312-10.386c-3.717-.98-7.416-1.07-11.252-.274-.667.138-1.337.273-1.49.3l-.275.047.04-1.395c.032-1.174.075-1.487.267-1.976.314-.802 1.278-1.77 2.088-2.095l.582-.233h8.634l.582.233c.807.325 1.773 1.292 2.09 2.095.206.52.23.737.234 2.083.003 1.266-.02 1.505-.142 1.518-.08.008-.69-.128-1.358-.304z" fill="#3b97d0"/><path d="M89.02 75.65c-2.81-.197-6.92-.98-9.37-1.79l-.733-.24.652-3.11c.35-1.71.67-3.13.69-3.155.025-.026.48.102 1.003.285 1.08.375 3.195.93 4.643 1.22 1.74.348 3.26.507 5.392.564 7.976.212 11.797-2.013 12.946-7.54.093-.454.17-1.516.205-2.835l.053-2.11-1.008.47c-1.873.88-3.71 1.49-5.468 1.81-1.188.21-4.29.29-5.687.143-6.552-.685-11.243-4-13.85-9.794-1.34-2.97-1.92-6.288-1.823-10.44.052-2.346.19-3.506.616-5.334 1.894-8.056 7.72-13.258 16.07-14.35 1.34-.178 5.24-.205 7.246-.053 2.592.2 5.47.694 9.962 1.71l1.19.27-.03 19.598c-.035 21.31-.01 20.193-.562 22.68-.487 2.194-1.49 4.535-2.537 5.94-2.662 3.564-7.283 5.6-13.753 6.058-1.61.113-4.17.11-5.87-.008zm9.767-22.777c1.74-.378 3.594-1.098 4.85-1.884l.805-.51.024-11.95.025-11.95-.36-.1c-1.66-.447-3.63-.686-6.18-.754-3.05-.08-4.853.172-6.65.935-3.132 1.33-5.5 4.334-6.484 8.226-.825 3.264-.71 7.744.27 10.677.34 1.018 1.035 2.44 1.58 3.246 1.43 2.107 3.627 3.557 6.29 4.153 1.163.26 4.442.205 5.84-.098zm123.985 8.908c-7.163-.43-11.68-3.26-13.27-8.31-.378-1.202-.552-2.32-.612-3.96-.118-3.15.552-5.61 2.09-7.66 2.22-2.96 5.617-4.632 11.026-5.433 1.456-.216 5.844-.25 7.13-.054.804.12 3.712.658 4.146.764l.218.05V35.49c-.002-3.833-.69-6-2.474-7.797-.65-.653-.94-.862-1.794-1.286-1.605-.8-2.615-.986-5.335-.987-2.042 0-3.59.112-5.323.39-1.343.215-3.275.662-4.09.947l-.538.188-.41-2.92c-.227-1.61-.41-2.974-.41-3.037.01-.356 3.89-1.245 7.183-1.645 2.03-.248 6.78-.252 8.34-.008 4.54.71 7.56 2.42 9.55 5.403.953 1.43 1.563 2.976 1.98 5.007.45 2.214.44 2.06.44 16.67v13.87l-1.6.264c-3.684.6-8.285 1.08-11.98 1.24-2.442.1-2.442.1-4.277-.01zm8.885-6.29c.453-.05 1.054-.15 1.334-.2l.51-.102v-12.21l-.35-.147c-1.06-.443-3.55-.743-6.19-.746-4.202-.007-6.484.533-8.42 1.99-1.733 1.307-2.375 2.77-2.26 5.156.096 1.98.546 3.17 1.605 4.23.493.493.85.74 1.56 1.086.954.462 2.363.872 3.54 1.03.87.116 7.598.05 8.68-.086zM68.503 61.72c-1.97-.12-4.377-.618-5.745-1.187-.788-.328-1.69-.874-2.375-1.434-.99-.81-2.016-2.55-2.493-4.22-.57-1.99-.542-.57-.542-28.24V1.27l.267-.05c.146-.03 1.685-.295 3.42-.59 1.733-.296 3.25-.56 3.368-.586l.217-.05.028 25.635c.026 23.88.04 25.68.195 26.246.377 1.375 1.174 2.402 2.245 2.892.584.266 1.67.554 2.822.75.658.11.775.16.77.315-.003.102-.22 1.484-.482 3.07l-.477 2.887-.34-.02c-.19-.01-.58-.03-.87-.05zm112.554-.034c-3.137-.242-5.81-1.094-7.428-2.368-1.85-1.458-2.95-3.865-3.28-7.215-.1-1.015-.15-50.842-.05-50.842.07 0 6.85-1.16 7.1-1.21l.216-.05.027 25.73c.026 24.53.036 25.76.203 26.31.405 1.326 1.046 2.14 2.094 2.67.627.318 2.17.73 3.123.84.48.055.572.096.572.253 0 .17-.8 5.086-.93 5.728-.063.3.022.294-1.656.165zM-.27 60.972c0-.124 5.28-14.41 7.083-19.165 4.807-12.678 9.477-23.91 13.55-32.592l1.252-2.668 3.49-.025 3.49-.025.23.462c3.38 6.86 8.632 19.26 13.362 31.55 2.386 6.19 8.274 22.11 8.274 22.37 0 .11-.72.13-4.11.13h-4.11l-.6-1.63c-.714-1.928-1.232-3.388-2.814-7.93-.65-1.868-1.266-3.625-1.37-3.905l-.19-.51-12.336.025-12.336.024-2.4 6.74c-1.32 3.71-2.44 6.84-2.495 6.96l-.1.22H3.66c-2.16 0-3.93-.017-3.93-.04zm35.308-20.22c0-.218-4.423-11.896-6.01-15.872-1.6-4-4.032-9.633-4.122-9.542-.194.194-2.92 6.494-4.298 9.93-1.73 4.313-5.746 15.102-5.746 15.43 0 .12 1.446.14 10.088.14 5.656 0 10.088-.038 10.088-.085zm156.85-.206V20.08h7.274v40.933h-7.275V40.546zm2.24-27.993c-.743-.2-1.424-.593-2.006-1.16-.888-.865-1.303-1.958-1.3-3.432 0-1.53.362-2.51 1.26-3.41.91-.91 2-1.342 3.387-1.34 1.44.006 2.34.34 3.3 1.23 1.5 1.39 1.87 3.88.87 5.91-.498 1.014-1.54 1.835-2.808 2.21-.654.194-1.997.196-2.713.003z" fill="#555656"/></svg>