<svg xmlns="http://www.w3.org/2000/svg" height="64" width="55.313"><defs><marker orient="auto" overflow="visible"><path d="M-10 0l-4 4L0 0l-14-4 4 4z" fill-rule="evenodd" stroke="#000" stroke-width=".8pt"/></marker><marker orient="auto" overflow="visible"><path d="M10 0l4-4L0 0l14 4-4-4z" fill-rule="evenodd" stroke="#000" stroke-width=".8pt"/></marker></defs><path d="M.16 16.072l.005 31.95 27.19-15.244L27.35.828z" fill="#8686bf" fill-rule="evenodd"/><path d="M.165 48.022l27.19-15.244L55 48.27 27.81 63.514z" fill="#d7d7ff" fill-rule="evenodd"/><path d="M27.35.828l.006 31.95L54.998 48.27l-.005-31.95z" fill="#afafde" fill-rule="evenodd"/><path d="M.16 16.072l.005 31.95 27.643 15.492-.005-31.95z" fill="#e6e6e6" fill-rule="evenodd"/><path d="M.16 16.072L27.35.828 54.994 16.32l-27.19 15.244z" fill="#f9f9f9" fill-rule="evenodd"/><path d="M27.803 31.564l.005 31.95 27.19-15.244-.005-31.95z" fill="#b3b3b3" fill-rule="evenodd"/><path d="M27.656 0L0 16v32l27.656 16 27.656-16V16L27.656 0zm0 2.5l25.5 14.75v29.5l-25.5 14.75-25.5-14.75v-29.5l25.5-14.75z" fill="#a82353"/><path d="M6.76 29.673c.94.527 1.665 1.753 2.176 3.68.51 1.915.767 4.338.767 7.268 0 2.98-.258 5.13-.778 6.47-.52 1.33-1.24 1.73-2.162 1.22-.48-.27-.91-.73-1.285-1.373-.377-.65-.684-1.47-.923-2.47l-.09-.05c-.135 1.237-.215 1.95-.24 2.145l-.838-.47-.004-25.52 1.17.656v6.2c0 1.237-.022 2.46-.065 3.67l.065.038c.48-1.524 1.216-2.008 2.208-1.453m-.19 2.33c-.712-.402-1.23-.18-1.54.676-.31.852-.465 2.504-.465 4.953v.13c0 2.46.16 4.31.475 5.545.32 1.23.84 2.046 1.564 2.45.64.36 1.115.037 1.43-.97.312-1.014.47-2.642.47-4.884 0-2.27-.16-4.065-.476-5.38-.315-1.314-.8-2.154-1.454-2.52M14.6 52.7c-1.067-.6-1.907-1.886-2.52-3.857-.604-1.98-.91-4.4-.91-7.262 0-2.88.285-5.02.85-6.41.568-1.4 1.334-1.83 2.3-1.283.896.502 1.61 1.635 2.143 3.4.532 1.75.8 3.873.8 6.366v1.788L12.38 42.7c.02 2.057.225 3.725.614 5.004.39 1.28.942 2.12 1.656 2.52.38.213.744.334 1.086.36.342.018.742-.09 1.2-.326v2.592c-.393.206-.763.3-1.11.28-.345-.02-.754-.16-1.226-.425m-.294-16.416c-.558-.32-1-.11-1.324.62-.325.72-.517 1.88-.578 3.46l3.63 2.033c-.01-1.69-.163-3.053-.462-4.095-.298-1.04-.72-1.716-1.266-2.02m8.09 2.12c.316.175.596.4.838.664l-.142 2.642c-.265-.3-.522-.522-.773-.662-.38-.21-.73-.146-1.06.197-.32.346-.57.932-.755 1.76-.18.816-.27 1.787-.27 2.913v9.61l-1.168-.654-.004-18.01.96.54.13 3.37.054.03c.274-1.04.596-1.76.968-2.165.374-.4.78-.48 1.216-.234m3.354 20.21l-1.17-.652-.004-25.52 1.17.654.004 25.52" style="line-height:125%"/><path d="M31.63 57.68l-1.093.612-.003-17.736 1.094-.613.003 17.736M30.45 35.8c0-.646.06-1.148.18-1.507.13-.362.28-.594.466-.696.17-.095.318-.033.444.19.13.216.193.65.193 1.294 0 .64-.063 1.14-.193 1.52-.126.37-.274.603-.444.7-.182.1-.336.04-.462-.195-.12-.233-.18-.667-.18-1.303m7.633 13.36c0 1.66-.232 3.077-.698 4.253-.47 1.166-1.12 1.985-1.97 2.457-.88.49-1.58.51-2.098.06v-2.65c.733.536 1.44.614 2.12.232.55-.307.952-.77 1.203-1.384.25-.615.376-1.32.376-2.118 0-.7-.12-1.225-.364-1.573-.24-.35-.667-.667-1.28-.946-.63-.295-1.07-.596-1.327-.906-.257-.32-.446-.73-.567-1.233-.117-.508-.176-1.17-.176-1.988 0-1.455.224-2.727.67-3.816.444-1.09 1.056-1.855 1.833-2.29.76-.425 1.467-.424 2.128 0l-.37 2.52c-.68-.373-1.29-.41-1.83-.104-.455.255-.8.64-1.034 1.16-.235.51-.352 1.098-.352 1.765 0 .646.103 1.128.305 1.445.202.307.674.63 1.415.967.555.24.964.52 1.227.85.264.323.46.746.59 1.268.122.523.185 1.198.185 2.027m4.287 2.816c-.96.54-1.705.178-2.24-1.084-.535-1.27-.803-3.373-.803-6.3 0-2.974.267-5.41.806-7.32.544-1.92 1.316-3.16 2.316-3.72.324-.18.644-.27.96-.264.32-.004.583.075.79.24l-.334 2.61c-.564-.245-1.044-.256-1.44-.034-.67.377-1.17 1.22-1.49 2.53-.32 1.3-.48 3.064-.48 5.293 0 2.142.16 3.694.48 4.657.323.95.796 1.25 1.424.9.588-.33 1.165-1 1.73-2.006l.003 2.585c-.462.89-1.035 1.53-1.72 1.915m9.1-14.327c0 2.895-.275 5.31-.826 7.245-.55 1.936-1.31 3.176-2.283 3.72-.603.34-1.138.267-1.604-.215-.465-.492-.824-1.367-1.075-2.627-.25-1.26-.374-2.815-.375-4.67 0-2.883.27-5.28.814-7.19.54-1.92 1.302-3.152 2.282-3.702.94-.528 1.686-.12 2.237 1.216.555 1.328.833 3.4.833 6.22m-5.036 2.826c0 2.225.165 3.83.493 4.81.33.964.82 1.27 1.463.91.636-.36 1.12-1.208 1.452-2.546.332-1.35.498-3.14.497-5.368 0-2.23-.17-3.81-.508-4.74-.332-.946-.82-1.238-1.464-.877-1.294.723-1.94 3.324-1.94 7.804" style="line-height:125%" opacity=".799"/></svg>