<svg xmlns="http://www.w3.org/2000/svg" width="55.426" height="64"><defs><clipPath id="a"><path d="M0 848.508h734.828V0H0v848.508z"/></clipPath><clipPath id="b"><path d="M29.283 813.686h676.245V32.824H29.283v780.862z"/></clipPath><clipPath><path d="M282.346 565.025h81.04v-101.63h-81.04v101.63z"/></clipPath><clipPath><path d="M346.3 582.1h44.085v-36H346.3v36z"/></clipPath><clipPath><path d="M320.234 592.964h23.27V570.97h-23.27v21.994z"/></clipPath><clipPath><path d="M368.607 536.753h21.18v-22.316h-21.18v22.316z"/></clipPath><clipPath><path d="M185.32 483.755h313.7v-187.46h-313.7v187.46z"/></clipPath><clipPath><path d="M197.084 284.262h36.758v-22.076h-36.758v22.076z"/></clipPath><clipPath><path d="M178.808 287.926h26.827V216h-26.827v71.926z"/></clipPath><clipPath><path d="M109.407 328.866h75.237V217.243h-75.237v111.623z"/></clipPath><clipPath><path d="M125.116 326.957H156.3V221.792h-31.184v105.165z"/></clipPath><clipPath><path d="M115.914 249.455h27.816V219.91h-27.816v29.545z"/></clipPath><clipPath><path d="M124.42 291.653h60.933v-69.518H124.42v69.518z"/></clipPath><clipPath><path d="M228.078 283.592h53.183v-67.246h-53.18v67.246z"/></clipPath><clipPath><path d="M273.968 288.607h64.816V215.04h-64.816v73.567z"/></clipPath><clipPath><path d="M336.753 283.627h39.664V214.98h-39.664v68.647z"/></clipPath><clipPath><path d="M339.103 235.62h23.24v-22.633h-23.24v22.633z"/></clipPath><clipPath><path d="M332.54 236.547h15.416v-13.8H332.54v13.8z"/></clipPath><clipPath><path d="M347.854 282.79h29.94v-20.252h-29.94v20.25z"/></clipPath><clipPath><path d="M371.53 281.47h8.787v-17.694h-8.786v17.694z"/></clipPath><clipPath><path d="M375.158 281.414h54.353v-68.94h-54.35v68.94z"/></clipPath><clipPath><path d="M418.47 288.328h35.454V207.87H418.47v80.458z"/></clipPath><clipPath><path d="M444.307 284.354h34.097v-21.417h-34.097v21.417z"/></clipPath><clipPath><path d="M465.824 290.764h35.223V208.96h-35.223v81.804z"/></clipPath><clipPath><path d="M488.49 329.35h16.38v-36.875h-16.38v36.874z"/></clipPath><clipPath><path d="M489.61 314.615h11.687v-20.58H489.61v20.58z"/></clipPath><clipPath><path d="M494.77 327.636h63.034V203.994H494.77v123.642z"/></clipPath><clipPath><path d="M504.778 272.12h7.812v-17.095h-7.812v17.096z"/></clipPath><clipPath><path d="M523.76 267.7h7.33v-7.42h-7.33v7.42z"/></clipPath><clipPath><path d="M540.49 307.98h78.045V178.325H540.49V307.98z"/></clipPath></defs><path d="M27.656 0L.1 15.91v31.82l27.556 15.907 27.556-15.91v-31.82L27.656 0z" fill="#3d6a92"/><g clip-path="url(#a)" transform="matrix(.075 0 0 -.075 -.001 64.001)"><path d="M29.283 618.47l338.12 195.216L705.53 618.47V228.04L367.404 32.824 29.284 228.04v390.43z" fill="#222" clip-path="url(#b)"/><path d="M338.07 725.154c-8.812-.163-19.838-5.66-27.726-3.76-3.148.757-6.996 1.084-10.762.88-.066-.004-.134.004-.2 0-3.83-.228-7.568-1.035-10.322-2.72-.114-.07-.245-.135-.36-.2-.11-.16-.225-.306-.36-.44-3.662-3.66-11.76-3.996-15.524-7.762-3.077-3.077-5.928-8.968-9.323-14.245-.033-.05-.047-.11-.08-.16-12.08-14.08-21.718-31.408-25.126-45.57-2.802-11.636-2.763-27.352-7.362-38.93-1.286-3.238-6.62-21.16-2.48-24.646 2.818-2.37 14.834-4.19 18.365 0 1.898 2.26 19.317 7.9 24.765 14.37 6.415 7.62 9.725 20.78 14.123 31.85.7 1.76 1.6 3.63 2.642 5.48 2.494-4.83 4.475-8.775 5.52-11.2 2.178-5.045 4.573-12.024 6.562-19.484-4.31-6.602-2.514-15.636.6-19.764-12.603-3.923-6.6-17.482-7.08-17.965-.832-.83-3.46-1.94-4.523-3-1.32-1.315-1.52-4.056-1.52-6.042 0-1.913.24-3.616.6-5.12-11.47-28.846-22.29-64.953-35.97-84.42-3.94-1.796-7.97-3.336-12.69-4.28-9.196-2.3-32.435-6.855-52.01-13.445-.85-1.124-1.84-2.24-2.96-3.36-1.94-1.94-5.826-1.94-7.766-3.88-1.508-1.506-6.213.19-7.72-1.32-4.478-4.476-11.088-6.8-18.126-10.322-.78-.39-3.283.6-3.88 0-3.198-3.196-8.924-5.04-11.643-7.76-5.324-5.323-9.785-11.104-15.525-16.845-5.707-5.702 5.927-21.412 7.76-23.244 5.392-5.393 15.295-6.253 20.686-11.643 2.27-2.267 9.87.766 12.602-1.04.704-.097 1.334-.23 1.76-.44 7.943-3.97 23.522-6.907 32.927-10.042 12.96-4.32 23.24-15.863 36.61-19.203 10.176-2.546 21.734-3.9 32.007-7.326 4.294-1.43 9.51-.446 13.684-1.84 7.807-2.6 14.853-5.83 21.966-8.2 2.46-.82 5.716.634 8.24 0 5.68-1.417 11.817-1.83 17.365-3.68 9.874-3.29 23.05 3.293 32.926 0 6.51-2.166 47.034 1.303 50.293 4.56 2.396 2.397 11.51-.646 14.645.922 2.724 1.36 10.99.025 12.805 1.84 4.683 4.686 14.31 4.892 21.004 8.24 2.816 1.41 7.16-.54 10.08.92 1.68.84 5.094-.193 8.8-1.8 7.05.15 12.48.88 19.524.88 8.38 0 19.95 3.98 32.21 10.004 13.564 3.055 30.15 6.586 30.93 7.36 5.89 5.9 21.56 4.2 27.41 10.045 4.14 4.14 9.46 5.82 13.72 10.08 3.8 3.8 9.013 8.148 14.482 12.725.952 2.656 3.39 5.15 5.642 7.4.943.947 7.602 20.442 6.4 22.846-2.204 4.41-5.845 8.06-10.043 11.447-1.302.447-2.3.898-2.76 1.36-4.48 4.483-15.22 5.18-19.203 9.163-6.415 6.414-16.06 12.18-27.567 16.04-2.41 1.196-4.662 2.466-6.28 4.08-2.05 2.052-13.89 4.667-17.36 6.403-1.867.93-5.93-.512-7.32.88-3.38 3.378-17.54 5.786-27.77 9.04-1.49-.093-3.88 1.048-4.32 1.48-.308.31-8.237 1.478-10.84 4.084-.298.296-1.364 10.92-1.364 12.243 0 .487-1.184 2.456-.48 3.16.11.11.22.24.32.36-4.733 29.173-8.354 61.385-11.762 64.256-5.06 4.262-7.872 27.8-13.44 32.487-5.82 4.9-9.464 10.263-13.963 14.442-.004.015.003.03 0 .04-1.694 9.3-4.906 19.75-5.92 20.606-1.65 1.39.85 7.692-.803 9.08-5.137 4.326-11.824 29.753-16.642 33.81-6.31 5.313-9.414 13.56-15.405 18.604-14.805 12.466-39.393 31.017-66.577 29.608-1.166.33-2.305.726-3.4 1.16-1.73.687-3.686.918-5.72.88" fill="#3d6a92"/><path d="M332.202 563.72c-2.283.412-4.516.436-6.267-.146-2.916-.967-7.618 1.325-10.664.775-11.51-2.08-20.54-5.2-22.09-9.07 17.09 4.9 36.06-6.04 43.838-16.43 3.23-4.32-1.753-10.87.006-16.17.4-1.2.716-8.883-.667-9.917-2.89-2.163-2.604-9.71-4.995-13.156-5.627-8.106-10.535-14.03-15.316-20.915-4.93-7.1-18.11-8.525-25.467-10.968-1.627-.54-3.67.582-5.388.013-.405-.133-.877-.155-1.348-.09.164-.19.355-.366.49-.548.62-.83 3.648-.04 4.533-.65 5.714-3.97 28.335-2.45 34.61-.365 3.9 1.295 7.52 3.208 11.422 4.503 5.004 1.66 9.93 9.445 13.524 13.45 12.36 13.78 18.01 37.65 11.896 56.073-3.074 9.26-11.12 14.81-17.968 19.563-2.34 1.626-6.34 3.35-10.147 4.037m27.577 17.796c-.735.022-.838-7.185-.896-10.62-.35-.02-.33-.453-.24-.944-3.716-1.65-11.804-4.955-11.185-5.616.03-.01.03-.033.047-.044-.293-.015-.6-.114-.614-.52-.03-.533 1.07-.028 1.602-.047.865-.03 8.387-2.805 11.376-4.06.374-2.84 1.466-4.54 1.466-7.788 0-2.024.4-4.813.52-4.813.042 0 .125.064.186.097.09-.35.19-.56.33-.425.59.55 1.658 2.026 2.74 3.68.046.07.096.12.14.19 1.907 2.363 4.086 5.386 5.945 8.118 3.61-.525 6.915-.944 7.74-.944.4 0 14.107-2.354 10.15 1.606-.24.24-.523.444-.804.66.09.07.14.14.14.234.03.766-7.622 4.284-8.87 5.617-.6.64-1.473 1.057-2.077 1.7-.157.17.14.64.614 1.32v.05c1.066 1.174 2.2 2.387 3.02 3.207.396.394 2.61 4.538.51 4.265-1.42-.185-6.05-.478-12.112-2.254 0 0-1.64 2.14-1.65 2.135-1.318.54-5.05 5.098-8.077 5.197h.008zm-34.245 1.067c-.44-.21-1.1-1.07-1.31-.632-.21.438 1.747.843 1.31.633-1.304-.63-6.343-5.168-4.486-6.604 1.53-1.18 7.194 1.03 9.6.19.357-.12 4.35-6.25 4.976-4.46 1.02 2.92-.246 7.88-.21 7.974.47 1.346 4.155.794 5.055 1.228.748.36 2.258.998 2.465 1.595.056.16.096.64.17.484.06-.124-.985.89-2.26 1.334-1.903.666-3.83.25-5.193.727-.63.22.13 3.92-.1 4.394-.75 1.554-1.224 3.38-1.093 3.106.372-.774-1.61-.757-2.136-1.436-.653-.843-2.363-3.706-3.47-3.69-1.324.02-6.633 1.283-6.99.263-.027-.058 3.31-3.36 3.67-5.095zm51.314-51.502c-.356.33-1.395.636-1.066.99.33.357 1.42-1.32 1.066-.99-1.06.986-7.128 4.024-7.785 1.77-.55-1.852 3.575-6.323 3.67-8.87.03-.38-4.24-6.332-2.34-6.26 3.09.115 7.25 3.1 7.347 3.103 1.422.053 2.252-3.583 2.986-4.263.604-.562 1.747-1.736 2.38-1.713.172.002.63.14.51.02-.092-.106.47 1.24.42 2.59-.08 2.01-1.165 3.652-1.22 5.1-.027.662 3.7 1.31 4.056 1.69 1.175 1.266 2.7 2.37 2.495 2.15-.58-.627-1.29 1.226-2.114 1.467-1.022.3-4.31.85-4.7 1.884-.464 1.243-1.225 6.647-2.3 6.607-.065 0-1.928-4.304-3.41-5.27v-.003zm116.704-47.86c-1.032-3.554-7.513-14.954-10.24-17.682-3.51-3.51-6.53-7.167-9.604-10.243-2.18-2.18-8.404-7.76-10.244-9.6-4-4.004-6.345-2.508-10.88-7.045-2.25-2.248-6.775-2.29-8.963-4.48-1.98-1.98-17.866-3.17-21.765-5.122-.946-.47-3.766.72-4.485 0-2.803-2.8-24.95-3.82-25.606-4.48-3.39-3.39-12.42.517-17.287-1.92-4.317-2.157-12.884-.64-17.924-.64-2.79 0-10.21.055-17.844.24-1.802.255-3.222.458-3.28.4-.04-.037-.212-.215-.32-.32-1.434.045-2.815.105-4.2.16-.862.33-1.78.534-2.52.16-.036-.02-.084-.022-.12-.04-5.96.29-10.824.71-12.043 1.32-5.01 2.506-10.39 3.2-16.647 3.2-9.79 0-31.463 11.575-39.05 15.365-1.16.583-4.38 3.96-6.12 4.88-.01.67-.034 1.28-.28 1.522-1.78 1.782-2.562 5.77-3.84 8.32-.53 1.06 0 4.95 0 4.48 0-.02 1.29 5.12 1.28 5.12-1.1 0-6.83-7.47-8.96-9.6-.02-.02.04-.138.08-.24-1.2-1.654-2.04-4.12-2.04-7.84 0-12.69 6.997-13.36 13.56-19.93 1.61-1.61 5.065-.54 6.32-1.8 1.29-1.285 3.176-2.425 5.406-3.44-2.79-1.633-8.163-2.037-9.924-3.8-1.72-1.72-9.71-6.674-12.68-8.16-.56-.28-3.267-.585-3.602-.92-16.91-16.91-35.997-27.838-51.613-43.45-1.316-1.316-1.8-18.486-1.8-21.727 0-5.66-1.922-11.644 1.8-15.368 1.57-1.57 6.776-.452 8.16-1.84.3-.3 4.087-3.117 4.523-2.68 1.65 1.65-.92 10.29-.92 12.64 0 12.365 1.333 24.864 9.08 32.61 14.94 14.943 36.243 21.76 49.773 35.29 3.976 3.977 11.26 6.094 16.564 10.442-.186-1.276.03-2.477.96-3.48.618-.67 2.82.653 3.6.237 5.316-2.815 21.517-8.86 26.287-3.04.865-1.64 1.55-3.31 2.4-4.16 3.177-3.175.693-18.5-.92-21.724-6.084-12.167-9.292-47.3-14.482-52.492-.895-.897 1.076-9.435 1.8-10.885 1.886-3.77-1.378-12.18 0-13.566 1.36-1.358.484-4.965 1.842-6.32 1.233-1.237 6.884.317 8.12-.92.49-.492 6.93-4.873 8.162-3.64 1.02 1.018-2.795 12.788-3.64 14.48-.734 1.463 1.962 28.255 2.72 29.008 1.053 1.06-1.06 5.267 0 6.32 2.055 2.06 4.52 44.675 4.52 50.696 0 1.014 2.596 7.364.92 9.04-.01.01-1.5 3.43-3.52 6.76 2.982-.22 5.5-.58 6.24-1.32 1.327-1.33 28.114 0 32.567 0 17.69 0 45.51 1.37 56.136 3.64 4.234.907 14.276 1.7 19.925 4.52 3.277 1.64 14.824 2.76 16.842 3.284 4.315 1.11 18.17 4.445 22.045 8.32 2.876 2.875 12.705 12.835 16.322 14.642 4.082 2.04 6.13 9.29 8.52 12.643.31 2.486 6.995 8.977 5.683 11.603-1.49 6.062-2.42 12.33-4.802 12.562M217.666 283.76c-1.566-.014-3.028-.288-4.188-.87-2.596-1.296-6.062-.666-8.654-1.962-2.496-1.248-3.763-2.952-5.787-4.326.236.716.474 1.417.712 2.12-.27-.318-.524-.647-.817-.94-.286-.285-.42-.755-.47-1.32-.047-.563-.018-1.208.018-1.86.038-.65.085-1.31.054-1.858-.025-.412-.158-.68-.296-.94 4.386 2.085 10.206 4.34 12.095 2.45 1.567-1.566 2.272-3.47 3.927-5.124.26-.263.84-.38 1.42-.54.33 0 .64.06.87.175.133.07.48-.023.59.086.353.36.483.68.882 1.08.3.3.59 1.12.59 1.58 0 .49-.357 1.44-.696 1.78-.117.12-.868.665-.868.78 0 .588 2.002-.84 2.05-.884.13-.13-.027-.547.103-.68.194-.19-.03-.524.108-.8.453-.91-.35-2.4-.8-2.85-.538-.534.675-.21.886 0 .202.205.41.62.59.8.015.016-.01.28 0 .28.177 0 .17-1.496 0-1.67-.536-.534-1.04-.986-1.91-1.18 2.035-1.505 4.91-2.755 6.394-4.24.42-.422 2.883.138 3.146.4 1.87 1.87 3.224 5.19 5.51 7.47.705.71-.57 4.116-.784 4.33-.88.876-.704 3.064-1.967 4.327-2.27 2.27-8.02 4.44-12.72 4.396m-18.013-34.62c-.11-.1-.21-.17-.21-.07 0 .014.086.03.21.07m1.077 38.266c-.098-.023-.19-.085-.278-.173-.05-.05-.248.05-.298 0-.303-.3-.82-.42-1.18-.78-.998-.994-1.87-2.02-2.887-3.06-4.845-1.745-9.358-3.23-14.825-3.873.41-.04.83-.1 1.25-.175-.874-.08-2.27-.04-2.71-.26-.133-.064-.8-.26-.923-.277.233.024 1-.017 1.114-.017.69 0 1.42-.205 2.07-.205.97 0 2.12.03 3.23.05 1.83-.61 3.53-1.473 4.74-2.466.695-.57-.135-4.464-.293-5.163-.735-3.23 1.966-12.494.26-14.58-.75-.91.41-3.547.693-5.367.884-.675 1.68-2.875 1.93-3.373.23-.462.832-1.025.832-1.527 0-.07-1.13 1.13-1.25 1.25-.174.172-1.042 1.31-1.652 1.894-.07-.42-.116-1.023-.14-1.736.37-.38.77-.76.958-1.13.37-.74.752-1.447 1.25-1.945.424-.427-.87.295-1.11.415-.154.077-.6.45-1.098.8.038-4.02.427-9.65.59-11.313.346-3.48-.132-6.787-.138-6.723-.01.085-1.68-2.057-2.816-3.44-1.68-2.05-3.69-5.24-5.752-7.872.892.887 2.03 1.977 3.128 2.468 2.53 1.132 8.76 6.01 12.46 8.585.82-.59 2.55 2.036 5.11-.522.33-.33 1.37-3.543 1.165-3.543-1.8 0-2.13-1.78-1.163-2.743.494-.494.975-.264 1.356.26.397 1.126.79 2.636.088 3.337-.114.115.117.58 0 .694-.626.627-.36 1.89-1.11 2.64-.26.26-1.37.85-1.65 1.46-.02.02-.05.03-.07.05-.206.208-.647.18-.957.28-.23.3-.706.878-.26 2.05.785 2.05 1 5.79.78 7.976-.07.735.02 2.3.195 4.1v.02c.276 1.062.713 2.205 1.093 2.97.295.592-.05 1.896.4 2.345.24.24.21.75.19 1.25-1.287-.33-2.808-.692-3.39-.866.07.064.146.144.19.19.157.155.69.275.973.416.934.467 1.78.963 2.31 1.218.03.06.06.11.106.157.83.83.09 3.38-.748 5.178-.034.46-.03.906.033 1.34.384 2.6.358 5.27.296 7.94-.14.01-.295.02-.47.02-.075 0-1.727.084-2.137.032.11.045.414.215.747.382.195.096 1.09.206 1.843.295-.01.476-.027.95-.036 1.424-1.303-.11-3.266-.26-3.058-.05.334.33 2.155.31 2.64.555.057.03.207.09.4.155-.02 1.588.002 3.173.14 4.744.163.1.37.212.54.312.11.27.207.54.19.953-.022.55-.125 1.194-.226 1.84-.1.644-.2 1.293-.21 1.86-.006.564.095 1.042.35 1.355.263.32.477.665.71 1.007.084.35.167.71.246 1.06.29 1.277-.48 3.133-.02 4.345.076.192.68 1.067.66 1.25-.005.064-.07.083-.172.07-.51-.07-2.045-.976-3.077-1.565.23.82-.53 1.91-1.162 1.758m-29.435-61.55c.43-.164.913-.29 1.044-.16.095.095-.47.134-1.043.157m-8.34 60.07c-2.71-2.862-5.633-4.793-7.73-5.3.057-.034.118-.056.175-.087-1.836-.443-3.56-.934-4.5-1.875-.183-.183-.928.117-1.165 0-4.846-2.42-11.59-1.75-14.948-5.11-2.07-2.07 13.606 1.963 13.763 1.963 1.352 0 4.296.585 5.492 1.183.58.297 2.095 0 2.76 0 4.393 0 6.873-1.48 11-3.54 1.264-.632 1.63-2.014 2.363-2.743 1.445-1.448 3.183-2.822 4.327-5.11.34-.68-.165-3.382.4-3.946 3.557-3.557-3.156-20.443-5.51-22.8-2.74-2.737-5.838-5.436-8.255-7.852-1.07-1.073-2.797-1.234-3.928-2.365-.576-.574-2.23-.33-3.16-.795-3.13-1.565-6.195-1.526-9.437-3.147-.875-.436-2.636-.594-4.674-.68l-4.17.906c-1.26-.797.98.672-.485-.208-.42-.253-.95-.887-1.563-.887-.275 0-1.876.695-2.067.505-.195-.19-.764-.273-.99-.502l-.89-.87c-.813-.812.304-2.572 1.477-2.572.542 0 .645 1.05.886 1.29.535.533 1.716.885 2.556.885.022 0-.105-.147-.105-.19v-.99c0-.387-.04-1.853-.19-2.155-.134-.27-.06-.63-.19-.89-.047-.093-.21-.297-.106-.297.374 0 .31 2.85 1.875 2.85 1.015 0 1.512-.764 2.345-1.18.416-.21.98-.197 1.39-.402.25-.122.53-.166.78-.293.08-.04.49-.32.49-.293 0 .3-1.704 1.073-2.224 2.154 3.16.66 6.62.04 9.8.677 5.264 1.05 10.124 2.178 15.068 4.606.02-.194.07-.35.177-.453.12-.123 1.13.418 1.266.487 1.067.53 4.167.525 5.216 0 .028-.013.537-.015 1.027-.034-.356.13-.682.28-.73.33-.13.13-1.82.45-2.362.99-.156.16-.266.45-.33.814 9.626 9.547 18.76 16.39 15.677 31.8-.83 4.148-1.59 8.653-3.942 12.182-3.9 5.85-11.7 4.66-14.37 6.916-.52.115-1.077.194-1.286.487-.017 0-.087-.006-.087 0s.042.04.052.05c-.036.062-.054.133-.054.222 0 1.834 5.25 2.913-.903 6.273m-7.49 42.33c-.754-.09-1.5-.216-2.21-.452-4.772-1.59-9.17-3.576-13.76-5.107-1.743-.58-3.77-2.475-5.11-3.145-5.55-2.773-10.5-5.764-15.674-8.634-.71-.18-1.36-.274-1.617-.02-4.185 4.185 4.003 6.537 2.745 9.054-1.95 3.907-8.183-1.09-9.053-1.96-.825-.826-.782-2.69-.782-4.327 0-.308-.195-1.767 0-1.964.916-.918.873-2.455 1.964-3.546 1.903-1.905 5.417-1.766 7.837-.82.023-.044.046-.074.07-.12 1.043.482 1.826.854 1.928.94 4.468 3.678 8.483 5.23 13.763 7.87 1.38.69 7.26 4.412 8.655 5.108 1.86.93 4.69 1.428 7.47 1.965.523.52 1.2.84 1.98 1.004.593 1.398 1.18 2.77 1.79 4.154m-29.74-28.407c-.046-.005-.087-.015-.087-.036l.088.037m28.64-72.813c.357-.05.61-.04.61.07 0 .11-.25.05-.61-.07m1.22 99.42c-.654.03-2.224-.92-2.835-.92-2.17 0-15.706-6.81-16.96-8.063-.69-.69-.957-3.46-1.39-3.89-1.21-1.21-1.9-4.356-2.69-7.3-.55-1.33-.906-2.832-1.48-3.406-.202-.206-.105-.803-.275-.973-.516-.514-1.433-.874-1.808-1.25-.138-.14-1.18-.243-1.53-.417-.37-.187-.77-.344-.887-.384.242.02.985-.154 1.025-.176.225-.11.646-.09.833-.276.254-.25.655-1.11.973-1.11 2.647 0-.915 1.5 1.41 1.65.888-.915 3.63-6.52 4.294-9.28.006-.03.014-.054.02-.085.043-.294.07-.64.104-.973.02-.624.067-1.197.12-1.72.32-6.88-.765-18.38-.765-22.42 0-2.707-.388-11.786.4-13.36.354-.71-.14-1.84-.4-2.362-1.383-2.765 1.167-14.985-.644-17.516.345-.5.603-1.07 1.025-1.493.18-.18 1.625-5.54 2.396-8.43 3.397.033 6.837-.02 8.726.92 1.988.996 4.334 1.613 6.117 2.505.387.194 2.085 1.013 3.01 1.32-1.274.188-4.193 1.184-4.396 1.184-.555 0-1.206.15-1.895.4.07.012.14.034.21.05-2.393 1.603-4.182 5.615-3.545 8.69-1.15 6.402-.314 16.413-.314 22.07 0 6.025.69 12.325.78 18.68-.48-.145-.95-.247-1.076-.12-.278.275-.41 2.68-.59 4.15-.205.463-.346.813-.383.85-.536.54-.936 1.32-1.25 1.946-.034.07-.524.835-.416.835.26 0 1.17-1.31 1.39-1.53.05-.05.104-.08.174-.1h.016c.272-.036.48-.057.502-.036.38.38-.28 1.27-.28 1.39 0 .32.044.747.088 1.22.405-.33.782-.488 1.026-.245 1.033 1.034-.84 5.7-1.39 6.254-.088.084 0 .7 0 .835 0 .415-.095.872-.21 1.336.01.835.055 1.633.172 2.294.22-.24.44-.5.59-.572.655-.327.93 1.026 1.114 1.39.5 1.004-.268 3.04-1.25 4.99-.145 3.876-.557 9.06-.8 11.432v.016c.125.612.28 1.255.66 1.633.393.392 1.112 0 1.668 0-.98-.627.758-2.86 2.225-1.39 2.354 2.352 3.88 6.38 6.117 8.62.237.233 2.744 2.815 2.503 3.06-.05.05-.13.08-.223.083m-32.654-77.51c-.21-.04-.77-.505-.904-.57-.724-.36-1.696-.58-2.226-1.11-.6-.6-1.407-.85-2.085-1.53-.466-.466-.79-1.067-1.254-1.53-.173-.177.554-1.658.698-1.946.278-.558.275-1.25.557-1.81.26-.52.39-2.475.7-2.78.29-.29.14 0 .276.14.067.064.258-.3.417-.14.345.342 1.127.145 1.67.416.954.478 3.145-.095 4.17.417.494.246 1.156.41 1.842.52.047-.04.08-.08.124-.12-.006-.013-.014-.024-.018-.035.1-.072.198-.15.296-.226.268-.238.53-.46.68-.538.003-.005.014 0 .017 0 .587-.495 1.144-1.04 1.81-1.705.965-.967 2.51-7.827 2.745-8.064.997-.996 1.07-4.215 1.964-5.11.513-.513.744-1.144 1.18-1.58.544-.545 1.505-.723 1.965-1.18.58-.584 3.68 3.084 4.136 3.542.2.198.468.898.59.972.306.18.818.083.975.4.04.08-.037.126-.155.155l-4.953 5.16c-.933 0-1.87 4.234-2.745 5.11-2.65 2.65-4.55 4.857-6.794 7.16-.406.736-.74 1.52-1.423 2.206-.642.645-1.613 1.285-2.084 2.224-.108.216-1.334 1.514-1.737 1.424-.028-.006-.05-.017-.07-.035-.026-.025-.046-.06-.07-.085-.057.07-.13.144-.21.225-.01.014-.04.023-.07.017m36.73 33.35c-1.443-.254-2.865-.71-4.117-1.25-1.255-.116-2.506-.235-3.668-.644-4.774-1.677-9.17-3.76-13.763-5.37-1.74-.61-3.77-2.615-5.11-3.32-2.72-1.43-5.29-2.917-7.82-4.416-.28-.656-.345-1.342.034-2.102.325-.652.7-1.06 1.092-1.32 2.428 1.405 4.962 2.59 7.872 4.12 1.38.73 7.26 4.655 8.653 5.39 1.86.977 4.69 1.503 7.47 2.066.83.87 2.04 1.21 3.428 1.2.423-.003.87-.04 1.32-.106.348.09.63.12.747 0 .06-.064.12-.14.19-.19.62-.136 1.25-.293 1.877-.505 1.425-.13 3.108-.07 4.05-1.06 1.615-1.7 5.295-2.95 7.23-4.99 1.22-1.286 1.163-3.91 1.946-5.56.32-.676 1.504-6.013 1.424-6.916-.014.15-.03.295-.09.417-.25.537-.726 1.9-.99 2.175l-.884.92c-.157.168-.464.11-.66.16-.002 0 0 .02 0 .02-.014.04-.028.06-.053.085-.33.348-.7.186-1.043.367-.147.077-.35-.004-.487.07-1.413.745-2.71-1.572-2.71-2.85 0-.74 1.195-2.272 2.12-2.502.196.197 1.005.147 1.268.28.36.182.837.59 1.098.59.063 0-.513-.407-.886-.78-.17-.17-.53-.395-.85-.66.054-.204.113-.403.243-.54.05-.05-.05-.26 0-.31.245-.26.324-.634.33-1.045.492.01 1.044.104 1.356.104.51 0 1.075.31 1.075.19 0-.14-1.266-.33-1.475-.398-.34-.115-.66-.208-.975-.316-.03-.397-.095-.807-.123-1.18-.01-.002-.024 0-.036 0-.087-1.29-.305-2.56-.61-3.79.007-.15.01-.3.02-.45-.173-.47-.37-.916-.556-1.354-2.768-8.363-9.774-14.78-13.764-15.795.055-.035.117-.055.174-.087-1.836-.47-3.56-.99-4.5-1.98-.182-.193-.927.122-1.165 0-4.843-2.55-11.587-1.853-14.945-5.39-2.07-2.18 13.608 2.07 13.766 2.07 1.353 0 4.296.62 5.49 1.25.585.307 2.1 0 2.765 0 2.81 0 4.842-.638 7.02-1.67.504.323.92.523 1.146.523.383 0 3.61.936 4.954 1.13-.428.145-.92.456-.99.834-1.66.397-3.068.817-3.877 1.667-.013.02-.023.034-.032.054-.12.076-.227.17-.33.28-.04.04-.834-.036-.834 0 0 .21 4.094 3.433 4.728 4.1 1 1.056 2.025 1.26 3.06 2.347 1.732 1.825 4.38 4.323 6.114 6.15.05-.054 3.64 2.947 3.893 3.214.688.727 1.415 1.268 2.12 1.79.003.01.018.01.02.02.276 1.05 1.347 2.453 1.476 2.588.23.244.416.595.59.99-.01.158-.033.4-.033.47 0 2.425.086 4.72.16 6.988.22 2.2.28 4.535.14 6.724.03 1.38.27 7.656-.02 7.96-.417.438-.973.724-1.39 1.162-.15.157-.38.22-.66.243-.487-.14-.94-.26-1.01-.33-.36-.36-.96-.545-1.39-.97-.316-.32-.66-.94-1.11-1.39-.44-.44-.702-.845-1.112-1.255-.007-.005-.418-.71-.418-.555 0 .056.355.496.415.555.316.316.268 1.103.556 1.392.864.863 2.143 1.735 2.61 3.093-.038.03-.08.08-.11.105-.426.45-1.21.903-2.17 1.356 0-.15-.008-.292-.05-.38-.32-.645-1.3-2.41-1.67-2.78-.1-.1-.18-.37-.26-.625-.002-.07-.016-.156-.016-.205 0-.058-.06-.128-.12-.19-.052-.134-.1-.227-.158-.227-.11 0 .036.104.155.226.044.113.093.25.14.4.02.39.097 1.02.397 1.32.09.087-.055.44 0 .555.198.39.718 1.905.56 2.224-.02.04-.035.106-.054.173-.007.003-.01.015-.018.02-3.237 1.337-7.763 2.625-9.8 3.7-.87.457-1.96.314-2.504.884-1.09 1.15-4.517-.672-5.874 1.06m6.258 8.1c-1.005-1.223-1.58-2.903-2.62-3.945-.797-.796-1.426-1.893-.973-2.363l.68.488c-.174.35.12.747.297 1.095.108.21.4.826.4.59 0-.377 1.264-.806 1.774-.295.675.675-.705 1.56-.21 2.554.13.257.297.677.297.97 0 .287.182.61.364.906m.66.958c-.097-.14-.39-.485-.433-.576-.06-.116-.147-.25-.227-.38.107.13.215.266.33.38.103.106.246.41.33.577m86.64-62.137c-.04-.058-.194-.383-.277-.383-.004 0 .11.167.277.384m-24.43 31.54c-.086.007-.166-.01-.225-.07-.1-.1.55-.03.762-.104-.165.047-.37.16-.54.173m25.702 13.36c1.906-.787 3.696-2.17 5.595-3.11 1.917-1.65 5.278-1.687 5.875-4.623.203-.57.387-1.14.537-1.72l-.175-.174c-.37-.37.555-1.39.555-1.945 0-.57-.545-.684-.834-.973-.387-.386-.12-4.97-.556-5.84-.2-.396-.02-1.83-.28-2.086-.777-.78-.352-6.41-1.11-7.923-.395-.79.14-2.41.14-3.2v-1.39c0-.152-.16-.392-.14-.414.234-.236 1.017-.045 1.25-.28.715-.713-1.215-1.565-1.11-1.67.03-.03 1.25-.76 1.25-.83 0-.07-1.29-.32-1.39-.418-.23-.23-.537-6.694-.28-6.953.35-.347.83-.47 1.305-.485-2.87-1.75-5.617-3.85-8.69-5.144-.02-.014-.05-.02-.07-.035-.59-.388-1.423-.624-1.946-.886-.29-.145-1.107-.8-1.284-.8-.033 0 .457.267.695.504.13.132.847.676 1.354 1.235-.09.4-.16.81-.227 1.233-.73-.07-1.72-.485-1.72-.312 0 .167 1.02.84 1.56 1.233-.156.923-.355 1.836-.73 2.624-.282-.124-.586-.255-.832-.5.165.21.377.462.59.675l.104.108c-.366.66-.886 1.224-1.65 1.596-2.602 1.548-5.306 2.814-8.272 3.302-3.43-.4-4.57 3.158-3.96 6.202.5 4.113.634 8.246.505 12.39.128 1.485-.115 3.09-.07 4.605.1-.072.38-.1.47-.19.03-.03.177-.295.19-.295.01 0 .88 1.47.99 1.582 1.357 1.352 1.65 3.402 2.957 4.71.238.235.248.65.487.883.38.383 1.476 1.288 1.476 1.67 0 .33-.626 1.22-1.026 1.684.095.163.2.32.295.485h.035c.45 0 .804 0 1.18-.19.154-.075 1.624 2.34 1.965 2.85.11.165.566.768.99 1.356 1.153.5 2.38.88 3.494 1.355l.5.103zm-11.8 8.707c1.006-1.73 4.69-2.936 4.536-4.154-2.67-1.966-6.427-3.01-7.717-6.463-1.14-1.59-2.15-3.236-3.04-4.97-.31-.38-.62-.742-.92-1.042-.26-.254-.53-.85-.697-1.18-.16-.32-.59-.8-.782-.99-.482-.484-.97-1.86-1.475-2.363-.01-.01-.037-.083-.053-.104-.46-.21-.986-.413-1.514-.678-.485-.24-1.007-.06-1.477-.297-.043-.02-.106-.016-.175 0 .227-.1 2.16-.59 2.33-.59.48 0 1.12-.2 1.755-.47l.015-.017c.02-.02.135-.072.28-.122.214-.097.404-.192.61-.294-.33.054-.93.17-1.6.31-.022-.095-.05-.193-.07-.292.333-.33.797-.605 1.077-.886.024-.023.4-.03.4-.086 0-.133-.27 0-.4 0-.16 0-.677.053-1.2.12-.09-.798-.105-1.61-.017-2.45-.013-2.523-.065-5.048-.088-7.577 0-.005.002-.012 0-.016-.132-.48-.064-1.06-.017-1.63v-1.027c-.002-.017.004-.034 0-.05-.03-.157-.09-.315-.156-.454-.09-.185.093-.496 0-.68-.42-.843-.73-1.57-1.076-2.26-.132-.265-.764-1.612-.397-1.98.158-.156.358-.53.5-.68.11-.11.506-.1.68-.1.235 0 .436.06.628.12.066-1.213.15-2.42.277-3.63 1.554-2.986 4.515-4.994 6.9-7.247 2.81-2.634 6.31-4.264 9.123-6.848 1.75-2.08 3.795-7.156 6.81-3.894 4.29 3.2 9.137 5.675 12.754 9.803 2.08.284 3.696 2.786 5.56 4.03 1.297 1.838-.653 4.394.66 6.326.727 2.177.06 4.667.245 6.95-.1 6.61-.167 13.21-.47 19.813 1.817-.624 1.88-1.29 1.32-2.99.116-3.74 4.698-3.897 4.97-.088.43 3.074-2.252 4.5-3.98 6.308-2.425 1.612-4.806 3.114-7.522 4.136-2.173.92-4.7 1.218-6.447 3.024-2.425 1.034-4.847 1.962-7.386 2.622-2.157 1.265-4.254 2.46-6.657 3.144-1.96.86-4.057 1.305-6.1 1.896m54.096-66.342c-.02-.034-.023-.036 0-.036.014 0 .02.002.017.036-.002-.002-.017.002-.018 0m12.996 38.63c.013.003.032.003.053 0-.048-.034-.07-.075-.07-.035 0 .012.002.03.016.032m-31.88 26.658c.205.01.41.024.68.035-.1.01-.204.02-.297.02-.15 0-.268-.02-.387-.05m6.395 6.15c-.07-.097-.147-.182-.23-.26.07-.09.136-.19.19-.244.134-.13.557-.43.557-.69 0-.152 1.29-2.122 1.53-2.363 1.174-1.174 2.13-3.872 2.24-6.17-.2.175-.41.34-.625.506-.028.033-.06.076-.088.104-1.78 1.783-3.615 4.03-5.42 5.84-.318.315-.86.58-1.25.973-.206.2-1.644 1.28-1.67 1.25-.33-.33.833-.65.833-1.113 0-.233 2.705-3.968 2.64-4.032-.174-.175-.395.118-.416.14-.02.02-.27.033-.61.035-.086.017-.156.027-.19 0-.11 0-.21-.017-.33-.02-.186.06-.36.123-.54.123-.58 0-1.16-.093-1.76-.173-.18-.006-.37-.01-.536-.018.066-.007.126-.026.19-.035-.305-.033-.616-.05-.953-.05-.035 0-.134-.013-.19-.017.014.007.036.01.05.017.05.024.116.036.175.052-.375-.02-.714-.04-.73-.055-.035-.035-.073-.075-.12-.104-.497-.08-1.03-.184-1.217-.312-.186-.037-.35-.08-.47-.14-.34-.17-.836-.42-.836-.416 0 .03.684.193 1.46.4.57-.02 2.16.09 2.57.296.812.404 2.17-.87 3.06-.28.07.046.13.12.19.193.146-.035.287-.07.435-.108-.038-.084-.07-.158-.07-.226 0-.232.463 0 .695 0 .152 0 .515-.214.66-.158.69-.254 1.345-.574 1.877-.938-.047-.02-.09-.03-.14-.052l-.05.017c-.004-.013 0-.025 0-.035-1.12-.565-2.41-1.523-3.37-2.486-.47-.465-.417-1.595-.786-1.963-.657-.65 0-3.014.016-3.455.13.34.89 1.725.973 1.894.363.727 1.534 1.354 2.798 1.65-.06-3.363.234-6.8-.05-10.114-.42-4.85-.4-9.997.19-14.806.14-1.14-.26-14.02.21-14.56.503-.584 1.2-1.56 1.755-2.52 2.404-4.176 5.727-7.534 7.68-12.06l1.565-3.632c.06-.14.553-1.065.61-1.32.15.265 1.076 1.26 1.354 2.226.75 2.618 2.32 4.42 3.735 6.605 1.93 2.98 4.74 5.92 6.5 7.96.37.43.463 1.002.59 1.56 1.982-2.354 4.07-4.7 6.01-7.21.002-.003 0-.014 0-.018.22-.34.522-.723.85-1.11.01-.016.023-.02.035-.037.603-.816 1.18-1.66 1.738-2.52.68-1.046 1.053-2.57 1.774-3.407.3-.345 1.087-2.97 1.372-2.97.04 0 2.3 4.99 3.35 6.62 1.385 2.138 3.24 3.913 4.52 6.134 1.095 1.905 1.883 4.056 2.71 5.476.63-.296 1.427-.224 1.98.33.365.365.38 2.02.14 2.502-.25.505.125 1.143-.14 1.668-.48.963.217 2.35-.276 3.337-.306.61.29 2.63-.14 3.06-.53.53-.188 3.78-.59 5.14-.015.414-.03.824-.053 1.235.004.054-.01.11-.016.158-.112 2.106-.307 4.2-.66 6.237-.233 1.353.08 2.77-.21 4.103-.19.886-.405 12.23-.19 12.98.024.077.07.317.123.59 1.777 1.546 4.07 3.13 5.386 3.79.285.143 1.563.588 1.563.782 0 .227-1.98-.59-3.53-.59-1.66 0-13.872-1.276-14.162-1.567-.09 0-.168-.007-.19-.033-.08-.096.78-5.244.78-5.928 0-1.863.886-6.63 1.565-8.204.59-1.36.52-4.06.99-5.7.05-.166.003-.487-.035-.818-.405-.973-.81-1.782-1.48-2.45-.055-.054.523-.522.556-.555.396-.395.395-1.622.697-2.226.276-.55-.087-1.72.278-2.083.223-.222.063-2.7.42-3.06.425-.423-.405-4.75 0-5.56.17-.335.88-.09 1.11-.554.15-.3-.31-.522-.137-.694-.2.01-.397.023-.42 0-.04-.04-.685-.29-.556-.417.265-.265 2.78-1.493 2.78-1.67 0-.197-2.39-.056-2.64-.556-.055-.11.27-1.66.416-1.806.23-.23.75-.21 1.357-.35-.187-.356-.126-1.66-.244-2.015-.137-.413-.283-.91-.416-1.425-.5-.33-1-.666-1.51-.815-1.087-.315-2.636-.473-3.34-1.286-.09-.107-1.91 1.102-2.224 1.284-2.146 1.24-4.557 1.973-6.638 3.142-.005.003-.015-.003-.018 0-.03.027-.06.043-.09.07-.3 1.606-.66 5.024-.868 7.523.124.804.263 1.604.417 2.4-.173-.016-.41-.035-.488-.035-.05 0-.93.114-1.112.106-.04-.03-.067-.035-.067 0 0 .006.05 0 .07 0 .04.03.088.07.12.09.323.16.75.13 1.078.295.136.064.337.04.506.05.03.15.055.3.088.452.147.67.148 1.394.176 2.102-.074.186-.12.396-.16.622-.42-.077-.86-.2-1.094-.28-.126-.04-.322 0-.487.02-.13-.11-.297-.24-.297-.12 0 .13.13.14.296.123.03.026.064.065.085.087.22.22.972.464 1.44.54-.11 1.163.102 2.644.31 4.05-.045.004-.177.013-.174.016.045.043.11.11.19.156.058.366.114.737.16 1.077-.6-.076-1.343-.05-1.825-.05-.027 0-.066.024-.103.034.036.027.077.055.104.07.255.125.63.063.887.19.164.083.585.167.99.243.048.398.08.77.088 1.096-.496-.054-1.062-.136-1.547-.228-.416-.175-.864-.273-.817-.226.063.062.407.15.815.22.06.028.117.044.173.07.44.22 1.086.37 1.492.645.11.253.25.513.088.836-.89 1.78.69 4.72-.19 6.48-.404.81-.99 6.477-.99 7.68 0 1.165-.874 5.02-.782 5.11.342.344 3.944 2.776 5.7 3.91.144.34.26.668.19.75-.064.075-.158.095-.277.086-.36-.025-.89-.33-1.094-.33-2.38 0-4.84-.21-7.28-.21-.282 0-1.594.21-1.772 0-.006-.004.02-.236.035-.33-2.72.65-4.22.03-4.556-.745-.2-.47.78-6.57.99-7.3.297-1.023-.293-2.395 0-3.42.245-.844.04-2.39.385-3.18 1.02-2.365-.64-6.885 0-9.837.42-1.956-.125-3.59.4-5.405l.05-.193c.12-1.467.226-3.594.226-4.258v-1.11c0-.145-.24-.177-.14-.28.314-.31.81-.43 1.185-.68.05-.204.105-.407.158-.61-.32-.412-1.14-.862-1.06-.94.26-.26.8-.272 1.214-.363.014-.112.034-.227.05-.345-.53-.166-1.408-.428-1.408-.68 0-.4.372-3.52.28-3.614-.137-.135-.42-1.846-.42-1.946 0-.37.742 0 1.114 0 .134 0 .43-.02.677-.033-.293-.22-.58-.438-.8-.694-1.67-1.933-3.9-3.225-5.98-4.83-.216-.17-1.054-1.024-1.11-.958-.825.954-1.81 1.692-3.06 2.414-.39.226-.584.887-.974 1.113-1.643.95-2.98 2.625-4.52 3.856-.07.133-.13.266-.17.383.147.037.28.065.433.103.923.028 3.405.45 3.546.59.446.45-.19 2.127.14 2.784.22.444-.224 1.223 0 1.668.066.133.17.835 0 .835-.28 0-1.4.29-1.53.418-.06.065 1.71.837 1.53.837-.106 0-.186 3.014.14 3.337.263.268-.33 1.583-.42 1.67-.346.35.615 1.17.696 1.25.14.14-.293 1.795.14 2.227.16.165-.14 1.676-.14 2.087 0 2.68-.42 5.364-.42 7.783 0 .183.01.85.02 1.44v.018c-.19.53.12 1.515.12 1.874 0 .534-.076 1.595.14 1.81.073.073.19.1.33.1.362-.852.92-1.632 1.2-1.91.1-.103 1.233-1.267 1.804-.694.335.335.69.552.975.835.23.232.322 1.017.555 1.25.085.085 0 .703 0 .835 0 2.342-.25 5.393-1.67 6.81-.01.016-.035.023-.05.036-.005.015-.01.028-.016.037-.698 1.146-1.8 2.11-2.38 3.078-.057.09-.11.167-.176.24-.024-.133-.07-.276-.017-.33 1.155-1.155 2.878-5.506 1.947-7.367-.57-1.147-.034-1.39-1.39-1.39-.167 0-.358-.2-.556 0-.823.82-1.18 2.087-1.72 3.28.02.02.035.037.05.055.308.306.23 2.045 0 2.503-.5 1.002.24 2.022-.275 3.056-1.054 2.11-1.872 4.93-3.613 6.673-.805.8-1.74 1.84-2.78 2.36-.064.03-.33.15-.523.228m72.11-71.677c-.2-.09-.33-.217-.295-.454.003-.01.204.306.296.452m-.14 66.413c-4.34-1.303-14.39-14-17.444-23.025-.36-1.065-2.48-5.81-.904-7.006 1.333-1.01 2.786-3.216 4.344-4.398 1.263-.958 2.966-1.174 4.865-1.008-.115 1.01-.24 2.24-.02 2.24.15 0 .48-1.14.838-2.157.23.033.46.065.696.106-.203.57-.364 1.13-.137 1.354.07.07.47-.55.87-1.197 1.834.376 3.727.943 5.56 1.493-.06.82-.106 1.65.244 1.65.21 0 .3-1.02.38-1.46.253.076.518.155.766.226.08.397.235 1.65.24 1.65.09 0-.042-.197 0-.28.153-.306.203-.77.26-1.233 2.786.778 5.198 1.22 6.465.26 1.16-.875 1.908-3.262 2.435-4.03 2.533-3.7-3.24-20.204-5.024-22.557-.536-.71-3.57-5.91-4.29-7.057.51.237 1.58.16 2.085.506 2.337 1.6 4.874 4.252 6.588 6.515 4.458 5.884 7.27 12.82 9.73 20.087.68 2.005.308 4.38.994 6.393.376 1.11-.514 3.714-.68 4.9-1.796 13.037-18.135 1.105-21.77 3.86-5.116 3.874-2.14 12.656-.52 17.428.833 2.47 1.37 3.26 3.437 6.726m-11.88-47.616c-.05 0-.09-.02-.13-.04-1.58-.77-2.87-2.772-4.45-3.542-.635-.31 1.68-.12 2.21-.3.734-.255 4.333-2.21 4.73-3.02.353-.732 1.506-1.307 1.86-2.03l1.492-3.052c.423-.865 1.505-3.217 1.68-4.53.065-.496.04-1.114.197-1.438.034-.07.083-.11.137-.134-.724-1.47-1.646-3.82 1.558-3.38 3.85.533 5.463 3.904 7.29 6.32.236.307-.26.59-.3.62-.104.078-.177.184-.255.297.72.288 1.63.7 1.37 1.226-.707 1.45-2.822 3.158-4.042 4.4-1.25 1.28-10.053 9.387-12.16 8.36-.286-.14-.84.25-1.188.246m-.38.926c-.11-.01-.2-.037-.258-.114-.907-1.196-4.208-2.493-6.39-3.77-.033-.01-.06-.034-.09-.05-1.9-.882-3.93-2.69-4.134-5.566-.04-.594.693-1.09.787-1.317.48-1.155 1.325-1.776 2.424-1.853 4.247-.3 5 6.182 2.25 8.042.82.28 1.61.406 2.017.1.05-.038.653-.68.923-.324.59.78 5.626 1.79 5.892 2.14.18.237-2.195 2.395-2.556 2.518-.06.02-.537.223-.865.193m12.216 46.24c-1.076.1-4.167-4.48-4.744-5.435l-.384-2.833c-.96-.506-1.78-.266-2.64-.28-.1 0 1.388-1.118 1.564-1.287.398-.384.97-.727 1.6-1.043.08.353.28.715.643 1.076.14.14.185.833.417.833.09 0-.7-1.24-.643-2.1.326-.15.665-.29 1.007-.434.44.44.867 1.287 1.303 1.287.17 0-.37-.967-.418-1.667.566-.23 1.13-.446 1.614-.68l.035-.017c.02-.037.04-.06.07-.09.53-.533 1.74-.214 2.19-.66.16-.16.55-.147.92-.156.035.224.08.44.17.625.204.405.417.873.417 1.252 0 .02.03.064.054.103-.006.095.01.174.088.174.024 0-.037-.09-.086-.176.02-.225.18-.61.088-.8-.116-.23-.195-.725-.208-1.233.08-.024.157-.07.207-.12.163-.16.582-.06.747-.223.123-.125.31-.207.538-.263.275.948.653 2.26.938 2.26.194 0-.136-1.21-.31-2.33 1.18-.05 2.93.267 4.556.505 1.135-.266 2.413-.114 3.37-.59.292-.15.786.143 1.076 0 .16-.08.448-.15.783-.21h.016c1.594-.85 3.043-1.758 4.258-2.97.096-.095 1.215-1.75 1.41-1.654.78.39.21 2.267.21 2.973 0 .617.107 1.332-.297 1.736-.164.164-.41.33-.695.47.02.29.03.55.12.73.173.345.796 2.504.782 2.52-.13.126-.415.1-.54.224-.695.7-1.88 1.09-2.97 1.637-.734.364-2.22.114-2.75.642-.105.104-.462.132-.87.136-.61.25-1.134.417-1.406.417-.556 0-2.852.66-3.18.99-.292.29-1.747.424-1.86.54-.103.1-.178.27-.26.43-2.028.982-3.983 2.063-5.63 3.65-.477.46-.678 1.53-1.112 1.945-.05.05-.12.08-.19.09m16.104-11.394c-.02-.324-.39-.954-.065-.976.326-.02-.02 1.29.065.976.27-1.042.085-1.554.25-2.173.103-.396.807-.64.912-1.04.06-.24.8-.335.94-.55.43-.656 2.026-1.615 2.205-2.3.044-.16.187-.552.27-.412.26.442.836 5.31.902 6.316.11 1.69 2.204 6.84 1.976 7.712-.103.395-.5.76-.803 1.23-1.084 1.66-6.12 1.982-5.434-.626.27-1.034-.007-2.5.83-3.78.67-1.03 2.78-.36 2.44-.16-.2.115-.2-.456-.14-.68.063-.242-.745-1.27-.884-1.51-.586-1.006-.946-2.255-1.136-2.38-.244-.16-.693-.607-.44-.754l-1.89 1.104m19.38-17.54c1.78.073 2.58-3.45 1.633-4.396-.3-.3-1.67-1.525-2.153-1.283-.332.168-.8.23-1.077.506-.766.768-1.84 2.125-1.18 3.44.63 1.26 1.34 1.507 1.963 1.46.294.176.56.27.817.278M417 254.72c.043-.075.087-.158.122-.227.003-.007 0-.07 0-.122.072-.16.128-.29 0-.29-.008 0-.002.17 0 .295-.054.117-.105.244-.122.348m-19.48-28.62c.01 0 .035-.004.035 0 0 .034-.014.023-.034 0m4.15 54.757c-.27-.03-1.47-1.3-1.93-1.757-2.09-2.09-4.43-3.835-6.55-5.91-1.24-.315-2.66-.796-3.25-1.39-.56-.56-1.14-1.25-1.77-1.875-.43-.43-.83-2.893-1.08-3.143-.39-.386-.81-1.28-1.282-1.754-.273-.27-.582-.57-.868-.85-.07-.024-.14-.063-.21-.086-.858-.287-1.857-.835-2.71-.835-.16 0-1.6-.12-1.6-.14 0-.056.67-.09.765-.14.31-.155 1.49-.047 2.348-.19-.985-.96-1.966-1.93-2.92-2.886-.08-.08-.22-.4-.347-.764-.4-.18-.75-.33-.89-.33 0 0-2.363-.73-2.432-.764-.037-.016-.086-.02-.14-.014-.31-.126-.556-.26-.833-.4-.084-.044-.275.025-.275-.07 0-.093 1.235-.07 1.386-.07.493 0 1.05-.003 1.46-.21.04-.018.585.064 1.18.16-.06-.35-.09-.88 0-1.06.197-.394.478-.515.784-.507-.06-.095-.114-.185-.138-.245.004-.03-.005-.058 0-.087.095-.06.57 0 .677 0h.556c.044 0 .14.048.14 0 0-.053-.18-.04-.21-.07-.27-.27-.658-.527-1.01-.817.393-1.97-.15-4.15.243-6.118.808-4.04 1.316-10.66 0-14.61-.17-.508-.09-2.266-.452-2.626-.01-.01-.63-.69-.45-.87.394.425 2.05 1.26 2.54 1.076-.307-.22-.486-.51-.315-.85.022-.043-.03-.177 0-.21.313-.31.485-.66.974-.904.285-.144 1.7-.38 1.875-.56.343-.34.822-.473 1.25-.902.084-.083.195-.334.28-.416.25-.252.787-.394.972-.765.156-.315.47-.733.694-1.18.31-.62.584-2.46 1.043-2.92.586-.586 1.062-1.41 1.53-1.88.245-.243.74-.322.973-.555.186-.186 1.196-.153 1.998-.173.37-.34 1.09-.68 1.48-.94.416-.276.754-.636 1.18-.92.52-.35 1.158-1.69 1.426-2.226.06-.123 1.3-1.658 1.32-1.667.313-.16.635-.395.886-.645.22-.222 1.178-.948 1.616-.73.163.08.49.092.59.19.38.38.693.87.99 1.355.575.524 1.56 1.144 2.242 1.6 2.19 1.46 4.06 3.496 6.12 5.04 1.853 1.39 3.96 2.413 5.89 3.7 1.64 1.093 3.294 3.185 4.814 3.946.093.047.216.09.346.14.13-.114.246-.24.347-.366.527-1.284.73-3.72.73-4.83 0-.25.06-.706-.07-.836-.125-.126.06-.566-.07-.693-.1-.107.038-.456-.066-.56-.08-.08-.015-1.332-.14-1.46-.174-.17-.95 1.9-2.086.766-.864-.863-.91-2.704 0-3.615.293-.29.547-.14.903-.14.988 0 1.45 1.106 1.878 1.53.127.13-.06.57.07.697.14.14-.14.696 0 .834.24.24.28 1.118.28 1.53 0 .53.136 2.36.346 2.78.07.14.062.307.05.488.004-.002.016 0 .02 0 .032 0 .207 1.036.207 1.18 0 1.116.115 2.31.14 3.494.36.7.176 4.917.176 5.39 0 1.64.834 5.056.208 5.68-1.39 1.39-13.906-.127-17.1-.223.06-.054.15-.136.26-.228h1.564c.096 0 .313-.02.592-.07.004-.006.004-.01.014-.018.94-.7 4.09-2.022 4.622-2.554.84-.84 1.48-1.76 2.222-2.504.067-.066.107-.14.14-.226-.013-.008-.02-.025-.034-.034-1.01-.156-2.28-.506-2.487-.61-1.004-.5-2.63-.72-3.93-1.37-.85-.427-1.78-1.453-2.622-2.208.6-1.566 1.93-3.893 1.98-3.893.01 0-.71.714-1.39 1.39-.372.376-.834 1.325-1.25 1.53-.07.038-.25.098-.466.158-.3-.16-.677-.4-1.095-.694.06-.105.153-.26.173-.298.504-1.008 1.4-1.69 1.946-2.78.992-1.99 1.28-2.48-.28-.14-.285.432-.428.71-.833 1.114-.34.34-.616.756-.972 1.11-.196.2-.39.396-.59.593-1.067-.808-2.18-1.823-2.553-2.57-.313-.625-.813-1.49-1.286-1.965-.716-.71-1.3-1.344-1.758-2.26-.078-.153-.122-.363-.122-.605-.08-.08-.164-.164-.24-.245-.25.19-.496.354-.748.555-.01.07-.033.14.018.246.237.478-.096 1.54-.383 1.826-.043.042-.198.152-.242.242-.284.567-1.252.746-1.634 1.13-.05.05.31.465.35.54.03.06.108.21.158.26-.104.01-.6.255-.645.277-.08.04-.21.024-.295.05-.282.095-.398.33-.644.454-.376.19-.794.348-1.18.54-1.15.575-2.564 1.382-3.44 2.26-.13.13-.47.175-.59.294-.09.09-.44.214-.816.33-.95.77-1.778 1.467-2.346 2.052.04.1.105.29.12.327.475.947 1.367 1.53 1.774 2.346.2.4-.853 1.42-1.18 2.07-.124.25 0 .895 0 1.18 0 .645.3 5.305.45 6.203-.274.04-.67.498-.85.68-.33.328-.79.493-1.18.884-.214.215-.302.71-.486 1.08-1.26 2.52-1.18 5.86.227 7.07.033.077.09.2.103.227.342.687 1.28 1.003 1.737 1.46.094.094.383.104.486.208.195.194.994.07.973.07-.728 0-1.53 1.043-1.53 1.806 0 .796.227 1.25.696 1.74.37-.03.727-.067.85-.19.025-.027.493-.5.59-.4.12.12.047.55.192.695.376.377.8 1.185 1.18 1.565l4.918 4.917c.52.52 3.816.77 4.035.99.444.445-.727 2.716.086 3.528.89.89 2.714 1.74 3.93 2.955.025.02.06.046.09.067.515-.324.952-.71 1.094-.852 2.348-2.35 7.826-3.88 10.477-6.534.46-.454 1.645-.35 2.175-.88.233-.233-1.055-2.125-1.305-2.623-.08-.164-.137-2.442-.172-4.483-.05 0-.106-.012-.157-.016-.136-.63-.294-1.338-.17-1.584.306-.616.28-1.376.28-2.086-.135.227-.28.46-.28.698 0 .706-.27 2.22-.645 2.92-.35-.018-.66-.014-.85.05-.198.064-.688.118-1.304.173-.12-.298-.044-2.824-.208-4.31.038-.29.05-.574-.053-.78-.01-.016-.3-.465-.14-.14.09.176.15.52.192.92-.06.433-.192.89-.192 1.166 0 .96-.343 2.32-.746 3.23-2.057.12-4.676.158-5.126-.07-.94-.466-1.51-1.343-2.37-1.77-.365-.184-1.55.19-2.05.19-1.2 0-5.62-.69-7.105-1.477-1.19.18-2.5-.663-3.424-.87-.694.266-1.427.534-2.154.522-.32-.005-.63-.065-.94-.21-.547-.017-1.03-.09-1.25-.312-.144-.14-.51-.372-.626-.487-.06-.056-.1-.157-.14-.26l.053-.05c-.45-.39-.855-.86-1.026-1.373-.205-.61-.208-1.26-.208-1.96 0-1.213.97-2.04 1.58-2.956.61-.913 1.214-1.58 2.156-2.05.66-.33 2.066.14 2.557.384.6.3 1.29.55 1.964.89.89.444 1.16 1.417 1.424 2.292.308.465.493 1.484.556 1.547.164.166.29.357.435.557.892.095 1.625.16 1.893.173-.32-1.003-.82-2.046-.766-2.1.13-.13 1.267.763 1.373.866.42.42 1.966.736 2.744 1.162.127.02.245.05.35.104.246.12.61.066.905.066.18 0 .33-.004.484-.015h.02c.496-.117 1.026-.27 1.51-.38.417-.19.813-.423 1.356-.697 2.52.25 5 .52 6.985.52 2.83 0 5.45.66 8.31.66h3.72c.23 0 .66-.455.66-.225v7.454c-.214.214-.41.414-.52.47-.288.143-.21.08-.21.485 0 .788.32 1.27.73 1.704v.336c.055.045.115.092.173.122.183.09.52.1.628.208.064.063-.346.45-.346.556 0 .168-.206.413-.28.487-.022.02-.433 2.19-.416 2.222.316.63.434 2.52.836 2.92.246.245.33.818.557 1.04.326.33.584.728.905 1.047.03.027.277.18.277.207 0 .126-1.06-.564-1.18-.624-.61-.304-1.17-.774-1.6-1.285 0-.004-.013.002-.016 0-.21-.104-.395-.223-.52-.35-.018-.013-.648-.81-.68-.78-.054.052.225 1.34 0 1.564-.838.84-2.023.78-3.353.78-.086 0 .148.645.19 1.443-.212.097-.432.192-.64.296-3.006 1.503-5.926 3.137-9.156 3.943-1.968.493-4.06 2.174-5.7 3.267-1.402.932-3.48.87-4.57 1.962-.01.01-.016.02-.035.02m25.403-71.738c.01-.014.008-.037.02-.037.022 0 .007.016-.018.037m2.225 13.71c-.04-.014-.087-.024-.087-.036 0-.034.036-.01.088.04m23.65-.523c.24-.067.455-.114.455-.07 0 .016-.194.044-.45.07m-3.25 65.513c-.03.03-3.49-1.127-3.928-1.564-2.413-2.414-11.272-5.454-16.855-6.397-.02-.005-.037 0-.054 0-.322.32-1.55-.305-2.154 0-.312.155-.612.053-.884.19-.957.48-2.226.75-2.954 1.476-.23.23-.716.128-.99.4-.4.4-.17 1.14-.486 1.46-.375.377-.857.685-1.267 1.096-.215.212-.888.5-1.096.09-.427-.86.936-1.72 1.48-2.26.56-.56 1.346-1.068 2.17-1.48.462-.23 1.006-.625 1.27-.887.065-.066.16-.11.26-.14.004 0 .013.003.017 0 .8-.886 10.125-1.417 10.53-1.823.154-.15 0-1.32 0-1.56 0-1.074-.743-7.815-1.163-8.656-1.356-2.713.93-27.518 1.563-30.67.46-2.307.502-4.933.087-7.44v-.02c-.068-.14-.138-.29-.19-.45-.55-1.643-2.398-4.05-4.033-4.866-.817-.41-1.443-1.232-1.685-1.477.53.12 2.66.227 2.937.227h.415c-.334-.466-.684-.91-1.08-1.302-.9-.9-1.633-1.877-2.24-2.746-.19-.194-.45-.453-.607-.608-.32-.316-.35-.73-.59-.973-.045-.044.015-.21 0-.28-.003-.004 0-.015 0-.02-.31-.536-.492-.885-.49-.883.08.08.17.19.26.312-.2-.566-.34-1.183-.642-1.79-.19-.38-.074-.966-.21-1.375-.35-1.044-.295-2.194-.295-3.354 0-.195.09-.75.21-.87.012-.01.03-.04.053-.053-.14.347.14 2.593.14 2.988 0 .496.61 2.404.974 2.764.27.27.087.954.4 1.27.28.28.266.75.594 1.074.928.927 1.65 2.284 3.39 2.52 1.274 1.132 3.15 2.223 4.97 3.214.8-.02 1.6-.035 2.4-.035 1.516 0 3.38.296 4.866 0 .87-.174 1.884-.28 2.78-.28.283 0 4.107-.22 5.388-.347-.29.08-.62.19-.66.206-1.013.505-2.22.89-3.337 1.113-1.295.257-3.394.854-5.16 1.476.56.015 1.12.028 1.195.104.104.1-1.48.188-1.995.19-.535.206-1.026.4-1.41.593-.144.07-.445.25-.677.38.2.168.38.346.54.506 2.686 2.686 2.104 14.286 6.29 18.47.877.878-1.034 3.4-1.182 3.546-.057.063-.092.226-.1.436-1.1 1.04-4.31 3.41-4.31 3.495 0 .065.56-.42 1.11-.694 1.088-.546 2.385-1.136 3.06-1.81.006-.006.1-.014.172-.017.03.39.07.81.07.953 0 1.583-.023 3.465.017 5.405-.78-.026-1.57-.09-2.07-.09-.69 0-1.39-.148-1.39-.14 0 .212.856.22.975.28.653.325 1.68.79 2.52.92.01.292.003.576.017.87-.01.003-.026.01-.035.015-.484.24-.8.416-1.393.416-.783 0 .45.39 1.497.68.15 2.232.45 4.41 1.043 6.185.39 1.175-.3 2.72 0 3.925.93 3.713.03 7.634.78 11.4.3 1.49.8 3.236.8 4.727 0 .668.857 1.492.385 1.964m-3.93-9.435c.06.11.14.21.21.314.03 1.5-.1 2.56-.61 2.05-.294-.29.4-.394.4-.8 0-.525-.37-1.193 0-1.564m.172-.153c0 .04.01.08.014.12l-.192.034c.056-.056.11-.118.175-.156m13.97 5.613c-5.844-.112-11.73-1.794-13.938-5.144 0-.11-.014-.235-.017-.35l1.774-.364c-.58.115-1.305-.045-1.79.242-.084-2.368-.422-5.485-.174-5.736.444-.44.888.386 1.184.386 1.04 0 2.844.82 3.925 1.18 1.8.6 9.056.44 10.514-.712.31.593.723 1.216 1.284 1.496.196.096.59.395.87.47.09.073.163.12.21.12.067 0-.02-.087-.086-.087-.036 0-.083-.024-.123-.034-.5-.416-1.51-1.787-1.35-1.947.055-.055.848.208 1.076.208.092 0 .175-.01.26-.016.196.05.377.076.434.018.01-.01.013-.02.017-.033.113.012.226.034.366.034.414 0 .732-.05.974-.28.008-.004.013-.01.018-.015.065-.005.127 0 .193 0 .136 0 .33-.06.52-.14.226-.01.436-.034.56-.157.082-.08.214-.11.296-.193.024-.02-.033-.105-.07-.12.05-.04.25-.382.176-.382-.11 0-.365.177-.4.21-.377.377-2.24-.293-2.345-.4-.058-.058-.11-.115-.156-.174.09-.167.096-.46.24-.61l.054-.05c-.475-.16-.86-.42-1.024-.75-.133-.264-.21-1.65 0-1.86.007-.007 1.565-.354 1.79-.38-.03-.13-.065-.255-.124-.314-.053-.054-.41-.77-.295-.888.31-.31.496-.685.888-1.077.55-.544 2.07-.5 3.026-.465.003-.004.02-.016.02-.018 0-.435-2.477-.19-2.555-.19-.117 0-1.158.245-1.08.086.32-.638.836-1.037 1.496-1.407.545.015 1.06.035 1.254-.156.5-.505 1.33-.4 2.362-.4 4.198 0 5.8 2.56 7.473 5.905.742 1.486-.32 3.78-.784 4.71-1.25 2.5-2.1 4.445-3.942 6.29-2.4 2.4-7.664 3.595-12.98 3.492m35.787 6.393c-1.436-.73-2.95-1.65-3.39-2.224-.923-1.2-3.3-2.32-3.93-4.15-3.604-10.43-6.096-17.19-15.674-23.67-1.465-.99-3.722-.207-5.212-.954 1.403-.166 6.637-.74 7.526.42.643.84 3.61 2.758 5.96 4.257-.274-1.247-.108-2.55.954-3.613.1-.098.492.1.59 0 .135-.133.29-.21.47-.243-.194-1.074-.363-2.04-.485-2.417-2.94-9.04 3.49-1.946 2.15-5.82-.36-1.044.24-2.39-.103-3.388-1.44-4.535-.255-9.495-.14-14.63-.8-1.043-1.056-8.856-1.69-9.68-.292-.384-.88-.826-1.23-1.286-.655-.855-1.813-1.76-3.06-2.367-.89-.43-6.396-7.375-7.525-8.846-.257-.334-1.574-2.026-1.407-2.154.262-.204 2.66 2.44 3.25 2.954 1.077.943 3.236 2.103 5.124 3.3.564.15 1.12.474 1.25.643.17.22.77.094.94.313.37.485 1.328.603 1.65 1.026.55.72 1.07 1.527 1.306 2.57.143.09.317.175.47.263.467.796 1.566 1.73 1.77 1.997.27.35 1.383.468 1.65.818.526.68 2.013.99 2.574 1.72.04.05 1.39.49 3.092.99.512-.08 1.086.095 1.737.486.424.12.83.234 1.25.35.405-.033.79-.13 1.01-.1.2.025 3.24-.5 3.25-.575.01-.076-.62.65-.68.73-.52.775-1.31 1.61-1.91 2.5-.37.55-.84 1.078-1.214 1.635-.176.26-.232.586-.293.92.107.938.23 2.046.42 3.58.034.307.056.557.085.835-1.728.04-4.676-.03-4.676.28 0 .13.27 0 .4 0 .54 0 2.686.09 4.33.24.153 1.716.156 2.914.136 3.98-2.04.01-5.058-.02-5.058.313 0 .186 2.96.11 5.057.106-.01.522-.03 1.043-.018 1.596-1.45.045-3.263.05-3.667.05-1.374 0 1.55.656 3.72 1.06.02.33.06.68.103 1.06.115 1.01-.19 2.058-.122 3.076.14 2.084.715 4.2.856 6.276.198 3-.04 6.01.12 9.052.26-.046.54-.046.886 0 .245.032.654-.295.8-.105.423.55.966 1.03 1.392 1.58.044.06-.04 4.584-.227 4.727-.665.51-1.72 3.636-1.25 4.987.35 1.01.757 7.747.59 9.003-.1.783-.04 2.85-.623 3.3-.065.05-.13.07-.193.106-.004 0 .002.017 0 .02-.025.327-.04.672-.035.972-.006.005.002.014 0 .018-.105.146-.225.272-.368.382-.79.608-1.27 1.278-2.397 1.67-.096.032-.206.054-.295.07" fill="#e6b35a"/><path d="M495.91 292.976c-5.402.08-8.746 6.292-5.856 14.653.278.81 2.812 3.78 2.87 3.74.125-.1-2.133-4.77-1.072-4.63.1.01 1.54 3.942 2.415 5.08.71.925 5.332 9.29 4.592 9.858-.25.19-.27-4.828-.21-4.795.62.423 3.59 6.802 3.39 8.3-.08.622-.03 2.23.22 2.552.05.07-.19 1.095-.14 1.102.19.02.29-4.38.3-4.45.436-3.335.254-8.382-1.8-9.772-.85-.57-1.83-3.15-1.915-2.496-.073.56 1.275.043 1.62.49.233.31 2.36 2.555 2.465 2.57.29.037-.204-.574-.165-.865.256-1.966-4.908-7.48-4.74-8.754.033-.242 4.19 2.26 4.195 2.236.15-1.14-1.327-3.344-1.974-4.187-.36-.47-.842-2.11-.92-1.524-.01.07 1.57.11 1.655.22.12.154 1.7 1.67 2.06 1.39.796-.61.02-3.854-.52-4.555-.31-.4-1.075-.432-1.304-.732-.08-.1-.223-.44-.24-.31-.078.59 4.795 1.08 3.213-.98-1.606-2.092-5.22-3.16-8.144-4.155" fill="#6488c5"/><path d="M494.076 294.816c-.265.052-.846-.113-.796.152.05.265 1-.33.796-.152-.18.16-1.02.165-1.2.326-.337.303-.642.758-1.048 1.12-.2.18.07.938-.068 1.18-.768 1.337-2.482 5.153-1.168 6.627.292.32.032 1.77.29 1.79.178.01.747-1.79.9-1.92.02-.02.57.01.587.03.24.272.2 1.27.49 1.6.98 1.1 1.494 2.93 2.52 4.083 1.202 1.346 1.2 3.01 2.13 4.06.086.1-.154.384-.023.392.094.005-.477-1.556-.5-1.605-.41-.964-1.55-3.874-1.516-4.42.015-.22-.194-.57-.16-.6.42-.375 1.99 2.28 2.426 2.305.046.002-.81-1.436-.89-1.627-.21-.485-2.398-5.87-1.797-6.407.1-.09 2.806 2.555 2.82 2.33.024-.445-2.013-4.723-1.475-5.203.19-.166 3.71 2.28 4.02 2.003.22-.194-2.335-2.57-2-2.873.447-.396 1.643.21 2.18-.267 1.2-1.07-3.54-3.156-4.54-3.214-.335-.02-1.68.237-1.986.28" fill="#c8dceb"/><path d="M527.868 269.147c.055.012.09.015.104 0 .33-.33 1.85-1.22 2.363-1.48.61-.302 1.444-1.13 1.774-1.457.02-.026 0-.255 0-.295v-2.764c0-.25.32-1.43.08-1.66-.518-.512-2.01-1.44-2.85-1.86-.2-.1-2.4-1.44-2.558-1.284-.524.525-1.17 1.177-1.86 1.964-.317.363-1.546 1.444-1.773 1.67-.176.174.05 3.95.106 4.43.864 1.08 2.083 1.29 2.85 1.86.112.115 1.36.8 1.754.886m-32.303-63.896c-.175-.17-.295-.31-.295-.384 0-.183.277.094.277.28 0 .036.013.07.015.105m53.523 49.82c-.003-.022-.02-.154-.017-.154.055 0 .044.06.02.155m-10.684 72.06c-1.765-.022-3.636-.483-5.997-1.216-.013-.005-.036.004-.05 0-3.44-.42-7.295-1.308-9.835-2.92-1.04-.177-2.752-1.247-4.083-2.363l-.085-.07c-.332-.236-.74-.574-1.39-1.01-.317-.21-.403-.64-.696-.834-3.35-2.233-4.526-6.295-5.42-9.87-.162-.645.07-1.462-.14-2.086-.24-.71-.252-2.16 0-2.92.217-.65.48-1.31.696-1.95.303-.906.46-1.61.834-2.362.05-.1.696-.833.555-.833-.117 0 .533.08.694 0 .16-.083.42-.13.55 0 .39.39.046 1.162-.14 1.53-.214.43-1.09-.162-1.25 0-.113.112-1.805 5.84-1.11 6.532.347.346-.07 1.46.277 1.806.584.582.908 3.824 1.67 4.588.848.848 1.3 1.855 2.085 2.64.498.498.944.834 1.375 1.167.09-.408.106-.84.433-1.17.87-.873 3.14.05 4.5.713.07 0 .15-.003.224 0-.2-.347-.405-.7-.694-.99-.26-.26-.353-1.465-.696-1.808-.142-.14-.388-2.056-.835-2.504-.05-.047-.15-.484-.28-.938.416-.376 1.23-1.075 1.77-1.426.235.013.45.002.45-.14 0-.12-.186-.036-.45.14-.204-.017-.425-.05-.522 0-.204.1-1.457.49-1.67.273l-.034-.032c-.065-.23-.3-1.28-.485-2.015.55-.514 1.295-1.05 1.49-1.147.073-.036.35-.193.61-.33.285-.074.503-.148.503-.226 0-.027-.243.09-.502.227-.7.18-1.986.41-2.76 1.11-.005.01-.01.012-.017.02-.323.154-.7.343-1.37.674-.378-1.672-.527-3.376-.21-4.952.756-3.786-.644-8.08.556-11.677.614-1.856.905-3.915 1.39-5.84.8-3.2 2.34-6.194 3.332-9.175.6-1.794.77-4.423.663-6.83-.896-.868-1.7-1.883-2.225-2.937-.06-.12-.1-.24-.14-.367-2.97.006-5.945.1-8.915.364l-.783-.972c-.064 0-.144.045-.188 0-.506-.505-.46-3.28 0-3.737.503-.5 3.77.194 4.517.194 1.79 0 3.876-.06 5.7.26.48-1.22 1.116-2.08 1.965-2.797.065-1.107.023-2.19-.313-3.198-.935-2.813-.45-6.08-1.39-8.9-.74-2.224-1.725-4.35-2.5-6.673-.736-2.205-1.43-5.2-2.78-7.228-1.534-2.3-3.46-4.69-4.73-7.23-.88-1.767-2.796-3.09-3.89-4.73-1.68-2.517-2.783-4.45-4.725-6.393-1.102-1.1-4.346-5.355-5.006-6.674-.464-.92-1.314-1.71-1.375-2.672.76.735 2.818 2.2 3.32 2.955 2.174 3.26 4.88 4.88 7.506 7.51.9.9 2.69 1.3 3.613 2.223 1.85 1.853 4.156 4.26 7.23 5.282 1.744.582 3.637.846 5.28 1.67.93.462 4.73.28 5.284.833.22.22-.775 1.17-1.86 2.342-.46-.033-.89-.107-1.2-.26-.626-.313-2.47-.868-2.502-.835-.314.315 1.863 1.28 3.042 1.84-.725.84-1.377 1.72-1.634 2.52-1.088-.363-2.552-1.195-2.66-1.3-.287-.287-.693-.506-1.077-.768-.18-.238-.404-.486-.593-.486-.066 0 .094.094.14.14.132.133.294.24.45.347.11.15.22.323.245.35.736.74 1.755 1.063 2.5 1.807l.89.887c0 .005-.005.01 0 .016.05.23.173.434.362.624.893.895.18 3.794 1.11 4.724.95.95 1.01 2.96 1.945 3.892 2.57 2.57 3.35 6.695 5.284 10.567.545 1.09.01 2.797.556 3.89.345.69.28 1.58.295 2.415.52.246 1.218.54 1.566.887 1.02 1.022 1.48 2.255 1.51 3.544 2.984.19 6.97-.21 9.105-.21.483 0 1.486.095 2.61.242.05-1.492.2-2.82.487-3.684.29-.88.415-2.003.415-2.92 0-.46.23-.98.296-1.233.036.253.26 1.532.26 1.65 0 1.368.42 3.08.42 4.59 0 .6.023 1.234.05 1.875-.004.006 0 .015 0 .02-.065.112-.136.216-.19.33-.216.427-.73.64-1.13.85.36.046.684.097.71.123.18.177.47.14.835.14.156 0 .394.16.417.14.285-.29.38-1.356.556-1.532.215-.213 2.014.66 2.363.835.69.346 3.554.22 3.893.558.21.21-.66.107-.695.14-.35.35-1.28.294-1.807.556-.51.256-2.84 1.25-3.055 1.25-.462 0-1.062-.92-1.252-1.11-.03-.035-.79.142-1.422.275.164.155.383.35.45.417.17.17.365.32.558.47-.043-.003-.08.003-.12 0 .023 2.417-.174 4.794-1.27 6.62-.24-.67-.594-3.58-.73-6.67-4.123-.015-8.307-.22-12.512-.435-.5 1.052-1.213 2.05-2.067 2.884-.853 4.16-2.344 8.39-3.32 10.338-.577 1.16-.524 2.72-1.11 3.894-3.09 6.178-7.934 12.776-4.17 20.298.512 1.026.34 2.84 1.11 3.614 1.58 1.58 2.68 3.7 5.285 5.005 1.713.855 3.508 2.78 5.282 2.78 1.054 0 3.196.904 4.448.277 2.565-1.282 5.112-2.61 6.674-4.17.567-.57.684-2.204 1.11-3.06.913-1.825-.55-7.79.556-10.01.145-.286.225-.614.26-.953-.154-.02-.307-.028-.467-.037.514-.358.934-.715 1.18-.956.04-.042.17-.015.275 0-.046-.024-.094-.074-.14-.104-.378-.085-.67-.204-.694-.315-.61.606-1.154.85-1.67.85-.86 0-1.624-.67-2.362-1.405-1.014-1.01-1.67-3.75-1.67-5.42 0-.47 0-3.474-.14-3.613-.23-.23-.388-2.89-.695-3.196-.19-.19-.832-1.74-.832-1.81 0-.14.648.95 1.53 1.393.606.3 1.17.793 1.72 1.337.46.388.847.81.92.888 1.566 1.565 4.19 3.36 5.84 5.006 1.034 1.037.908 2.37 1.533 3.62.13.26-.13.714 0 .97.725 1.454-.233 2.05-1.373 2.138 1.06 2.174 1.31 5.354 1.79 7.734.164.392-.04 5.116-1.116 8.34-1.197 3.583-1.36 8.412-5.006 10.844-4.156 2.77-6.792 3.86-9.697 3.824m-27.71-55.967c-2.18-.864-3.44-3.015-3.927-5.455-.41-.02-.804-.07-1.197-.244-.113-.77-.232-1.27 0-1.663.03-.055.436-.022.972.054-.02-.453.003-.91.03-1.357-.43-.046-.85-.137-1.285-.363 0-.58.07-1.46.416-1.46.013 0 .602.18 1.04.31.27-1.42.797-2.71 1.53-3.65.39-.5 1.624-2.235 2.31-1.702-.79 1.288-1.525 2.238-2.067 3.77-.14.398-.207 1.16-.227 2.053.33.1.88.255.886.26.36.27 2.64-.36 2.64.206 0 .36.14 1.3.14 1.46 0 .29-.366-.206-.557-.206-.243 0-1.374.23-1.53 0-.286-.436-.947-.57-1.58-.61.013.53.056 1.053.104 1.58 1.035.18 2.046.365 2.31.365.2 0 1.124-.22 1.25 0 .196.333-.26.04-.138.465.073.26.277.43.277.714 0 .25-.27-.23-.417-.23h-2.084c-.34 0-.705.108-1.026.178.13.74.308 1.344.52 1.667.14.21-.032.63.107.835.7 1.048.956 1.98 1.496 3.02m13.618-7.137c.11.543 1.097 2.855 1.35 2.816.27-.045.728-.01 1.062.043.592.1 1.1.394 1.734.295.03-.01 2.137-2.92 2.15-2.94.01-.01-.617-1.295-.724-1.503-.29-.56-.41-1.276-.494-1.825-.01-.07-.84.13-.96.15-.874.135-1.583-.39-2.363-.27-.035.007-1.216 2.49-1.756 3.227m38.064 1.2c.02.01.034.01.034 0 0-.02-.03-.028-.07-.037.014.01.025.03.035.037m37.9 14.197c.056.014.173-.035.243-.035-.163-.027-.28-.04-.28 0 0 .024.015.03.034.035m-42.194-90.08c.5.957-3.347-.764-2.78-1.685.56-.924 1.856 1.12 2.78 1.683m28.114 42.957c.79.518 1.083.83.26.575-.23-.074-.272-.302-.26-.575m-2.31 35.672c-.033.202-.13.314-.295.26-.04-.01.1-.118.292-.26m-22.33 37.9c-.346-.827-.54-2.38-.54-3.092 0-1.53-2.707-10.61-3.7-11.744-.008.05-.033.347-.035.347-.19 0-.12-.293-.12-.54-.64-.67-1.35-1.666-1.91-2.483-1.08-1.04-2.206-2.016-3.46-3.27-.208-.208-.875-.285-1.18-.59-.27-.27 1.24-4.01 1.37-4.138.01-.01.035-.013.05-.017 1.6.804 3.87 2.192 3.877 2.19.09-.09-.88-1.088-.974-1.185-.596-.598-.806-1.972-1.39-2.555-.074-.073-.03-.98.036-2 1.543-3.57 3.752-7.91 5.542-11.21 1.384-.26 2.812-.45 3.18-.4-.205-.13-.678-.533-.695-.552-.14-.136-.84-.054-.976-.19-.074-.074-.336-.28-.627-.488 1.062-1.896 1.865-3.197 2.067-3.3 4.363-2.28-4.356-7.77-2.154-8.92 1.9-.992 12.505-3.05 13.1-4.95.502-1.598-16.72-23.597-19.166-28.274-1.02-1.95-10.25-17.247-9.783-18.73.03-.085 2.914 3.785 3.564 4.414 3.846 3.71 7.215 5.5 11.107 9.26 2.286 2.203 5.75 3.91 7.385 4.654-1.6-.872-3.14-2.537-3.632-3.477-1.22-2.334-4.388-4.247-6.325-6.116-5.813-5.61-9.485-13.377-12.773-19.67-.39-.746-4.138-7.246-1.41-8.67 7.038-3.68 12.7.43 16.09 9.156-1.12-2.15-3.162-2.437-3.804-3.668-1.205-2.3-9.46-3.39-8.967-.33 1.75 10.9 21.682 29.235 32.81 39.97 1.164 1.127 7.684 5.103 8.06 5.82.16.303.033.782.015 1.164-1.427-.935-4.546-2.592-6.03-3.06-1.522-.477-14.867-7.77-15.05-7.194-.28.902 1.096 1.55 1.777 2.207 4.614 4.454 8.583 13.657 14.525 19.392 7.685 7.42 13.974 23.1 19.74 33.277-1.037.244-2.128.43-1.895.66.16.16 1.33.22 2.538.435.28.477.576.96.85 1.407-.413-.014-.775-.036-.883-.036h-1.234c.405.075 1.087.28 1.096.28.21 0 .73.036 1.213.07.505.8 1.01 1.54 1.51 2.223-.987.69-2.383-.21-3.7-.21-.03 0-.07.01-.105.02-.115-.057-.173-.074-.173-.02 0 .067.086.04.173.02.342.163 1.132.677 1.91.677.445 0 1.644.197 2.607.45.044.06.09.12.138.178 1.502.767 4.22 2.17 4.345 2.294.45.45 2.166 3.167 2.36 3.754.2.6 1.03 1.122 1.393 1.666.703 1.056 1.534 2.095 2.087 3.197.45.912 1.43 4.493 1.803 4.866.072.076.97 2.23.83 2.363-.42.422-6.064.996-6.95.556-.426-.214-2.65-.973-2.92-.973-.136 0-1.526-.69-1.526-.836 0-.068.68.263.694.28.275.27 1.025.05 1.25.275.51.507 4.255.197 4.59-.14.14-.137.418-.137.557-.276.53-.53-.26-1.734-.87-2.484-.792-.042-1.563-.083-2.12-.26-5.96-1.87-14.01-1.603-16.785-6.914-3.45-6.604-2.725-18.42-4.622-22.053-1.413-2.702-4.52-1.093-5.44-.416.176-1.14-1.506-5.644-1.65-5.922-.81-1.55-3.754-10.25-4.154-10.374-1.47-.46-10.897 16.85-13.59 19.638-.942.98-.21 6.386-1.354 6.985-1.855.97.685 9.283-1.096 8.723-.904-.282-2.305-.582-3.788-.954-.12.382-.262.75-.383.99-.063.127-.2 1.21-.33 2.26.214.415.414.76.54.884.09.09.225.152.312.244-.006-.09.01-.183.07-.242.163-.162.425-.235.59-.4.86-.86 3.572 1.02 3.735 1.183.55.554-.833 2.227-.973 2.365-.13.132.13.65 0 .782-1.177 1.174-.59 3.896-.59 5.89 0 1.705.19 3.14.19 4.535 0 .45.06.893.14 1.32m.26 1.233c-.06-.296-.17-.73-.26-1.236.074.183.165.36.26.452.04.04.013.45 0 .78m0 .382c-.02 0-.01-.175 0-.38.04.223.053.38 0 .38" fill="#e6b35a"/></g></svg>