<svg xmlns="http://www.w3.org/2000/svg" height="64" width="55.313"><defs><marker orient="auto" overflow="visible"><path d="M-10 0l-4 4L0 0l-14-4 4 4z" fill-rule="evenodd" stroke="#000" stroke-width=".8pt"/></marker><marker orient="auto" overflow="visible"><path d="M10 0l4-4L0 0l14 4-4-4z" fill-rule="evenodd" stroke="#000" stroke-width=".8pt"/></marker></defs><path d="M27.656 0L0 16v32l27.656 16 27.657-16V16L27.655 0zm0 2.5l25.5 14.75v29.5l-25.5 14.75-25.5-14.75v-29.5l25.5-14.75zm-16.788 8.926c-.355.016-.547.05-.547.05-1.77 4.502-.63 7.833-.29 8.656-2.09 2.29-3.382 5.213-3.382 8.78 0 12.527 7.64 15.32 14.9 16.145-.934.816-1.77 2.266-2.064 4.378-1.866.835-6.612 2.286-9.527-2.71 0 0-1.72-3.154-5-3.384 0 0-3.19-.03-.224 1.99 0 0 2.145 1.03 3.63 4.81 0 0 1.9 5.834 10.996 3.856.01 1.713.015 2.62.025 3.806l8.285 4.353 7.96-4.18c.01-1.632.022-3.51.022-6.864 0-3.05-1.042-5.055-2.214-6.07 7.28-.81 14.924-3.563 14.924-16.12 0-3.567-1.262-6.49-3.358-8.78.34-.823 1.453-4.154-.326-8.656 0 0-2.74-.87-8.98 3.357-2.61-.725-5.405-1.083-8.183-1.096-2.78.014-5.576.37-8.184 1.096-4.683-3.174-7.39-3.46-8.456-3.41z" fill="#1b1817"/></svg>