<svg xmlns="http://www.w3.org/2000/svg" height="64" width="55.313"><defs><marker orient="auto" overflow="visible"><path d="M-10 0l-4 4L0 0l-14-4 4 4z" fill-rule="evenodd" stroke="#000" stroke-width=".8pt"/></marker><marker orient="auto" overflow="visible"><path d="M10 0l4-4L0 0l14 4-4-4z" fill-rule="evenodd" stroke="#000" stroke-width=".8pt"/></marker></defs><path d="M27.656 0L0 16v32l27.656 16 27.657-16V16L27.655 0zm0 2.5l25.5 14.75v29.5l-25.5 14.75-25.5-14.75v-29.5l25.5-14.75z" fill="#463014"/><path d="M10.79 21.01s.89 3.52 1.017 4.692c.128 1.172-2.286 3.778-2.286 5.082 0 1.303.51 3.648 3.31 4.82C15.62 36.78 16 39.774 16 41.6c0 1.824-1.017 5.34-1.017 5.34s-.635 8.732 2.794 10.295c3.43 1.564 2.668 1.564 3.43 1.564s6.35 2.34 9.654 1.43c3.31-.91 4.2-1.96 4.2-1.96s3.304.26 4.32-2.738c1.017-2.996 1.65-9.25 1.27-12.118-.38-2.868-.89-6.646 1.397-7.95 2.288-1.302 4.7-2.866 4.32-4.17-.382-1.302-2.413-3.126-2.413-3.126s-.51-3.258-.13-4.04c.38-.78 2.67-2.737 1.398-4.17-1.27-1.433-3.556-1.433-3.556-1.433l-2.92.26s-4.955-4.56-11.433-4.3c-6.477.26-10.542 4.3-10.542 4.3s-2.16-.78-4.063 0c-1.91.783-2.29 0-1.908 2.216z" fill="#fba919"/><path d="M22.398 40.41s-2.515 3.947-4.36 6.747c-.286.433 1.845.463 1.845.463l2.515-7.21zm1.198-8.18s-.758 1.942-1.174 2.97c-.45 1.12-2.17 1.675-2.17 1.675s.89-.958.89-3.387c0-1.02 1.284-1.424 1.284-1.424l1.17.167zm-.766 1.1s-1.554 1.896-4.438.833c-2.885-1.062-3.18-4.857-3.18-5.92 0-1.06 5.473 1.063 6.213 1.52.74.454 2.144 2.275 1.405 3.566zM11.933 13.057s2.663-.53 4.44.91c1.775 1.443 2.292 2.58 2.292 2.58l-2.993 2.434s-1.445-.68-1.89-2.66c-.443-1.97-.147-2.88-1.85-3.26zm10.12 14.793c-1.146-1.67-3.036-2.4-4.545-2.52-2.572-.206-3.793.727-3.793.727s4.213.183 5.427 1.82c2.26 3.044 5.558 3.29 6.086 2.622-.61.03-1.28-.28-2-.98-.447-.44-.81-1.15-1.175-1.68zm-7.113 5.902s-4.673-1.648-3.785-3.317c.888-1.67.18-2.58.18-2.58s-2.61 2-1.944 4.123c.41 1.305 1.1 2.25 4.86 4.06 1.81 3.44.38 9.634.46 9.663.15.05 2.54-1.21 2.38-7-.05-1.78-.19-4.21-2.14-4.94zm6.127-17.725c-1.96 1.02-4.646 2.444-4.646 2.444l1.06.55c-.1.17-.15.27-.15.27l1.09.506s2.65 1.968 4.27 3.233c-.54-1.71-2.13-4.394-2.13-4.394s-.45-1.235.51-2.6zm6.51 41.636c-6.024 0-8.064-3.138-8.064-3.138l.94 2.352c.357 1.017 4.153 4.183 7.115 4.183" fill="#e78724"/><path d="M20.173 52.405s.554 3.475 2.774 3.475c1.885 0 2.44-2.935 2.44-3.54l-5.214.065zm-3.693-5.24c.197-.557.887-2.808 1.11-4.857.265-2.453.168-6.042.168-6.042s-.592 2.352-1.11 2.732c-.517.38-1.48 2.96-1.48 2.96s-.515 3.84-.76 5.13c.68.14 1.25-.27 2.072.077zM11.12 31.94s1.258-.455 1.628-3.262c.37-2.808-.444-5.236-.444-5.236s.074 3.87-.37 4.63c-.444.757-.814.985-1.332 1.972-.518.987.222 1.593.518 1.897z" fill="#e78724"/><path d="M17.793 19.046" fill="#87ccee"/><path d="M12.622 13.722l-.257-.167c-.757.026.257.167.257.167z" fill="#fdc168"/><path d="M22.09 15.196s-1.183-.203-1.776-1.113c-.592-.91-2.268-2.732-4.94-2.753-2.673-.02-5.317.73-5.317.73l2.308 1.495c.244-.008.67-.005 1.377.02 2.896.098 3.342 3.037 3.342 3.037l10.21-1.442" fill="#fba919"/><path d="M23.076 31.43s-1.38 1.415-3.502.96c-2.12-.455-3.403-1.417-3.5-3.086-.1-1.67.443-2.327.443-2.327s2.367.76 3.502 1.77c1.13 1.012 1.97 2.63 3.05 2.682z" fill="#fff"/><path d="M21.405 30.923s-1.198.56-2.536.104c-1.76-.6-1.87-2.47-1.87-2.47s-1.08 3.237 1.94 3.86c2.41.5 3.84-.938 3.84-.938l-1.38-.56z" fill="#c9c9c9"/><path d="M22.782 49.062m-.526-34.552c-.13-2.777 2.09-4.987 2.858-5.08.042.47-.043 2.304.725 2.868.22-1.5.98-3.15 3.96-4.233-.64 1.74-.088 3.198.18 3.874 2.04-1.9 3.41-1.59 3.41-1.59s-1.418 2.51-.864 4.15c-4.095-.33-10.26.446-10.28 0zm-8.68 4.227c-.977-.832-.25-1.603-.326-2.548-.042-.51-.08-.98-.242-1.24-.9-1.46-3.02-1.9-3.04-1.91l-.997-.2.66-.79c.09-.104 2.79-2.75 6.98-1.366 2.93.97 5.1 4.255 5.18 4.39l-1.47.71c-.01-.03-1.73-3.12-4.24-3.95-2.03-.67-3.9-.03-4.703.386.853.35 1.967.986 2.64 2.074.316.514.37 1.16.42 1.79.07.83.133 1.61.728 2.116l-1.58.53zm-2.61 12.137s1.23-1.566 1.596-4.613c.143-1.2-.11-3.56-.518-4.47.074 2.24-.48 4.48-.48 4.48s-.375 4.158-.597 4.614zm6.49-13.72c0-.002-.394-1.77-1.487-2.662-1.55-1.258-3.43-.59-3.45-.583l-.277-.87c.09-.03 2.243-.73 4.227.7 1.995 1.44 2.235 2.74 2.255 2.884l-1.277.522zM14.833 29.75s-.645-.948-.53-1.99c.06-.515.29-1.044.707-1.232.77-.348 1.11.55 1.11.55s-1.086.275-1.29 2.673zm7.09 1.446l.04.08s-2.014 1.55-4.078-.022c-1.105-.843-1-2.93-.662-3.813.88.21 1.627.58 2.25 1.01-.788-.72-1.478-1.25-1.476-1.26l-.896-.26-1.74-.614c-.02.137-.65 3.19 1.18 5.274.817.923 4.628 2.99 6.438-.544l-1.046.16zm-.19.227c1.135 1.77 3.996.76 3.947-1.113 0 0-1.912 1.083-3.6-.91-.987-1.164-4.147-4.37-8.432-3.305 2.96.667 6.877 3.44 8.086 5.328zm1.05 17.64" fill="#463014"/><path d="M13.248 36.42c.272.162 1.234 1.184 1.235 2.712 0 .767-.074 4.618-.444 6.97.55.37.94.45 1.49.828.275-2.725.474-6.674.38-8.268-.106-1.817-1.054-3.037-1.934-3.557-.275-.162-.563-.322-.853-.483-1.508-.835-3.066-1.7-3.066-3.174 0-1.154.44-1.514.9-1.897l.05-.04c.31-.25.655-.54.86-1.01.563-1.295.655-4.6 0-5.436-.325-.417-1.198-1.822-.947-2.766.098-.36.32-.627.68-.816.38-.2.896-.3 1.53-.3 1.244 0 2.624.39 3.337.62 2.544.83 5.614 3.214 6.495 3.926l.043.033.563.4-.353-.604c-.02-.036-2.25-3.8-6.24-5.18-.777-.27-2.3-.72-3.8-.72-.89 0-1.65.16-2.248.476-.73.387-1.227.998-1.43 1.77-.5 1.893 1.14 4.003 1.196 4.07.19.35.272 2.895-.17 3.913-.06.14-.227.28-.438.453l-.22.172c-.628.483-1.57 1.212-1.57 2.893 0 2.3 2.272 3.55 4.1 4.55.3.167.584.323.843.476zm.328-17.683c-.977-.832-.25-1.603-.326-2.548-.042-.51-.08-.98-.242-1.24-.9-1.46-3.02-1.9-3.04-1.91l-.997-.2.66-.79c.09-.104 2.79-2.75 6.98-1.366 2.93.97 5.1 4.255 5.18 4.39l-1.47.71c-.01-.03-1.73-3.12-4.24-3.95-2.03-.67-3.9-.03-4.703.386.853.35 1.967.986 2.64 2.074.316.514.37 1.16.42 1.79.07.83.133 1.61.728 2.116l-1.58.53zm-.032.17l-.063-.054c-.72-.616-.59-1.224-.47-1.812.06-.27.12-.55.1-.83-.04-.483-.08-.94-.22-1.17-.855-1.386-2.924-1.83-2.944-1.835l-1.244-.25.825-.99c.015-.02 1.75-1.82 4.695-1.82.8 0 1.622.14 2.44.41 3.056 1.01 5.24 4.42 5.26 4.45l.086.148-1.736.84-.07-.114c-.186-.326-1.833-3.113-4.164-3.884-.57-.19-1.173-.287-1.79-.287-1.116 0-2.02.312-2.503.52.804.373 1.78 1 2.4 2 .334.543.39 1.21.442 1.85.064.8.126 1.553.673 2.02l.207.174-1.914.643zm3.913-1.752c0-.003-.395-1.77-1.488-2.663-1.55-1.258-3.43-.59-3.45-.583l-.277-.87c.09-.03 2.243-.73 4.227.7 1.995 1.44 2.235 2.74 2.255 2.884l-1.277.522zm-.107.207l-.038-.174c-.004-.017-.39-1.724-1.436-2.577-.596-.48-1.314-.73-2.134-.73-.64 0-1.116.16-1.168.18l-.14.05-.368-1.155.14-.047c.063-.02.635-.202 1.443-.202 1.06 0 2.07.32 2.91.93 2.04 1.473 2.29 2.836 2.312 2.987l.02.12-1.55.633zm-3.608-3.788c.876 0 1.678.277 2.32.8.927.758 1.364 2.097 1.496 2.577l1.006-.41c-.09-.36-.492-1.46-2.17-2.67-.803-.57-1.726-.87-2.745-.87-.56 0-1 .09-1.21.15l.18.58c.21-.06.61-.15 1.12-.15zm9.112 41.473c-.437 0-.883-.163-1.193-.438-.23-.21-1.03-.97-1.39-1.89-.13-.35-.1-.62.09-.82.14-.14.41-.3.96-.3h2.99c.42 0 .73.09.9.27.226.234.15.533.09.69-.11.277-.56 1.176-1.32 2.01-.272.3-.67.467-1.12.467zm.458-23.52l-1.578-.104s.403.73.665 1.673c.29 1.067-.27 2.627-.27 2.627s2.1-2.444 1.18-4.196zm-1.97 27.793c-5.617-.44-7.593-5.886-7.593-7.02h1.46-.737.734c.007.49 1.5 5.148 6.24 5.52l-.114 1.5z" fill="#463014"/><path d="M19.763 49.567c-.087-.52-.096-1.014.01-1.5-.426-.328-1.192-.45-1.767-.642-.47-.305-2.875.313-4.62-1.853C11.2 42.86 11.66 41.24 11.66 41.24c-.56.64-1.104.395-1.958 3.374-.856 2.98.402 5.057 2.745 7.142 1.107.985 2.672 1.39 4.018 1.546-.45-.465.77-.51 1.612-.834-.068-.697.045-1.374.552-1.92.3-.327.69-.524 1.1-.68l.06-.156c-.015-.047-.028-.095-.037-.145z" fill="#fff"/><path d="M18.065 52.45c-.048-.147-.085-.296-.12-.446-.04-.164-.234-.628.005-.098-.06-.136-.102-.276-.13-.417-3.796-.01-7.097-2.68-6.46-8.3-.496-.68-1.192 1.36-1.192 1.36s-1.9 5.66 3.007 7.85c1.635.73 3.08 1.254 3.42 1.043.71.15 1.35-.36 1.592-.694-.045-.104-.087-.206-.122-.31z" fill="#c9c9c9"/><path d="M19.695 48.752c.006-.474.1-.934.324-1.392.01-.03.03-.06.05-.092-1.46-.013-3.15-.156-4.58-.744-1.578-.646-3.547-2.856-3.88-5.452 0 0-2.97 2.347-2.098 7.37.817 4.715 4.665 6.253 9.052 6.513.002-.03-.494-1.08-.337-1.724-2.49.19-5.278-.8-6.623-3.07-1.23-2.08-.885-5.62-.38-6.14 1.236 3.998 5.677 4.81 8.46 4.74zm7.883 6.192" fill="#463014"/><path d="M20.155 45.89c-.79 2.378-2.403 4.302-2.403 4.302s2.22-.104 2.34-.506c.092-.297 2.005-4.89 2.74-10.27-.692 1.164-2.61 6.272-2.677 6.475z" fill="#463014"/><path d="M32.724 40.41s2.515 3.947 4.36 6.747c.286.433-1.845.463-1.845.463l-2.52-7.21zm-1.198-8.18s.758 1.942 1.173 2.97c.45 1.12 2.17 1.675 2.17 1.675s-.9-.958-.9-3.387c0-1.02-1.28-1.424-1.28-1.424l-1.17.167zm.766 1.1s1.553 1.896 4.44.833c2.884-1.062 3.18-4.857 3.18-5.92 0-1.06-5.475 1.063-6.215 1.52-.74.454-2.145 2.275-1.405 3.566zm10.896-20.273s-2.662-.53-4.438.91c-1.776 1.443-2.294 2.58-2.294 2.58l2.993 2.434s1.44-.68 1.89-2.66c.44-1.97.14-2.88 1.84-3.26zM33.07 27.85c1.145-1.67 3.034-2.4 4.543-2.52 2.573-.206 3.794.727 3.794.727s-4.213.183-5.428 1.82c-2.26 3.044-5.56 3.29-6.09 2.622.61.03 1.28-.28 2-.98.45-.44.81-1.15 1.17-1.68zm7.11 5.902s4.674-1.648 3.787-3.317c-.888-1.67-.182-2.58-.182-2.58s2.61 2 1.945 4.123c-.41 1.305-1.094 2.25-4.86 4.06-1.806 3.44-.373 9.634-.458 9.663-.143.05-2.536-1.21-2.373-7 .05-1.78.18-4.21 2.14-4.94zm-6.124-17.725c1.96 1.02 4.644 2.444 4.644 2.444l-1.056.55c.1.17.15.27.15.27l-1.085.506s-2.65 1.968-4.28 3.233c.54-1.71 2.13-4.394 2.13-4.394s.45-1.235-.51-2.6zm-6.51 41.636c6.022 0 8.062-3.138 8.062-3.138l-.94 2.352c-.356 1.017-4.153 4.183-7.114 4.183" fill="#e78724"/><path d="M34.95 52.405s-.556 3.475-2.775 3.475c-1.885 0-2.44-2.935-2.44-3.54l5.214.065zm3.692-5.24c-.197-.557-.887-2.808-1.11-4.857-.266-2.453-.168-6.042-.168-6.042s.592 2.352 1.11 2.732c.517.38 1.48 2.96 1.48 2.96s.514 3.84.76 5.13c-.68.14-1.25-.27-2.072.077zm5.36-15.225s-1.258-.455-1.628-3.262c-.37-2.808.444-5.236.444-5.236s-.074 3.87.37 4.63c.444.758.814.985 1.332 1.972.517.986-.222 1.593-.518 1.897z" fill="#e78724"/><path d="M37.33 19.046" fill="#87ccee"/><path d="M42.5 13.722l.257-.167c.757.026-.257.167-.257.167z" fill="#fdc168"/><path d="M33.032 15.196s1.183-.203 1.775-1.113c.592-.91 2.27-2.732 4.942-2.753 2.67-.02 5.31.73 5.31.73l-2.31 1.495c-.246-.008-.67-.005-1.38.02-2.896.098-3.342 3.037-3.342 3.037L27.82 15.17" fill="#fba919"/><path d="M32.045 31.43s1.382 1.415 3.502.96c2.12-.455 3.403-1.417 3.502-3.086.09-1.67-.45-2.327-.45-2.327s-2.37.76-3.5 1.77c-1.14 1.013-1.97 2.63-3.06 2.682z" fill="#fff"/><path d="M33.716 30.923s1.2.56 2.537.104c1.753-.6 1.87-2.47 1.87-2.47s1.074 3.237-1.94 3.86c-2.417.5-3.847-.938-3.847-.938l1.38-.56z" fill="#c9c9c9"/><path d="M32.34 49.062m9.206-30.325c.977-.832.25-1.603.326-2.548.042-.51.08-.98.242-1.24.9-1.46 3.02-1.9 3.042-1.91l.995-.2-.65-.79c-.084-.104-2.79-2.75-6.98-1.366-2.93.97-5.095 4.255-5.176 4.39l1.468.71c.02-.03 1.734-3.12 4.247-3.95 2.03-.67 3.902-.03 4.704.386-.852.35-1.97.986-2.64 2.074-.316.514-.37 1.16-.42 1.79-.07.83-.133 1.61-.73 2.116l1.58.53zm2.61 12.137s-1.23-1.566-1.596-4.613c-.143-1.2.11-3.56.517-4.47-.073 2.24.482 4.48.482 4.48s.37 4.158.59 4.614zm-6.49-13.72c0-.002.394-1.77 1.487-2.662 1.542-1.258 3.425-.59 3.443-.583l.274-.87c-.09-.03-2.243-.73-4.227.7-1.996 1.44-2.234 2.74-2.256 2.884l1.278.522zM40.29 29.75s.645-.948.528-1.99c-.057-.515-.29-1.044-.705-1.232-.772-.348-1.114.55-1.114.55s1.08.275 1.29 2.673zm-7.09 1.446c-.028.052-.04.08-.04.08s2.012 1.55 4.076-.022c1.106-.843 1-2.93.662-3.813-.88.21-1.626.58-2.25 1.01.788-.72 1.48-1.25 1.476-1.26l.897-.26 1.75-.613c.025.137.66 3.193-1.175 5.274-.813.925-4.624 2.99-6.433-.543l1.046.16zm.187.227c-1.134 1.77-3.994.76-3.944-1.113 0 0 1.91 1.083 3.6-.91.986-1.164 4.146-4.37 8.43-3.305-2.958.667-6.876 3.44-8.086 5.328zm-1.047 17.64" fill="#463014"/><path d="M41.875 36.42c-.273.162-1.236 1.184-1.236 2.712 0 .767.07 4.618.44 6.97-.56.37-.95.45-1.5.828-.28-2.725-.48-6.674-.387-8.268.106-1.817 1.054-3.037 1.934-3.557.275-.162.563-.322.854-.483 1.505-.835 3.063-1.7 3.063-3.174 0-1.154-.438-1.514-.9-1.897l-.05-.04c-.307-.25-.655-.54-.86-1.01-.563-1.295-.655-4.6 0-5.436.324-.417 1.2-1.822.947-2.766-.095-.36-.316-.627-.676-.816-.38-.2-.895-.3-1.53-.3-1.243 0-2.625.39-3.336.62-2.543.83-5.614 3.214-6.495 3.926l-.04.033-.564.4.353-.604c.023-.036 2.253-3.8 6.242-5.18.776-.27 2.3-.72 3.8-.72.89 0 1.647.16 2.247.476.73.387 1.225.998 1.43 1.77.505 1.897-1.136 4.007-1.192 4.075-.19.35-.27 2.894.17 3.912.06.14.23.28.44.453.066.055.14.11.218.173.626.483 1.57 1.212 1.57 2.893 0 2.3-2.274 3.55-4.1 4.55-.3.166-.587.32-.845.475zm-2.71-17.954c-.363-.628-1.287-1.84-3.418-2.906-2.378-1.19-5.13-1.793-8.18-1.794h-.01c-3.05 0-5.805.605-8.18 1.793-2.13 1.06-3.057 2.27-3.418 2.9l-.16.21 1.82.414.06-.075.03-.07c.03-.12.272-.79 2.306-1.808 2.175-1.09 4.712-1.64 7.54-1.64s5.36.55 7.536 1.64c2.033 1.017 2.28 1.685 2.306 1.81l.03.067.057.075 1.827-.418-.155-.21zm2.38.27c.978-.83.25-1.602.327-2.547.042-.51.08-.98.242-1.24.9-1.46 3.02-1.9 3.042-1.91l.995-.2-.65-.79c-.084-.104-2.79-2.75-6.98-1.366-2.93.97-5.095 4.255-5.176 4.39l1.468.71c.02-.03 1.734-3.12 4.247-3.95 2.03-.67 3.902-.03 4.704.386-.852.35-1.97.986-2.64 2.074-.316.514-.37 1.16-.42 1.79-.07.83-.133 1.61-.73 2.116l1.58.53zm-1.88-.472l.206-.175c.55-.47.61-1.22.68-2.02.058-.65.11-1.31.448-1.86.618-1 1.595-1.626 2.4-1.998-.482-.21-1.39-.523-2.504-.523-.617 0-1.22.096-1.792.286-2.33.77-3.977 3.56-4.163 3.884l-.07.116-1.74-.84.09-.144c.02-.033 2.2-3.44 5.256-4.45.818-.272 1.64-.41 2.44-.41 2.94 0 4.68 1.8 4.695 1.82l.824.987-1.245.25c-.02.002-2.09.446-2.947 1.833-.142.23-.18.687-.22 1.17-.023.29.036.57.093.84.128.59.257 1.196-.47 1.812l-.06.053-1.912-.645zm-2-1.11c0-.002.395-1.77 1.488-2.662 1.542-1.258 3.425-.59 3.443-.583l.274-.87c-.09-.03-2.243-.73-4.227.7-1.996 1.44-2.234 2.74-2.256 2.884l1.278.522zm-1.44-.424l.016-.12c.03-.15.28-1.513 2.32-2.987.84-.607 1.85-.928 2.92-.928.81 0 1.38.183 1.445.203l.14.047L42.7 14.1l-.14-.04c-.054-.02-.53-.174-1.17-.174-.82 0-1.538.247-2.134.734-1.045.853-1.432 2.56-1.436 2.577l-.038.176-1.547-.63zm6.275-3.008l.182-.576c-.215-.056-.65-.147-1.21-.147-1.018 0-1.94.29-2.744.87-1.678 1.21-2.08 2.3-2.17 2.67l1.007.41c.132-.48.568-1.82 1.497-2.58.64-.52 1.442-.8 2.318-.8.504 0 .91.09 1.12.15zm-11.35 40.86c-.762-.836-1.213-1.735-1.32-2.012-.064-.157-.135-.457.09-.693.173-.182.475-.276.897-.276h2.59l.395.01c.555 0 .828.164.96.3.19.2.22.475.09.82-.354.925-1.155 1.68-1.39 1.888-.31.275-.756.438-1.193.438-.45 0-.85-.165-1.12-.464zm.66-23.055l1.577-.104s-.402.73-.664 1.673c-.295 1.067.27 2.627.27 2.627s-2.104-2.444-1.183-4.196z" fill="#463014"/><path d="M27.56 25.748c-1.005 0-2.316-.03-3.3-.754 0 0 1.288 2.317 3.3 2.317v-.29l.003.3c2.01 0 3.3-2.316 3.3-2.316-.985.725-2.297.754-3.302.754z" fill="#e78724"/><path d="M30.33 25.736c-1.008.627-1.91.844-2.77.863-.858-.02-1.76-.24-2.768-.87 0 0 1.47 1.84 2.762 1.85h.015c1.29-.014 2.76-1.854 2.76-1.854zm3.45 33.584l-.112-1.5c4.737-.373 6.23-5.03 6.238-5.52h1.467c0 1.134-1.977 6.58-7.593 7.02z" fill="#463014"/><path d="M35.358 49.567c.088-.52.097-1.014-.01-1.5.428-.328 1.193-.45 1.768-.642.47-.305 2.875.313 4.62-1.853 2.186-2.713 1.726-4.332 1.726-4.332.56.64 1.103.395 1.958 3.374.856 2.98-.402 5.057-2.745 7.142-1.107.985-2.672 1.39-4.018 1.546.45-.465-.77-.51-1.61-.834.066-.697-.047-1.374-.554-1.92-.305-.327-.698-.524-1.106-.68-.023-.054-.042-.104-.063-.156.013-.047.026-.095.034-.145z" fill="#fff"/><path d="M37.056 52.45c.05-.147.085-.296.122-.446.04-.164.233-.628-.006-.098.06-.136.1-.276.13-.417 3.795-.01 7.097-2.68 6.458-8.3.497-.68 1.193 1.36 1.193 1.36s1.9 5.66-3.006 7.85c-1.635.73-3.08 1.254-3.42 1.043-.71.15-1.352-.36-1.592-.694.045-.104.087-.206.12-.31z" fill="#c9c9c9"/><path d="M35.426 48.752c-.005-.474-.1-.934-.323-1.392-.016-.03-.034-.06-.05-.092 1.46-.013 3.14-.156 4.574-.744 1.573-.646 3.542-2.856 3.88-5.452 0 0 2.965 2.347 2.094 7.37-.81 4.715-4.66 6.253-9.05 6.513 0-.03.5-1.08.34-1.724 2.49.19 5.28-.8 6.627-3.07 1.23-2.08.885-5.62.38-6.14-1.235 3.998-5.677 4.81-8.462 4.74z" fill="#463014"/><g fill="#463014"><path d="M27.545 54.944"/><path d="M37.198 49.935c-.524-.582-1.488-1.274-3.71-1.274h-5.932l-5.92.01c-2.222 0-3.185.694-3.71 1.275-.764.846-.884 2.023-.355 3.494 1.41 3.914 3.38 7.892 9.99 7.9h.018c6.608-.008 8.58-3.986 9.986-7.9.53-1.47.41-2.65-.355-3.495zm-1.03 3.22c-.668 1.965-2.466 6.725-8.607 6.733-6.14-.008-7.94-4.767-8.6-6.734-.37-1.09-.34-1.898.088-2.4.293-.342.965-.75 2.498-.75l1.6-.004h4.42c1.758 0 3.243 0 4.424.002h1.6c1.533 0 2.206.41 2.5.753.427.502.456 1.308.085 2.4z"/></g><path d="M34.967 45.89c.79 2.378 2.402 4.302 2.402 4.302s-2.22-.104-2.35-.506c-.09-.297-2.004-4.89-2.738-10.27.69 1.164 2.61 6.272 2.676 6.475z" fill="#463014"/><path d="M28.2 61.315a.537.537 0 1 1-1.075 0 .537.537 0 1 1 1.074 0z" fill="#463014" stroke="#000" stroke-width="0" stroke-linecap="square" stroke-miterlimit="1.9"/></svg>