<svg xmlns="http://www.w3.org/2000/svg" width="55.313" height="64"><path d="M27.656 0L0 16v32l27.656 16 27.657-16V16L27.655 0zm.063 2.563l25.5 14.75v29.5l-25.5 14.75-25.5-14.75v-29.5l25.5-14.75zm8.51 2.995l-5.47 5.72-1.53 6c-.51-.008-1.01 0-1.53 0-7.18 0-12.97.667-12.97 1.5 0 .83 5.79 2.03 12.97 2.03 7.17 0 13-1.2 13-2.03 0-.668-3.77-1.24-8.94-1.44l1.5-5.186 4.94-5.47-1.97-1.124zm-4.94 13.344h.03c.18.076.31.2.31.28 0 .217-.76.47-1.595.47-.83 0-1.593-.253-1.593-.47 0-.082.13-.172.31-.25-.01.022-.03.042-.03.064 0 .214.593.375 1.31.375.717 0 1.282-.16 1.282-.37 0-.01-.03-.02-.033-.03v-.03c0-.01.007-.022 0-.03zm-16.56.656L16.1 33.87c.072-.24.16-.47.25-.713.182-.503.385-1.02.625-1.5s.5-.917.78-1.344c.282-.427.59-.83.906-1.187.32-.36.638-.678.97-.937.338-.26.69-.45 1.03-.6.346-.143.67-.22 1-.22.39 0 .77.105 1.13.316.36.21.685.56 1 1.03.072.105.14.204.156.312.016.107.03.216.03.31 0 .226-.05.4-.158.53s-.26.19-.408.19c-.137 0-.26-.045-.377-.188-.114-.142-.23-.357-.373-.623-.136-.244-.306-.426-.47-.534-.165-.11-.342-.157-.533-.157-.298 0-.6.13-.938.375-.34.246-.67.564-1 .97-.33.403-.67.854-.97 1.374-.305.52-.58 1.046-.81 1.592-.238.546-.398 1.096-.536 1.626-.14.53-.22 1.013-.22 1.435 0 .14.01.29.03.44.02.15.04.286.095.407.054.12.13.204.22.28.09.08.203.127.343.127.158 0 .364-.05.564-.156.198-.103.378-.234.592-.404.212-.17.44-.378.654-.594.215-.216.406-.435.592-.656.187-.22.356-.42.5-.623.145-.202.272-.38.344-.53l.598-1.78c.073-.192.165-.327.28-.407.12-.08.223-.126.346-.126.06 0 .128.01.187.03.06.02.11.053.157.096.045.044.096.09.124.158.026.07.03.16.03.25 0 .24-.02.478-.063.69-.042.21-.09.393-.156.594-.065.2-.14.424-.22.627-.08.203-.17.403-.25.624-.014.025-.05.116-.09.25-.046.133-.094.3-.158.5-.06.2-.14.407-.214.656-.077.25-.143.524-.22.783-.08.26-.148.5-.22.75-.07.248-.13.486-.187.687-.06.2-.12.364-.157.5-.037.135-.053.224-.06.25-.02.08-.08.15-.125.25-.046.097-.092.193-.155.28-.065.088-.144.16-.22.22-.076.057-.138.093-.22.093-.136 0-.25-.066-.312-.156s-.094-.227-.094-.47v-.123c0-.035.025-.054.03-.094.003-.08.033-.248.093-.47.06-.22.135-.47.22-.75.08-.28.152-.575.25-.874.093-.3.17-.546.25-.783-.227.252-.458.502-.72.75-.264.25-.538.458-.814.657-.274.2-.562.374-.842.5-.28.125-.52.187-.78.187-.297 0-.567-.087-.78-.22-.04-.02-.09-.034-.126-.06l.876 9.094.5.816c1.48.95 5.276 1.62 9.72 1.625 4.042 0 7.536-.553 9.25-1.373l.653-1.064 1.22-10.812c-.103.096-.185.194-.28.28-.36.336-.716.608-1.033.847-.314.24-.604.432-.905.563-.3.13-.625.185-.97.185-.32 0-.572-.047-.75-.187-.175-.14-.25-.35-.25-.596V37.6c0-.018-.003-.038 0-.063.018-.15.074-.304.19-.5.113-.196.244-.414.405-.625.16-.21.35-.41.53-.626.188-.216.35-.43.5-.625.16-.19.28-.37.38-.53.1-.16.156-.302.156-.41 0-.06-.02-.09-.063-.12-.04-.034-.12-.062-.22-.062-.167 0-.317.038-.5.126-.18.088-.384.227-.56.375-.176.15-.332.31-.5.5-.167.19-.323.39-.47.594-.145.205-.284.415-.405.624-.12.21-.227.387-.312.563l-.09.25c-.05.1-.1.218-.16.344-.053.128-.124.245-.185.378-.063.135-.106.26-.157.377l-.124.312c-.043.09-.08.15-.096.186-.02.045-.073.155-.122.28-.05.127-.093.27-.156.44l-.185.53c-.07.186-.157.365-.22.53l-.155.44c-.046.124-.08.204-.093.25-.04.13-.1.258-.155.374-.057.116-.113.194-.187.28-.075.09-.156.168-.25.22-.097.054-.195.094-.314.094-.153 0-.275-.05-.375-.124-.1-.073-.155-.2-.155-.407 0-.1.003-.207.03-.31.024-.107.054-.21.092-.314.04-.104.088-.216.128-.313.04-.097.06-.19.095-.28.23-.503.48-.996.72-1.5.238-.506.47-1.006.688-1.5.04-.092.055-.192.094-.282-.275.27-.57.518-.843.72-.274.204-.543.35-.813.47s-.523.188-.78.188c-.172 0-.32-.04-.435-.095-.12-.057-.214-.125-.285-.22-.07-.096-.127-.214-.157-.344-.01-.045.005-.08 0-.125-.076.06-.176.102-.25.155-.265.188-.497.358-.75.47-.256.114-.486.157-.69.157-.203 0-.372-.052-.5-.187-.127-.137-.187-.394-.187-.72 0-.23.026-.475.094-.78-.11.195-.24.39-.407.592-.165.2-.35.364-.562.53-.21.165-.45.303-.714.406-.263.105-.565.158-.875.158-.14 0-.276-.026-.406-.06-.127-.034-.244-.07-.34-.156-.1-.086-.16-.2-.22-.344-.06-.143-.095-.346-.095-.562 0-.003.013-.07.03-.22.017-.145.065-.365.156-.684.09-.32.246-.744.437-1.25.19-.51.43-1.12.78-1.845.09-.19.194-.323.31-.406.118-.083.24-.125.377-.125.055 0 .12.012.183.03.066.017.134.025.19.063.055.04.09.1.125.157.032.057.06.112.06.187 0 .05-.017.113-.03.158-.02.086-.055.206-.125.344-.07.14-.157.29-.25.47s-.18.355-.28.562c-.106.202-.225.432-.314.653-.09.22-.158.427-.22.656-.065.23-.087.473-.095.69 0 .09.018.173.06.25.043.074.09.09.19.09.274 0 .56-.07.81-.25s.476-.42.69-.686c.21-.27.39-.568.56-.877.173-.31.324-.586.44-.843.08-.17.156-.368.217-.563.063-.193.117-.362.19-.53.072-.164.156-.293.25-.404.093-.11.204-.186.344-.186.152 0 .285.07.374.186.09.118.126.248.126.408 0 .09-.038.216-.095.374-.054.16-.1.36-.185.563-.085.205-.21.396-.31.627-.1.23-.193.48-.28.72-.086.236-.16.456-.22.685-.056.23-.06.46-.06.658 0 .18.094.282.28.282.13 0 .274-.066.47-.157.195-.09.41-.21.624-.375.054-.04.103-.08.157-.125.06-.247.138-.48.22-.688.15-.394.284-.77.437-1.158.152-.39.31-.74.436-1.065l1.94-4.874c.075-.195.15-.325.28-.405.13-.08.275-.124.406-.124.133 0 .237.04.345.125.11.086.19.216.19.407 0 .09-.03.215-.064.316-.036.1-.07.196-.125.312-.104.235-.26.532-.404.874-.148.342-.303.692-.47 1.094-.167.404-.324.817-.5 1.25-.176.437-.364.87-.53 1.28-.168.415-.324.82-.47 1.19-.146.37-.27.667-.375.938-.046.116-.08.253-.124.406-.043.153-.06.285-.06.406 0 .075.006.142.03.187.026.045.085.063.157.063.09 0 .18-.03.314-.093s.28-.147.436-.25c.156-.103.334-.21.5-.344.17-.133.336-.263.5-.406.167-.142.32-.294.47-.437.15-.143.287-.285.406-.406.03-.03.056-.045.093-.06.07-.212.13-.42.186-.623.034-.09.096-.21.156-.375.058-.165.11-.34.186-.5.077-.16.155-.29.25-.405.096-.12.2-.19.313-.19.168 0 .297.047.374.125.075.08.124.195.124.346 0 .03-.023.06-.032.126l-.03.22c-.016.073-.02.154-.034.22-.016.065-.02.095-.03.125.154-.17.315-.33.5-.5.18-.168.365-.333.56-.47.195-.134.39-.226.594-.31.206-.087.42-.126.627-.126.14 0 .265.02.403.06.14.04.27.078.377.156.107.08.18.196.25.314s.124.25.124.404c0 .204-.05.42-.154.655-.107.235-.25.484-.41.72-.157.237-.32.464-.5.688-.183.224-.372.41-.532.595-.16.186-.268.34-.376.47-.107.13-.182.206-.186.25 0 .06.025.12.063.158.04.038.1.063.186.063.072 0 .172-.045.312-.125s.34-.21.593-.406c.255-.2.584-.477.97-.812.268-.23.588-.5.94-.812l1.78-15.63c-1.822.872-6.94 1.813-12.97 1.813-6.027 0-11.146-.94-12.97-1.81h-.03zm3.15 28.875l1.82 2.907.622 8.156 5.093 2.875c1.28.26 2.71.37 4.25.13l5.125-2.94.5-8.31 1.564-2.56c-1.706.82-5.187 1.37-9.22 1.376h-.06c-4.43-.007-8.21-.676-9.69-1.626z"/></svg>