<svg xmlns="http://www.w3.org/2000/svg" height="64" width="55.313"><defs><marker orient="auto" overflow="visible"><path d="M-10 0l-4 4L0 0l-14-4 4 4z" fill-rule="evenodd" stroke="#000" stroke-width=".8pt"/></marker><marker orient="auto" overflow="visible"><path d="M10 0l4-4L0 0l14 4-4-4z" fill-rule="evenodd" stroke="#000" stroke-width=".8pt"/></marker></defs><g fill="#cb3837" fill-rule="evenodd"><path d="M.16 16.072l.005 31.95 27.19-15.244L27.35.828z" fill="#8686bf"/><path d="M.165 48.022l27.19-15.244L55 48.27 27.81 63.514z" fill="#d7d7ff"/><path d="M27.35.828l.006 31.95L54.998 48.27l-.005-31.95z" fill="#afafde"/><path d="M.16 16.072l.005 31.95 27.643 15.492-.005-31.95z" fill="#e6e6e6"/><path d="M.16 16.072L27.35.828 54.994 16.32l-27.19 15.244z" fill="#f9f9f9"/><path d="M27.803 31.564l.005 31.95 27.19-15.244-.005-31.95z" fill="#b3b3b3"/></g><path d="M27.656 0L0 16v32l27.656 16 27.656-16V16L27.656 0zm0 2.5l25.5 14.75v29.5l-25.5 14.75-25.5-14.75v-29.5l25.5-14.75z" fill="#cb3837"/><path fill="#fff" d="M2.26 24.74h49.918v17.113H2.26z"/><path d="M.62 23.08h54.07v18.78H27.657v3.13H15.64v-3.13H.62V23.08zm3.005 15.65h6.008v-9.39h3.004v9.39h3.004V26.21H3.63v12.52zm15.02-12.52v15.65h6.007v-3.13h6.008V26.21H18.644zm6.007 3.13h3.004v6.26h-3.004v-6.26zm9.012-3.13v12.52h6.007v-9.39h3.01v9.39h3.008v-9.39h3.004v9.39h3.004V26.21h-18.03z" fill="#cb3837"/></svg>